<?xml version="1.0" encoding="UTF-8"?>
<svg xmlns="http://www.w3.org/2000/svg" viewBox="0 0 768 384">
  <g style="isolation: isolate;">
    <g id="Layer_2" data-name="Layer 2">
      <g id="Layer_1-2" data-name="Layer 1">
        <g>
          <rect width="768" height="382.52" style="fill: #ffebdc;"/>
          <g>
            <path d="M542.63,180.64c-1.83-1.49-4.2-4.74-3.09-6.85,1.11-2.12,4.17,3.33,5.34,1.24,.55-.99,1.94-2.22-.1-5.6-.46-.76-1.58-.89-2.03-1.65,.67-9.36,2.93-12.85,1.64-17.76-1.64-6.25-3.28-13.89-8.73-17.19-.93-.56-2.63-4.28-.49-7.2,8.01-10.92,2.75-18.49,4.46-26.8-2.97,8.21-2.35,17.21-6.57,23.04-2.47,3.41-3.56,9.31-2.26,12.89,.76,2.08,1.06,10.42,1.55,14.1,.35,2.63-4.4,3.63-6.31,5.6-2.52,2.61,5.14,.77,2.43,17.96-.1,.61,2.87,3.65,3.1,4.23,.22,.56,.21,1.18,.17,1.78-.26,3.51-2.52-.33-5.17,1.96-.55,.48-1.18,.96-1.37,1.67-.21,.8,.2,1.61,.63,2.3,2.54,4.12,6.18,7.51,10.43,9.73l3.88-1.63c1.72-.77,3.3-1.89,4.59-3.29,1.68-1.81,2.8-4.87,1.09-6.62-.88-.9-2.25-1.12-3.22-1.92Z" style="fill: #f9b45b;"/>
            <g>
              <polygon points="528.76 191.16 526.14 191.16 530.36 323.57 532.98 323.57 528.76 191.16" style="fill: #614749;"/>
              <polygon points="539.82 192.32 537.2 192.32 538.22 323.57 540.84 323.57 539.82 192.32" style="fill: #614749;"/>
              <polygon points="549.94 193.77 547.32 193.77 544.07 326.18 546.69 326.18 549.94 193.77" style="fill: #614749;"/>
              <rect x="527.45" y="319.81" width="21.84" height="7.24" style="fill: #614749;"/>
              <rect x="519" y="334.29" width="7.86" height="5.51" style="fill: #614749;"/>
              <polygon points="526.98 339.61 531.01 323.57 527.69 323.57 523.66 339.61 526.98 339.61" style="fill: #614749;"/>
              <rect x="550.08" y="334.29" width="7.86" height="5.51" transform="translate(1108.03 674.09) rotate(180)" style="fill: #614749;"/>
              <rect x="534.65" y="334.29" width="7.86" height="5.51" transform="translate(1077.17 674.09) rotate(180)" style="fill: #614749;"/>
              <polygon points="549.97 339.61 545.93 323.57 549.25 323.57 553.29 339.61 549.97 339.61" style="fill: #614749;"/>
              <polygon points="537.46 338.74 537.74 322.7 540.68 322.7 540.39 338.74 537.46 338.74" style="fill: #614749;"/>
              <polygon points="557.73 187.39 519.88 187.39 522.5 195.51 552.19 201.88 557.73 187.39" style="fill: #614749;"/>
              <rect x="515.48" y="185.66" width="45.23" height="4.06" style="fill: #85796a;"/>
              <path d="M552.29,201.63c-1.75-4.61-8.48-8.05-16.52-8.05-4.15,0-7.96,.92-10.91,2.44l27.33,5.87,.1-.25Z" style="fill: #86676a;"/>
            </g>
          </g>
          <path d="M465.01,333.63c4.3-4.39,2.59-13.67-3.46-18.78-6.05-5.11-15.1-4.93-18.32,.37-3.72-2.63-6.74-6.44-8.3-10.49-11.22-.54-23.64-9.89-28.03-21.12-1.44,2.44-2.24,5.34-2.32,8.44,6.81,3.21,13.29,7.68,18.92,13.04,2.45,2.33,4.82,4.96,5.97,7.94,2.78,7.22-2.62,12.99-8.55,15.71-6.07,2.78-14.39,3.74-20.99-1.37,1.04,1.13,.66,2.78-.38,3.38-1.05,.6-2.49,.46-3.86,.31-5.15-.58-10.3-1.17-15.45-1.75-.95-9.05-9.71-18.59-18.95-20.64-9.24-2.05-17.59,3.71-18.04,12.45-1.68-.77-3.52-.84-4.91-.2,.16-4.3,.31-8.69-.93-13.17-1.24-4.48-4.11-9.16-8.36-11.73-4.01-2.43-8.48-2.6-12.65-2.69-4.03-.08-8.07-.16-12.1-.25-2.59-.05-5.26-.09-7.42,.87-1.57,.7-2.78,1.96-3.48,3.52-.07-2.37-1.69-5.13-4.14-5.96-.87-.29-1.68-.23-2.36,.08,.8-11.57-3.3-24.97-13.62-33.54-5.63-4.67-12.41-7.35-19-8.91-20.07-4.77-39.52,.24-52.2,12.03-7.15,6.65-12.41,15.99-11.16,27.09,.97,8.56,5.78,17.35,12.13,24.66,6.35,7.31,14.16,13.29,22.18,18.58,12.6,8.31,27.93,15.41,39.45,11.11l194.31,3.55c4.11-1.29,7.2-4.42,8.42-8.53,.5-1.67-.94-4.87-2.41-4.02Z" style="fill: #fff4e4;"/>
          <g>
            <rect x="641.05" y="51.64" width="9.36" height="11.41" transform="translate(1291.46 114.68) rotate(180)" style="fill: #ddb28a;"/>
            <ellipse cx="641.41" cy="52.79" rx="8.99" ry="10.25" style="fill: #ddb28a;"/>
            <rect x="569.67" y="51.64" width="9.36" height="11.41" style="fill: #ddb28a;"/>
            <ellipse cx="578.67" cy="52.79" rx="8.99" ry="10.25" style="fill: #ddb28a;"/>
            <rect x="587.69" y="53.2" width="44.6" height="311.98" style="fill: #eac8a8;"/>
            <rect x="589.57" y="80.96" width="40.2" height="253.77" style="fill: #faddbf;"/>
            <g>
              <rect x="620.92" y="83.06" width="4.2" height="253.07" style="fill: #edcbaa;"/>
              <rect x="612.02" y="83.06" width="4.2" height="253.07" style="fill: #edcbaa;"/>
              <rect x="603.12" y="83.06" width="4.2" height="253.07" style="fill: #edcbaa;"/>
              <rect x="594.22" y="83.06" width="4.2" height="253.07" style="fill: #edcbaa;"/>
            </g>
            <path d="M612.89,320.9c-12.71,0-23.02-47.84-23.02-106.85s10.3-106.85,23.02-106.85c8.15,0,15.31,19.69,19.4,49.36V53.2h-44.6V365.18h44.6v-93.64c-4.09,29.67-11.25,49.36-19.4,49.36Z" style="fill: #eac8a8; mix-blend-mode: multiply; opacity: .46;"/>
            <path d="M636.87,346.58v-7.46h-53.75v7.46c0,11.46,0,21.05-8.73,21.05v10.93h71.2v-10.93c-8.73,0-8.73-9.59-8.73-21.05Z" style="fill: #f5d9bd;"/>
            <path d="M659.44,53.2c0-.15,.04-.29,.04-.45,0-.64-.07-1.26-.17-1.87-1.63-15.37-15.54-14.86-15.54-14.86h-67.38s-13.91-.5-15.54,14.86c-.1,.61-.17,1.23-.17,1.87,0,.15,.03,.3,.04,.45,0,.25-.04,.47-.04,.73h.1c.52,5.14,4.3,9.14,8.94,9.14s8.42-4,8.94-9.14h.04c.37-.96-.35-3.92,.34-5.27,.44-.86,1.97-1.92,3.95-1.01,1.97,.91,1.91,27.18,1.91,27.18h50.35s-.07-26.27,1.91-27.18c1.97-.91,3.51,.15,3.94,1.01,.69,1.35-.03,4.31,.34,5.27h.04c.52,5.14,4.3,9.14,8.94,9.14s8.42-4,8.94-9.14h.1c0-.26-.03-.48-.04-.73Z" style="fill: #ecceac;"/>
            <g>
              <path d="M631.37,353.61c2.07,0,2.6-5.76,2.68-13.28h-5.36c.08,7.52,.61,13.28,2.68,13.28Z" style="fill: #eac8a8;"/>
              <path d="M622.88,353.61c2.07,0,2.6-5.76,2.68-13.28h-5.36c.08,7.52,.61,13.28,2.68,13.28Z" style="fill: #eac8a8;"/>
              <path d="M614.38,353.61c2.07,0,2.6-5.76,2.68-13.28h-5.36c.08,7.52,.61,13.28,2.68,13.28Z" style="fill: #eac8a8;"/>
              <path d="M605.88,353.61c2.07,0,2.6-5.76,2.68-13.28h-5.36c.08,7.52,.61,13.28,2.68,13.28Z" style="fill: #eac8a8;"/>
              <path d="M597.39,353.61c2.07,0,2.6-5.76,2.68-13.28h-5.36c.08,7.52,.61,13.28,2.68,13.28Z" style="fill: #eac8a8;"/>
              <path d="M588.89,353.61c2.07,0,2.6-5.76,2.68-13.28h-5.36c.08,7.52,.61,13.28,2.68,13.28Z" style="fill: #eac8a8;"/>
            </g>
            <path d="M643.1,52.76c0-4.63,3.29-8.38,7.34-8.38s7.34,3.75,7.34,8.38c0,4.63-3.29,8.38-7.34,8.38s-7.34-3.75-7.34-8.38Z" style="fill: #ddb28a;"/>
            <path d="M646.9,52.76c0-2.23,1.59-4.04,3.54-4.04,1.96,0,3.54,1.81,3.54,4.04s-1.59,4.04-3.54,4.04-3.54-1.81-3.54-4.04Z" style="fill: #ecceac;"/>
            <ellipse cx="570.04" cy="52.76" rx="7.34" ry="8.38" style="fill: #ddb28a;"/>
            <path d="M566.5,52.76c0-2.23,1.59-4.04,3.54-4.04,1.96,0,3.54,1.81,3.54,4.04s-1.59,4.04-3.54,4.04-3.54-1.81-3.54-4.04Z" style="fill: #ecceac;"/>
            <g>
              <path d="M592.28,61.88c-1.74,0-2.18,4.58-2.25,10.56h4.5c-.07-5.98-.51-10.56-2.25-10.56Z" style="fill: #ddb28a;"/>
              <path d="M599.42,61.88c-1.74,0-2.18,4.58-2.25,10.56h4.5c-.07-5.98-.51-10.56-2.25-10.56Z" style="fill: #ddb28a;"/>
              <path d="M606.56,61.88c-1.74,0-2.18,4.58-2.25,10.56h4.5c-.07-5.98-.51-10.56-2.25-10.56Z" style="fill: #ddb28a;"/>
              <path d="M613.7,61.88c-1.74,0-2.18,4.58-2.25,10.56h4.5c-.07-5.98-.51-10.56-2.25-10.56Z" style="fill: #ddb28a;"/>
              <path d="M620.84,61.88c-1.74,0-2.18,4.58-2.25,10.56h4.5c-.07-5.98-.51-10.56-2.25-10.56Z" style="fill: #ddb28a;"/>
              <path d="M627.98,61.88c-1.74,0-2.18,4.58-2.25,10.56h4.5c-.07-5.98-.51-10.56-2.25-10.56Z" style="fill: #ddb28a;"/>
            </g>
          </g>
          <g>
            <path d="M460.57,290.32c-.3-1.31-1.28-2.24-2.48-2.88,.72,.85,1.45,1.7,2.17,2.56l.31,.33Z" style="fill: #fff4e4;"/>
            <path d="M453,264.18c-.32,.16-.65,.37-.8,.69-.17,.38-.05,.84,.17,1.2,.86,1.45,2.87,1.76,4.51,1.38,2.19-.5,4.17-2,5.09-4.06,.91-2.06,.65-4.63-.78-6.36-1.51-1.81-3.98-2.49-6.32-2.75-4.92-.54-10.12,.44-14.14,3.33-4.02,2.89-6.69,7.81-6.27,12.74,.42,4.93,4.27,9.55,9.17,10.28,.07,1.07-.57,2.05-.98,3.04-.42,.99-.54,2.32,.32,2.98,.77,.6,1.87,.31,2.81,.06,3.12-.82,6.44-.91,9.6-.26,.93,.19,1.88,.51,2.73,.97-.88-1.03-1.75-2.07-2.63-3.1-.49-.58-1.08-1.2-1.84-1.22-.59-.01-1.11,.36-1.61,.66-.92,.55-1.99,.93-3.05,.81-1.07-.11-2.11-.81-2.41-1.84-.63-2.21,2.19-4.73,.83-6.58-1.1-1.49-3.42-.56-5.26-.71-1.65-.13-3.1-1.3-3.92-2.74-.82-1.44-1.1-3.13-1.19-4.78-.16-3.01,.33-6.25,2.34-8.5,2.64-2.97,7.03-3.43,10.99-3.7,1.75-.12,3.57-.22,5.18,.46s2.92,2.42,2.51,4.12c-.51,2.13-3.07,2.85-5.02,3.85Z" style="fill: #fff4e4;"/>
          </g>
          <path d="M646.54,261.96c-9.39-4.2-21.83-1.57-28.14,5.94-.75-3.68-6.11-5.27-9.96-3.94-3.85,1.33-6.46,4.52-8.85,7.56-1.1-6.37-5.61-12.6-12.4-14.55-9.06-2.59-18.41,2.96-24.98,9.13-3.08,2.89-6,6.1-7.27,9.96-1.27,3.86-.53,8.49,2.82,11.17,1.34,1.07,3.02,1.78,4.2,3,2.48,2.57,1.97,6.47,.91,9.73-2.69-.66-5.75,.12-8.2-1.08-3.7-1.81-3.52-6.54-4.83-10.15-1.79-4.94-7.18-8.39-12.84-9.22-5.66-.83-11.49,.65-16.51,3.13-3.73,1.85-7.23,4.39-9.04,7.87-1.81,3.49-1.53,8.06,1.51,10.79-1.52,3.48-.08,7.52-1.16,11.14-1.64,5.51-8.38,8.25-14.52,9.55-2.27,.48-4.9,.79-6.72-.54-1.82-1.33-1.16-4.81,1.17-4.63-8.36-.75-15.11-7.15-17.95-14.32-.78-1.98-1.43-4.17-3.23-5.51-1.38-1.02-3.21-1.35-4.96-1.65-4.32-.74-8.64-1.48-12.95-2.22,9.59,4.09,20.09,9.06,23.56,18.13,2.54,6.64,.63,14,2.16,20.88,.32,1.45,.84,2.93,2,3.98,1.16,1.04,3.12,1.47,4.45,.62l124.38,5.33c15.3,1.25,31.03-5.64,39.4-17.26,1.31-1.82,2.49-3.97,1.93-6.09-.56-2.12-3.73-3.64-5.47-2.16,7.8-7.83,14.41-17.19,15.75-27.69,1.34-10.5-3.75-22.19-14.24-26.89Z" style="fill: #fff4e4;"/>
          <g>
            <path d="M125.98,305.31c-8.41-3.36-12.33-2.8-12.33-2.8,0,0-8.73,33.16-10.09,36.72-2.24,5.89-7.29,16.26-7.29,16.26l23.26-.84,6.45-49.33Z" style="fill: #a6375a;"/>
            <path d="M103.56,339.23c1.36-3.56,10.09-36.72,10.09-36.72,0,0,1.36-.19,4.16,.33,.37,5.88-.35,13.73-2.24,22.14-3.79,16.87-10.86,29.64-15.79,28.53-.73-.16-1.37-.63-1.92-1.35,1.67-3.55,4.26-9.16,5.7-12.93Z" style="fill: #c14a6b;"/>
            <g>
              <g style="mix-blend-mode: overlay; opacity: .6;">
                <path d="M103.56,339.23c.66-1.74,3.1-10.58,5.41-19.15l14.33,5.77-2.43,18.57c-9.23-1.7-14.85-3.21-17.74-4.09,.15-.38,.3-.75,.43-1.1Z" style="fill: #e6d480;"/>
                <path d="M112.29,307.64l12.69,5.32-.52,3.96-13.5-4.28c.49-1.84,.94-3.54,1.33-5Z" style="fill: #e6d480;"/>
              </g>
              <g style="mix-blend-mode: overlay; opacity: .7;">
                <path d="M120.7,318.02c.85,.26,1.26,1.38,.92,2.49-.34,1.11-1.31,1.79-2.16,1.53-.85-.26-1.26-1.38-.92-2.49,.34-1.11,1.31-1.79,2.16-1.53Z" style="fill: #e6d480;"/>
                <path d="M116.07,316.48c.85,.26,1.26,1.38,.92,2.49-.34,1.11-1.31,1.79-2.16,1.53-.85-.26-1.26-1.38-.92-2.49,.34-1.11,1.31-1.79,2.16-1.53Z" style="fill: #e6d480;"/>
                <path d="M111.45,314.94c.85,.26,1.26,1.38,.92,2.49-.34,1.11-1.31,1.79-2.16,1.53-.32-.1-.58-.33-.76-.63,.29-1.09,.58-2.16,.86-3.21,.36-.22,.77-.3,1.15-.18Z" style="fill: #e6d480;"/>
                <path d="M116.07,348.29c.85,.26,1.26,1.38,.92,2.49s-1.31,1.79-2.16,1.53c-.85-.26-1.26-1.38-.92-2.49,.34-1.11,1.31-1.79,2.16-1.53Z" style="fill: #e6d480;"/>
                <path d="M111.45,346.75c.85,.26,1.26,1.38,.92,2.49-.34,1.11-1.31,1.79-2.16,1.53-.85-.26-1.26-1.38-.92-2.49,.34-1.11,1.31-1.79,2.16-1.53Z" style="fill: #e6d480;"/>
                <path d="M106.82,345.21c.85,.26,1.26,1.38,.92,2.49-.34,1.11-1.31,1.79-2.16,1.53-.85-.26-1.26-1.38-.92-2.49,.34-1.11,1.31-1.79,2.16-1.53Z" style="fill: #e6d480;"/>
                <path d="M102.2,343.53c.85,.26,1.26,1.38,.92,2.49-.34,1.11-1.31,1.79-2.16,1.53-.29-.09-.53-.29-.7-.54,.53-1.17,1.06-2.36,1.56-3.52,.13,0,.26,.01,.39,.05Z" style="fill: #e6d480;"/>
              </g>
            </g>
            <path d="M115.89,273.64c-.37-1.1,8.13,1.96,19.06,4.48l-12.05,42.04s-3.92-37.28-7.01-46.53Z" style="fill: #ff7127;"/>
            <path d="M124.61,275.47c.1,1.07,.16,2.18,.16,3.31,0,7.04-2.05,13.1-4.99,15.83-1.22-8.7-2.62-17.18-3.88-20.97-.24-.71,3.26,.33,8.72,1.83Z" style="fill: #ff952c;"/>
            <path d="M133.55,268.59c8.25-.14,13.21,.35,20.46,4.2-9.81,21.3-12.33,82.69-12.33,82.69l-26.91-.28s8.69-69.23,18.78-86.61Z" style="fill: #ff952c;"/>
            <path d="M133.55,268.59c7.32-.13,12.05,.25,18.08,3.03-1.85,3.64-5.28,7.89-9.78,11.81-5.82,5.08-11.95,8.3-16.19,8.87,2.42-10.16,5.1-18.91,7.88-23.71Z" style="fill: #ffb030;"/>
            <path d="M124.21,298.72c.3-.13,.6-.19,.89-.17,6.21,.58-5.05,38.34-1.32,56.77l-9.02-.11s3.87-30.81,9.44-56.49Z" style="fill: #ffb030;"/>
            <g style="mix-blend-mode: multiply; opacity: .5;">
              <path d="M127.85,283.83l21.5,4.01c-.15,.69-.31,1.38-.45,2.08l-21.57-4.15c.18-.66,.35-1.3,.53-1.94Z" style="fill: #a6375a;"/>
              <path d="M118.2,331.49l24.94,1.72c-.06,.73-.12,1.44-.18,2.14l-25.08-1.87c.1-.66,.21-1.32,.31-2Z" style="fill: #a6375a;"/>
            </g>
            <g>
              <path d="M150.08,284.74c-6.37-1.8-17.04-3.38-21.33-3.98,.7-2.3,1.41-4.42,2.13-6.32,4.74,.87,14.06,2.78,20.53,5.44-.46,1.53-.91,3.16-1.33,4.86Z" style="fill: #fff1ca; mix-blend-mode: overlay; opacity: .5;"/>
              <path d="M142.54,341c-.13,1.83-.24,3.53-.34,5.08l-1.45,1.98c-8.02,1.32-21.56,2.12-25.34,2.33,.34-2.51,.81-5.89,1.4-9.86,2.66,.41,10.7,1.34,25.73,.47Z" style="fill: #fff1ca; mix-blend-mode: overlay; opacity: .3;"/>
            </g>
          </g>
          <g>
            <rect x="184.14" y="83.86" width="7.68" height="9.42" transform="translate(375.96 177.13) rotate(180)" style="fill: #ddb28a;"/>
            <ellipse cx="184.44" cy="84.81" rx="7.38" ry="8.47" style="fill: #ddb28a;"/>
            <rect x="125.58" y="83.86" width="7.68" height="9.42" style="fill: #ddb28a;"/>
            <ellipse cx="132.97" cy="84.81" rx="7.38" ry="8.47" style="fill: #ddb28a;"/>
            <rect x="140.37" y="85.15" width="36.59" height="257.62" style="fill: #eac8a8;"/>
            <rect x="141.91" y="108.07" width="32.98" height="209.56" style="fill: #faddbf;"/>
            <g>
              <rect x="167.63" y="109.8" width="3.45" height="208.98" style="fill: #edcbaa;"/>
              <rect x="160.33" y="109.8" width="3.45" height="208.98" style="fill: #edcbaa;"/>
              <rect x="153.02" y="109.8" width="3.45" height="208.98" style="fill: #edcbaa;"/>
              <rect x="145.72" y="109.8" width="3.45" height="208.98" style="fill: #edcbaa;"/>
            </g>
            <path d="M161.04,306.2c-10.43,0-18.88-39.5-18.88-88.23s8.45-88.23,18.88-88.23c6.69,0,12.56,16.26,15.91,40.76V85.15h-36.59V342.77h36.59v-77.33c-3.35,24.5-9.23,40.76-15.91,40.76Z" style="fill: #eac8a8; mix-blend-mode: multiply; opacity: .46;"/>
            <path d="M180.71,327.41v-6.16h-44.1v6.16c0,9.46,0,17.38-7.16,17.38v9.02h58.42v-9.02c-7.16,0-7.16-7.92-7.16-17.38Z" style="fill: #f5d9bd;"/>
            <path d="M199.23,85.15c0-.13,.03-.24,.03-.37,0-.53-.06-1.04-.14-1.54-1.34-12.69-12.75-12.27-12.75-12.27h-55.28s-11.41-.42-12.75,12.27c-.08,.5-.14,1.02-.14,1.54,0,.13,.03,.24,.03,.37,0,.21-.03,.39-.03,.6h.09c.42,4.24,3.53,7.55,7.33,7.55s6.91-3.31,7.33-7.55h.04c.3-.8-.29-3.24,.28-4.35,.36-.71,1.62-1.58,3.24-.83,1.62,.75,1.56,22.44,1.56,22.44h41.31s-.06-21.69,1.56-22.44c1.62-.75,2.88,.12,3.24,.83,.56,1.12-.03,3.56,.28,4.35h.04c.42,4.24,3.53,7.55,7.33,7.55s6.91-3.31,7.33-7.55h.09c0-.21-.03-.39-.03-.6Z" style="fill: #ecceac;"/>
            <g>
              <path d="M176.2,333.21c1.7,0,2.13-4.75,2.2-10.96h-4.4c.07,6.21,.5,10.96,2.2,10.96Z" style="fill: #eac8a8;"/>
              <path d="M169.23,333.21c1.7,0,2.13-4.75,2.2-10.96h-4.4c.07,6.21,.5,10.96,2.2,10.96Z" style="fill: #eac8a8;"/>
              <path d="M162.26,333.21c1.7,0,2.13-4.75,2.2-10.96h-4.4c.07,6.21,.5,10.96,2.2,10.96Z" style="fill: #eac8a8;"/>
              <path d="M155.29,333.21c1.7,0,2.13-4.75,2.2-10.96h-4.4c.07,6.21,.5,10.96,2.2,10.96Z" style="fill: #eac8a8;"/>
              <path d="M148.32,333.21c1.7,0,2.13-4.75,2.2-10.96h-4.4c.07,6.21,.5,10.96,2.2,10.96Z" style="fill: #eac8a8;"/>
              <path d="M141.35,333.21c1.7,0,2.13-4.75,2.2-10.96h-4.4c.07,6.21,.5,10.96,2.2,10.96Z" style="fill: #eac8a8;"/>
            </g>
            <ellipse cx="191.85" cy="84.78" rx="6.02" ry="6.92" style="fill: #ddb28a;"/>
            <ellipse cx="191.85" cy="84.78" rx="2.91" ry="3.34" style="fill: #ecceac;"/>
            <ellipse cx="125.89" cy="84.78" rx="6.02" ry="6.92" style="fill: #ddb28a;"/>
            <ellipse cx="125.89" cy="84.78" rx="2.91" ry="3.34" style="fill: #ecceac;"/>
            <g>
              <path d="M144.13,92.31c-1.43,0-1.79,3.78-1.85,8.72h3.69c-.06-4.94-.42-8.72-1.85-8.72Z" style="fill: #ddb28a;"/>
              <path d="M149.99,92.31c-1.43,0-1.79,3.78-1.85,8.72h3.69c-.06-4.94-.42-8.72-1.85-8.72Z" style="fill: #ddb28a;"/>
              <path d="M155.85,92.31c-1.43,0-1.79,3.78-1.85,8.72h3.69c-.06-4.94-.42-8.72-1.85-8.72Z" style="fill: #ddb28a;"/>
              <path d="M161.71,92.31c-1.43,0-1.79,3.78-1.85,8.72h3.69c-.06-4.94-.42-8.72-1.85-8.72Z" style="fill: #ddb28a;"/>
              <path d="M167.56,92.31c-1.43,0-1.79,3.78-1.85,8.72h3.69c-.06-4.94-.42-8.72-1.85-8.72Z" style="fill: #ddb28a;"/>
              <path d="M173.42,92.31c-1.43,0-1.79,3.78-1.85,8.72h3.69c-.06-4.94-.42-8.72-1.85-8.72Z" style="fill: #ddb28a;"/>
            </g>
          </g>
          <g>
            <path d="M148.95,255.98c-.27-.55-.58-1.09-.92-1.63,.45,1.86,1.05,3.72,1.63,5.55,.17-1.27-.12-2.67-.72-3.92Z" style="fill: #fff4e4;"/>
            <path d="M147.67,262.93c.42,.71,1.83,.59,2.27-.04,.44-.63,.22-1.47-.02-2.22-.08-.26-.16-.52-.25-.78-.17,1.24-.78,2.35-2,3.03Z" style="fill: #fff4e4;"/>
            <path d="M221.34,257.52c-.77-3.91-4.94-7.5-9.74-8.38-5.83-1.07-11.46,1.55-17.32,.7-.68-.1-1.45-.31-1.75-.82-.34-.59,.13-1.19,.49-1.71,2.05-2.91,1.08-6.76,1.81-10.14-1.8-.14-3.57,.46-4.59,1.57,1.7-2.79,2.79-5.86,3.23-9.05,.21-1.57,.26-3.21-.33-4.78-1.04-2.77-4.02-5.03-7.36-6.1-3.34-1.07-6.97-1.06-10.27-.44-5.9,1.12-10.96,4.22-13.8,8.45-1.52,2.26-2.61,4.99-5.45,6.15-.81,.33-1.71,.51-2.58,.74-7.32,1.96-11.89,8.87-9.1,15.13,.86,1.92,2.3,3.67,3.45,5.51-.83-3.46-1.12-6.89,.29-9.99,1.06-2.33,3.02-4.27,5.05-6.08,3.28-2.91,6.95-5.67,11.6-7.04,4.65-1.36,10.48-1.08,14.69,1.63,3.54,2.28,5.45,6.01,5.39,9.49-.07,3.48-1.94,6.68-4.68,9.15-.86,.78-1.84,1.52-2.24,2.54s-.01,2.4,1.24,2.93c.61,.25,1.3,.26,1.95,.24,4.96-.2,10.36-2.01,14.6,.49,2.18,1.29,3.37,3.46,3.69,5.55,.32,2.09-.12,4.14-.57,6.15-.09,.4-.19,.81-.52,1.09-.79,.66-2.23,.19-3.36-.23-8.16-2.97-18.23-.2-21.39,6.03s1.33,14.88,9.46,17.92c-1.65,.05-3.07,1.19-2.93,2.54,.14,1.35,2.06,2.57,3.59,2.18-5.25,1.03-9.56,3.88-12.69,7.32-2.91,3.2-4.97,7.14-4.48,11.33,.77,6.51,7.68,12.22,15.35,14.76,7.67,2.54,15.95,2.49,23.83,1.93l-1.45-58.28c3.81-1.86,7.33-4.08,10.47-6.61,3.87-3.11,7.33-7.22,6.41-11.87Z" style="fill: #fff4e4;"/>
          </g>
          <g>
            <g>
              <path d="M222.01,183.82c3.91-3.02,6.53-8.7,6.38-14.87-.11-4.82-1.89-9.06-4.87-11.63-1.78-1.53-3.83-2.33-6-2.33-.38,0-.75,.02-1.13,.07-.83,.1-1.63,.32-2.41,.63-.57-.55-1.17-1.07-1.79-1.53,1.24-.63,2.55-1.06,3.92-1.23,3.16-.4,6.28,.58,8.81,2.76,3.44,2.96,5.49,7.78,5.62,13.21,.18,7.77-3.66,14.87-9.13,17.85,.24-.95,.44-1.93,.6-2.93Z" style="fill: #9b402d;"/>
              <path d="M229.37,169.53c-.13-5.43-2.17-10.25-5.62-13.21-2.52-2.18-5.65-3.16-8.81-2.76-.91,.12-1.8,.35-2.66,.68-.03-.02-.06-.05-.1-.08,1.24-.63,2.55-1.06,3.92-1.23,3.16-.4,6.28,.58,8.81,2.76,3.44,2.96,5.49,7.78,5.62,13.21,.18,7.77-3.66,14.87-9.13,17.85,0-.04,.02-.08,.03-.11,4.82-3.31,8.11-9.92,7.94-17.11Z" style="fill: #ae5137;"/>
              <path d="M198.14,183.82c-3.91-3.02-6.53-8.7-6.38-14.87,.11-4.82,1.89-9.06,4.87-11.63,1.78-1.53,3.83-2.33,6-2.33,.38,0,.75,.02,1.13,.07,.83,.1,1.63,.32,2.41,.63,.57-.55,1.17-1.07,1.79-1.53-1.24-.63-2.55-1.06-3.92-1.23-3.16-.4-6.28,.58-8.81,2.76-3.44,2.96-5.49,7.78-5.62,13.21-.18,7.77,3.66,14.87,9.13,17.85-.24-.95-.44-1.93-.6-2.93Z" style="fill: #9b402d;"/>
              <path d="M190.77,169.53c.13-5.43,2.17-10.25,5.62-13.21,2.52-2.18,5.65-3.16,8.81-2.76,.91,.12,1.8,.35,2.66,.68,.03-.02,.06-.05,.1-.08-1.24-.63-2.55-1.06-3.92-1.23-3.16-.4-6.28,.58-8.81,2.76-3.44,2.96-5.49,7.78-5.62,13.21-.18,7.77,3.66,14.87,9.13,17.85,0-.04-.02-.08-.03-.11-4.82-3.31-8.11-9.92-7.94-17.11Z" style="fill: #ae5137;"/>
              <path d="M224.53,180.87c-1.16-3.42-8.79-11.46-8.79-11.46h-.03l-1.48-8.11c-.64-3.47,.58-7.01,3.18-9.41,1.85-1.7,3.43-3.42,3.43-3.42h-20.77s1.57,1.58,3.4,3.21c2.66,2.36,3.87,5.96,3.23,9.46l-1.51,8.26h-.03s-7.63,8.04-8.79,11.46c-.33,.97-.31,3.12,0,4.1,.92,2.84,6.99,9.7,6.99,9.7,0,0,.9-.22,1.04,0,.26,.38-.67,1.73-.67,1.73h13.45s-.93-1.35-.67-1.73c.15-.22,1.04,0,1.04,0,0,0,6.07-6.85,6.99-9.7,.31-.97,.33-3.13,0-4.1Z" style="fill: #d17051;"/>
              <path d="M214.52,166.2c-.74-.15-1.5-.23-2.27-.23-2.47,0-4.8,.8-6.84,2.2l-.23,1.23h-.03s-3.34,3.52-5.94,6.89c-1.05,2.63-1.64,5.61-1.64,8.77,0,.81,.04,1.61,.12,2.4,2.08,3.16,5.65,7.2,5.65,7.2,0,0,.9-.22,1.04,0,.26,.38-.67,1.73-.67,1.73h13.45s-.93-1.35-.67-1.73c.05-.07,.19-.09,.35-.09-2.85-2.14-5.31-5.54-6.74-9.72-2.7-7.94-.71-15.9,4.41-18.64Z" style="fill: #ae5137;"/>
              <path d="M221.83,177.9c-2.02-2.84-4.97-4.22-6.58-3.08-1.61,1.14-1.27,4.38,.76,7.22,2.02,2.84,4.97,4.22,6.58,3.08,1.61-1.14,1.27-4.38-.76-7.22Z" style="fill: #f89078;"/>
              <path d="M214.19,173.8c.9-.13,1.37-.7,1.03-1.28-.33-.58-1.34-.94-2.24-.81-.9,.13-1.37,.7-1.03,1.28,.33,.58,1.34,.94,2.24,.81Z" style="fill: #f89078;"/>
              <path d="M213.18,196.39c-5.14-2.08-8.8-7.35-8.8-13.53,0-7.09,4.82-12.99,11.18-14.23l-1.34-7.32c-.64-3.47,.58-7.01,3.18-9.41,1.85-1.7,3.43-3.42,3.43-3.42h-20.77s1.57,1.58,3.4,3.21c2.66,2.36,3.87,5.96,3.23,9.46l-1.51,8.26h-.03s-7.63,8.04-8.79,11.46c-.33,.97-.31,3.12,0,4.1,.92,2.84,6.99,9.7,6.99,9.7,0,0,.9-.22,1.04,0,.26,.38-.67,1.73-.67,1.73h9.47Z" style="fill: #c45f43;"/>
              <path d="M215.7,169.41l-1.48-8.11c-.64-3.47,.58-7.01,3.18-9.41,1.85-1.7,3.43-3.42,3.43-3.42h-.26c-2.35,1.71-6,2.82-10.1,2.82s-7.74-1.1-10.1-2.82h-.31s1.57,1.58,3.4,3.21c2.66,2.36,3.87,5.96,3.23,9.46l-1.51,8.26h-.03s-.44,.46-1.11,1.2c1.48-.44,3.03-.67,4.63-.67,4.8,0,9.14,2.09,12.31,5.47-2.46-3.07-5.23-6-5.23-6h-.03Z" style="fill: #c45f43;"/>
              <path d="M210.47,151.29c-4.1,0-7.74-1.1-10.1-2.82h-.31s1.57,1.58,3.4,3.21c1.45,1.29,2.46,2.94,2.99,4.74,1.18,.15,2.42,.23,3.7,.23,1.54,0,3.02-.12,4.41-.33,.54-1.67,1.51-3.2,2.84-4.43,1.85-1.7,3.43-3.42,3.43-3.42h-.26c-2.35,1.71-6,2.82-10.1,2.82Z" style="fill: #ae5137;"/>
              <path d="M213.34,151.1c-.92,.12-1.89,.19-2.88,.19-4.1,0-7.74-1.1-10.1-2.82h-.31s1.57,1.58,3.4,3.21c2.66,2.36,3.87,5.96,3.23,9.46l-1.51,8.26h-.03s-.44,.46-1.11,1.2c1.48-.44,3.03-.67,4.63-.67,.93,0,1.83,.08,2.72,.23-1.11-2.33-2.66-14.52,1.96-19.06Z" style="fill: #ae5137;"/>
              <g>
                <path d="M216,169.69v.02h.02s-.01-.01-.02-.02Z" style="fill: #d17051;"/>
                <path d="M200.36,148.78h20.18c.18-.19,.28-.3,.28-.3h-20.77s.11,.11,.3,.3Z" style="fill: #d17051;"/>
                <path d="M196.65,185.26c-.31-.97-.33-3.13,0-4.1,1.16-3.42,8.66-10.81,8.66-10.81l.17-.65,1.51-8.26c.62-3.37-.49-6.81-2.94-9.18,2.24,2.35,3.23,5.65,2.64,8.88l-1.51,8.26-.32,.18s-7.35,7.87-8.51,11.29c-.33,.97-.31,3.12,0,4.1,.92,2.84,6.99,9.7,6.99,9.7,0,0,.01,0,.03,0-1.18-1.36-5.92-6.9-6.72-9.39Z" style="fill: #d17051;"/>
                <path d="M204.68,194.96c-.04-.06-.14-.08-.26-.09-.02,.52-.71,1.52-.71,1.52h.49c.26-.42,.66-1.16,.48-1.43Z" style="fill: #d17051;"/>
              </g>
              <g>
                <path d="M224.77,182.89c0-.77-.08-1.55-.24-2.03-.3-.9-1.06-2.11-2-3.42h-24.19c-.94,1.31-1.69,2.52-2,3.42-.16,.48-.24,1.25-.24,2.03h28.67Z" style="fill: #ffc42e; mix-blend-mode: overlay;"/>
                <path d="M196.41,185.13c.19,.51,.51,1.12,.93,1.79h26.21c.42-.67,.74-1.28,.93-1.79h-28.06Z" style="fill: #ffc42e; mix-blend-mode: overlay;"/>
              </g>
              <path d="M211.33,154.53c-2.12,0-4.13-.19-5.96-.53,.98,1.62,1.5,3.49,1.49,5.4,1.07-.52,2.22-.81,3.44-.81,1.3,0,2.57,.33,3.76,.92,0-1.85,.5-3.65,1.43-5.23-1.32,.16-2.71,.25-4.15,.25Z" style="fill: #9b402d;"/>
              <path d="M217.54,194.66c-1.54-1.73-12.81-1.53-14.2,0,0,0,.9-.22,1.04,0,.26,.38-.67,1.73-.67,1.73h13.45s-.93-1.35-.67-1.73c.15-.22,1.04,0,1.04,0Z" style="fill: #9b402d;"/>
              <path d="M210.14,194.93c-2.57,0-4.84,.45-6.23,1.14-.11,.18-.2,.31-.2,.31h13.2c-1.29-.86-3.84-1.45-6.77-1.45Z" style="fill: #ae5137;"/>
            </g>
            <g>
              <rect x="230.4" y="202.28" width="6.01" height="5.58" transform="translate(466.81 410.14) rotate(180)" style="fill: #ddb28a;"/>
              <ellipse cx="230.63" cy="202.85" rx="5.77" ry="5.02" style="fill: #ddb28a;"/>
              <rect x="184.61" y="202.28" width="6.01" height="5.58" style="fill: #ddb28a;"/>
              <ellipse cx="190.38" cy="202.85" rx="5.77" ry="5.02" style="fill: #ddb28a;"/>
              <rect x="196.17" y="203.05" width="28.61" height="129.06" style="fill: #eac8a8;"/>
              <rect x="197.37" y="216.62" width="25.79" height="102.89" style="fill: #faddbf;"/>
              <g>
                <rect x="217.49" y="217.65" width="2.7" height="102.44" style="fill: #edcbaa;"/>
                <rect x="211.78" y="217.65" width="2.7" height="102.44" style="fill: #edcbaa;"/>
                <rect x="206.07" y="217.65" width="2.7" height="102.44" style="fill: #edcbaa;"/>
                <rect x="200.36" y="217.65" width="2.7" height="102.44" style="fill: #edcbaa;"/>
              </g>
              <path d="M212.34,313.79c-8.16,0-14.77-3.22-14.77-32.08s6.61-52.26,14.77-52.26c5.23,0,9.82,9.63,12.44,24.14v-50.55h-28.61v129.06s28.61,0,28.61,0v-38.74c-2.62,12.28-7.21,20.42-12.44,20.42Z" style="fill: #eac8a8; mix-blend-mode: multiply; opacity: .46;"/>
              <path d="M227.72,324.42v-3.09h-34.49v3.09c0,4.74,0,8.71-5.6,8.71v4.52h45.68v-4.52c-5.6,0-5.6-3.97-5.6-8.71Z" style="fill: #f5d9bd;"/>
              <path d="M242.2,203.05c0-.07,.03-.14,.03-.22,0-.31-.04-.62-.11-.91-1.05-7.52-9.97-7.27-9.97-7.27h-43.23s-8.92-.25-9.97,7.27c-.06,.3-.11,.6-.11,.91,0,.07,.02,.14,.03,.22,0,.12-.03,.23-.03,.36h.07c.33,2.51,2.76,4.47,5.73,4.47s5.4-1.96,5.73-4.47h.03c.24-.47-.22-1.92,.22-2.58,.28-.42,1.27-.94,2.53-.49,1.27,.44,1.22,13.29,1.22,13.29h32.31s-.04-12.85,1.22-13.29c1.26-.44,2.25,.07,2.53,.49,.44,.66-.02,2.11,.22,2.58h.03c.33,2.51,2.76,4.47,5.73,4.47s5.4-1.96,5.73-4.47h.07c0-.13-.02-.23-.03-.36Z" style="fill: #ecceac;"/>
              <g>
                <path d="M224.19,327.32c1.33,0,1.67-2.38,1.72-5.49h-3.44c.05,3.11,.39,5.49,1.72,5.49Z" style="fill: #eac8a8;"/>
                <path d="M218.74,327.32c1.33,0,1.67-2.38,1.72-5.49h-3.44c.05,3.11,.39,5.49,1.72,5.49Z" style="fill: #eac8a8;"/>
                <path d="M213.29,327.32c1.33,0,1.67-2.38,1.72-5.49h-3.44c.05,3.11,.39,5.49,1.72,5.49Z" style="fill: #eac8a8;"/>
                <path d="M207.84,327.32c1.33,0,1.67-2.38,1.72-5.49h-3.44c.05,3.11,.39,5.49,1.72,5.49Z" style="fill: #eac8a8;"/>
                <path d="M202.39,327.32c1.33,0,1.67-2.38,1.72-5.49h-3.44c.05,3.11,.39,5.49,1.72,5.49Z" style="fill: #eac8a8;"/>
                <path d="M196.94,327.32c1.33,0,1.67-2.38,1.72-5.49h-3.44c.05,3.11,.39,5.49,1.72,5.49Z" style="fill: #eac8a8;"/>
              </g>
              <path d="M231.71,202.83c0-2.26,2.11-4.1,4.71-4.1,2.6,0,4.71,1.83,4.71,4.1s-2.11,4.1-4.71,4.1-4.71-1.83-4.71-4.1Z" style="fill: #ddb28a;"/>
              <path d="M234.15,202.83c0-1.09,1.02-1.98,2.27-1.98s2.27,.88,2.27,1.98c0,1.09-1.02,1.98-2.27,1.98s-2.27-.88-2.27-1.98Z" style="fill: #ecceac;"/>
              <path d="M180.13,202.83c0-2.26,2.11-4.1,4.71-4.1,2.6,0,4.71,1.83,4.71,4.1s-2.11,4.1-4.71,4.1-4.71-1.83-4.71-4.1Z" style="fill: #ddb28a;"/>
              <path d="M182.57,202.83c0-1.09,1.02-1.98,2.27-1.98s2.27,.88,2.27,1.98-1.02,1.98-2.27,1.98-2.27-.88-2.27-1.98Z" style="fill: #ecceac;"/>
              <g>
                <path d="M199.11,207.29c-1.11,0-1.4,2.24-1.44,5.17h2.89c-.04-2.93-.33-5.17-1.44-5.17Z" style="fill: #ddb28a;"/>
                <path d="M203.69,207.29c-1.11,0-1.4,2.24-1.44,5.17h2.89c-.04-2.93-.33-5.17-1.44-5.17Z" style="fill: #ddb28a;"/>
                <path d="M208.27,207.29c-1.11,0-1.4,2.24-1.44,5.17h2.89c-.04-2.93-.33-5.17-1.44-5.17Z" style="fill: #ddb28a;"/>
                <path d="M212.86,207.29c-1.11,0-1.4,2.24-1.44,5.17h2.89c-.04-2.93-.33-5.17-1.44-5.17Z" style="fill: #ddb28a;"/>
                <path d="M217.44,207.29c-1.11,0-1.4,2.24-1.44,5.17h2.89c-.04-2.93-.33-5.17-1.44-5.17Z" style="fill: #ddb28a;"/>
                <path d="M222.02,207.29c-1.11,0-1.4,2.24-1.44,5.17h2.89c-.04-2.93-.33-5.17-1.44-5.17Z" style="fill: #ddb28a;"/>
              </g>
            </g>
          </g>
          <g>
            <rect x="116.22" y="335.97" width="535.56" height="19.07" style="fill: #ccb299;"/>
            <rect x="553.93" y="335.97" width="30.33" height="19.07" style="fill: #d8bca4;"/>
            <rect x="183.74" y="335.97" width="30.33" height="19.07" style="fill: #d8bca4;"/>
            <rect x="116.22" y="334.09" width="535.56" height="5.42" style="fill: #edd7b6;"/>
            <polygon points="569.66 334.09 318.48 334.09 198.34 355.04 449.52 355.04 569.66 334.09" style="fill: #dec4b1; mix-blend-mode: overlay; opacity: .53;"/>
            <g>
              <rect x="576.4" y="349.23" width="4.9" height="2.7" style="fill: #eac8a8; mix-blend-mode: multiply; opacity: .46;"/>
              <rect x="627.3" y="343.06" width="4.9" height="2.7" style="fill: #eac8a8; mix-blend-mode: multiply; opacity: .46;"/>
              <rect x="463.59" y="348.97" width="4.9" height="2.7" style="fill: #eac8a8; mix-blend-mode: multiply; opacity: .46;"/>
              <rect x="423.39" y="341.39" width="4.9" height="2.7" style="fill: #eac8a8; mix-blend-mode: multiply; opacity: .46;"/>
              <rect x="521.07" y="344.22" width="4.9" height="2.7" style="fill: #eac8a8; mix-blend-mode: multiply; opacity: .46;"/>
              <rect x="542.86" y="342.48" width="4.26" height="2.7" style="fill: #eac8a8; mix-blend-mode: multiply; opacity: .46;"/>
              <rect x="483.71" y="340.16" width="4.26" height="2.7" style="fill: #eac8a8; mix-blend-mode: multiply; opacity: .46;"/>
              <rect x="598.58" y="342.67" width="7.61" height="2.7" style="fill: #eac8a8; mix-blend-mode: multiply; opacity: .46;"/>
              <rect x="499.87" y="348.78" width="7.61" height="2.7" style="fill: #eac8a8; mix-blend-mode: multiply; opacity: .46;"/>
              <rect x="436.59" y="348.78" width="7.61" height="2.7" style="fill: #eac8a8; mix-blend-mode: multiply; opacity: .46;"/>
              <rect x="406.58" y="349.23" width="4.9" height="2.7" style="fill: #eac8a8; mix-blend-mode: multiply; opacity: .46;"/>
              <rect x="293.77" y="348.97" width="4.9" height="2.7" style="fill: #eac8a8; mix-blend-mode: multiply; opacity: .46;"/>
              <rect x="373.04" y="342.48" width="4.26" height="2.7" style="fill: #eac8a8; mix-blend-mode: multiply; opacity: .46;"/>
              <rect x="274.08" y="349.23" width="4.9" height="2.7" style="fill: #eac8a8; mix-blend-mode: multiply; opacity: .46;"/>
              <rect x="161.26" y="348.97" width="4.9" height="2.7" style="fill: #eac8a8; mix-blend-mode: multiply; opacity: .46;"/>
              <rect x="121.07" y="341.39" width="4.9" height="2.7" style="fill: #eac8a8; mix-blend-mode: multiply; opacity: .46;"/>
              <rect x="218.74" y="344.22" width="4.9" height="2.7" style="fill: #eac8a8; mix-blend-mode: multiply; opacity: .46;"/>
              <rect x="240.54" y="342.48" width="4.26" height="2.7" style="fill: #eac8a8; mix-blend-mode: multiply; opacity: .46;"/>
              <rect x="181.38" y="340.16" width="4.26" height="2.7" style="fill: #eac8a8; mix-blend-mode: multiply; opacity: .46;"/>
              <rect x="197.55" y="348.78" width="7.61" height="2.7" style="fill: #eac8a8; mix-blend-mode: multiply; opacity: .46;"/>
              <rect x="134.26" y="348.78" width="7.61" height="2.7" style="fill: #eac8a8; mix-blend-mode: multiply; opacity: .46;"/>
              <rect x="350.69" y="343.64" width="4.9" height="2.7" style="fill: #eac8a8; mix-blend-mode: multiply; opacity: .46;"/>
              <rect x="387.25" y="348.07" width="4.26" height="2.7" style="fill: #eac8a8; mix-blend-mode: multiply; opacity: .46;"/>
              <rect x="313.89" y="340.16" width="4.26" height="2.7" style="fill: #eac8a8; mix-blend-mode: multiply; opacity: .46;"/>
              <rect x="330.05" y="348.78" width="7.61" height="2.7" style="fill: #eac8a8; mix-blend-mode: multiply; opacity: .46;"/>
              <rect x="632.18" y="349.62" width="7.61" height="2.7" style="fill: #eac8a8; mix-blend-mode: multiply; opacity: .46;"/>
            </g>
          </g>
          <path d="M511.31,339.44H197.5s-10.28-9.88-6.17-24.36c0,0,97.63,25.71,169.54,20.41,80.51-5.93,121.06-1.65,139.28-32.92,0,0,14.69,19.43,11.17,36.87Z" style="fill: #b91615;"/>
          <g>
            <path d="M598.84,268.74l10.58-2.87c-15.56,13.88-2.41,29.36-2.41,29.36h-3.37s-6.25-13.72-4.81-26.49Z" style="fill: #fca337;"/>
            <path d="M572.32,268.74l-10.58-2.87c15.56,13.88,2.41,29.36,2.41,29.36h3.37s6.25-13.72,4.81-26.49Z" style="fill: #fca337;"/>
            <path d="M580.37,267.72l-10.94-.61c17.27,10.31,6.03,28.12,6.03,28.12l3.37-.7s4.56-14.67,1.54-26.81Z" style="fill: #dc7231;"/>
            <path d="M590.5,267.72l10.8-.61c-17.05,10.31-5.95,28.12-5.95,28.12l-3.32-.7s-4.5-14.67-1.53-26.81Z" style="fill: #dc7231;"/>
            <rect x="555.73" y="306.25" width="58.69" height="20.59" style="fill: #dab693;"/>
            <rect x="550.07" y="292.84" width="70" height="17" rx="3.2" ry="3.2" style="fill: #e7caab;"/>
            <path d="M550.07,296.13v10.41c0,1.72,1.34,3.12,3.03,3.26,1.55-2.69,2.54-6.64,2.54-11.06,0-2.1-.23-4.1-.63-5.9h-1.64c-1.83,0-3.31,1.47-3.31,3.29Z" style="fill: #f0dfcd;"/>
            <path d="M547.09,318.93h69.71c6.38,0,11.57,5.18,11.57,11.57v9.26h-92.85v-9.26c0-6.38,5.18-11.57,11.57-11.57Z" style="fill: #e9d6bc;"/>
            <path d="M557.57,291.72c24.29-7.91,50.35-14.44,52.28-14.2,1.92,.24,6.92,15.32,6.92,15.32,0,0-11.49,3.59-4.03,32.56,0,0,4.33-1.44,8.82-.96,4.49,.48,8.02,15.32,8.02,15.32h-118.35s14.11-5.9,27.66-7.02c13.55-1.12,.4-2.71,2.49-6.86,2.08-4.15,11.05-.95,14.75-6.22,6.9-9.81-2.23-26.73,1.44-27.93Z" style="fill: #ff4150;"/>
            <path d="M573.83,287.14c16.91-2.91,32.23-2.45,41.15,.65-1.63-4.41-3.96-10.12-5.14-10.27-1.6-.2-19.99,4.31-40.14,10.4,1.36-.27,2.73-.54,4.13-.78Z" style="fill: #e22240;"/>
            <path d="M621.55,324.44c-4.49-.48-8.82,.96-8.82,.96-1.81-7.02-2.5-12.54-2.51-16.89-7.87,4.03-18.78,7.54-31.07,9.66-8.39,1.44-16.38,2.05-23.4,1.93-.98,1.16-2.24,1.84-3.62,2.29,5.81-.42,12.61-.66,19.87-.66,21.34,0,38.65,2.07,38.65,4.63s-17.3,4.63-38.65,4.63c-11.54,0-21.89-.61-28.97-1.57,2.23,1.68,4.61,2.6-4.14,3.32-.21,.02-.42,.04-.63,.06,7.83-.24,16.82-.38,26.37-.38,30.47,0,55.16,1.39,55.16,3.11s-24.7,3.11-55.16,3.11c-19.46,0-36.55-.57-46.37-1.43-4.26,1.39-7.03,2.54-7.03,2.54h118.35s-3.53-14.84-8.02-15.32Z" style="fill: #e22240;"/>
            <g>
              <path d="M611.23,238.37c-.17-.64-.88-1.17-1.5-.94,.81-.75,.4-2.21-.53-2.81s-2.12-.57-3.22-.45c.81-.52,1.31-1.61,.89-2.48-.41-.87-1.86-1.08-2.34-.25,1.05-1.43-.19-3.68-1.94-4.02-1.75-.34-3.51,.79-4.48,2.28,.15-.53-.28-1.08-.8-1.27-.52-.19-1.09-.1-1.64-.02,.9-1.37,0-3.52-1.61-3.85-.38-.08-.81-.08-1.1-.34-.31-.27-.35-.73-.46-1.12-.32-1.09-1.35-1.87-2.46-2.11-1.11-.24-2.28-.02-3.33,.4-1.39,.55-2.7,1.49-3.26,2.86-.57,1.37-.15,3.19,1.17,3.88-.66,.07-1.34,.15-1.89,.51-.55,.36-.91,1.1-.63,1.69-.81-.72-2.37,.11-2.21,1.19,.07-1.45-1.9-2.52-3.08-1.68-.84-1.78-2.47-3.22-4.4-3.63-1.93-.41-4.11,.3-5.26,1.9-1.15,1.59-1.08,4.01,.29,5.42-.81,.17-1.7,.39-2.17,1.06-.48,.67-.1,1.89,.73,1.84-.34,.29-.68,.58-1.01,.88-2.09-.86-4.8,.59-5.24,2.8-.44,2.21,1.5,4.57,3.77,4.58l39.37-.12c1.18,1.16,3.21,.68,4.59-.24,1.49-.99,2.69-2.4,3.44-4.02,.28-.6,.49-1.28,.32-1.92Z" style="fill: #9c6ba7;"/>
              <path d="M611.23,238.37c-.17-.64-.88-1.17-1.5-.94,.81-.75,.4-2.21-.53-2.81-.93-.6-2.12-.57-3.22-.45,.81-.52,1.31-1.61,.89-2.48-.41-.87-1.86-1.08-2.34-.25,1.05-1.43-.19-3.68-1.94-4.02-.7-.14-1.41-.02-2.07,.24-.02,.09-.03,.18-.06,.27-.57,1.88-2.39,3.27-4.35,3.5-1.96,.24-3.97-.59-5.35-2-.85,1.18-3.06,.81-3.47-.58,.5,.96-.7,2.26-1.7,1.84,.46,.47,.36,1.28-.04,1.8-.4,.52-1.02,.82-1.62,1.1,1.47,.22,2.47,1.81,2.38,3.29-.08,1.48-1.01,2.8-2.14,3.76-.86,.74-1.89,1.33-3.02,1.46-1.13,.13-2.36-.28-3.02-1.2-.24-.34-.42-.75-.8-.91-.36-.15-.77-.01-1.16,.04-1.63,.21-3.19-1.53-2.79-3.12-.49,.26-1,.52-1.56,.51-.55,0-1.14-.39-1.18-.94-.43,1.72-1.72,3.36-3.49,3.61-1.72,.24-3.58-1.39-3.18-3.04,0,0-.01,0-.02,0-.28,.81-1.53,1.03-2.19,.44-1.02,.53-1.83,1.45-2.06,2.57-.44,2.21,1.5,4.57,3.77,4.58l39.37-.12c1.18,1.16,3.21,.68,4.59-.24,1.49-.99,2.69-2.4,3.44-4.02,.28-.6,.49-1.28,.32-1.92Z" style="fill: #885895;"/>
              <path d="M602.52,232.62c-.35-1.07-1.65-1.61-2.92-1.2-1.26,.41-2.01,1.6-1.66,2.67,.35,1.07,1.65,1.61,2.92,1.2,1.26-.41,2.01-1.6,1.66-2.67Z" style="fill: #9c6ba7;"/>
              <path d="M596.34,232.14c-.35-1.07-1.65-1.61-2.92-1.2-1.26,.41-2.01,1.6-1.66,2.67,.35,1.07,1.65,1.61,2.92,1.2,1.26-.41,2.01-1.6,1.66-2.67Z" style="fill: #9c6ba7;"/>
              <path d="M598.43,236.45c-.35-1.07-1.65-1.61-2.92-1.2-1.26,.41-2.01,1.6-1.66,2.67,.35,1.07,1.65,1.61,2.92,1.2,1.26-.41,2.01-1.6,1.66-2.67Z" style="fill: #9c6ba7;"/>
              <path d="M590.17,234.14c-.35-1.07-1.65-1.61-2.92-1.2-1.26,.41-2.01,1.6-1.66,2.67,.35,1.07,1.65,1.61,2.92,1.2,1.26-.41,2.01-1.6,1.66-2.67Z" style="fill: #9c6ba7;"/>
              <path d="M609.41,235.33c-.35-1.07-1.65-1.61-2.92-1.2-1.26,.41-2.01,1.6-1.66,2.67,.35,1.07,1.65,1.61,2.92,1.2,1.26-.41,2.01-1.6,1.66-2.67Z" style="fill: #9c6ba7;"/>
              <path d="M606.63,231.37c-.43-.57-1.37-.58-2.11-.02-.74,.56-.98,1.47-.55,2.03,.43,.57,1.37,.58,2.11,.02,.74-.56,.98-1.47,.55-2.03Z" style="fill: #9c6ba7;"/>
            </g>
            <path d="M615.62,242.33h-61.1c-3.41,14.18,4.21,28.25,19.88,28.25h21.45c15.68,0,19.76-12.65,19.76-28.25h0Z" style="fill: #ffba52;"/>
            <path d="M610.04,245.47h-52.99c0,11.88,9.68,21.51,21.62,21.51h9.76c11.94,0,21.62-9.63,21.62-21.51h0Z" style="fill: #fbc760;"/>
            <path d="M616.14,241.25h-62.18c-.73,0-1.32,.59-1.32,1.32h0c0,.73,.59,1.32,1.32,1.32h62.18c.73,0,1.32-.59,1.32-1.32h0c0-.73-.59-1.32-1.32-1.32Z" style="fill: #ffe189;"/>
            <path d="M571.81,246.4h-11.6c-1.2,0-2.16,.96-2.16,2.15h0c0,1.19,.97,2.15,2.16,2.15h11.6c1.2,0,2.16-.96,2.16-2.15h0c0-1.19-.97-2.15-2.16-2.15Z" style="fill: #ffde94;"/>
            <path d="M584.99,246.4h-5.72c-1.2,0-2.16,.96-2.16,2.15h0c0,1.19,.97,2.15,2.16,2.15h5.72c1.2,0,2.17-.96,2.17-2.15h0c0-1.19-.97-2.15-2.17-2.15Z" style="fill: #ffde94;"/>
            <path d="M614.78,242.33v8.74c0,9.98-8.13,18.07-18.16,18.07h-24.78c-6.41,0-12.03-3.31-15.26-8.3,3.03,5.78,9.1,9.73,16.1,9.73h24.78c10.03,0,18.16-8.09,18.16-18.07v-10.17h-.84Z" style="fill: #fca337;"/>
          </g>
          <rect x="182.35" y="338.05" width="403.29" height="17.58" style="fill: #e9d6bc;"/>
          <rect x="297.64" y="338.05" width="166.99" height="4.24" style="fill: #f0dfcd;"/>
          <rect x="271.02" y="342.92" width="220.24" height="4.24" style="fill: #f0dfcd;"/>
          <rect x="251.82" y="347.87" width="258.65" height="4.24" style="fill: #f0dfcd;"/>
          <rect x="77.55" y="352.11" width="612.91" height="31.89" style="fill: #e9d6bc;"/>
          <polygon points="690.45 357.95 159.01 359.42 690.45 374.86 690.45 357.95" style="fill: #ebdbc7;"/>
          <polygon points="77.55 361.49 690.45 354.63 690.45 352.11 77.55 352.11 77.55 361.49" style="fill: #e5cdb0;"/>
          <g>
            <path d="M349.66,337.82l-2.74,5.13,60.98,.5,13.83-.87-1.8-4.52c-12.1-.69-42.26-.4-70.28-.23Z" style="fill: #e42a47;"/>
            <path d="M445.19,352.11h-140.15c-34.43,12.55-98.15,24.2-121.05,31.89h375.3c-44.84-11.34-99.42-25.15-114.11-31.89Z" style="fill: #ff4150;"/>
            <g>
              <path d="M355.81,369.19c22.37-1,38.43-1.23,50.05-2.01-9.75-.29-19.57-.23-29.3,.18-10.44,.43-23.04-.74-33.5-1.09-6.51-.22-12.86-.89-19.31-1.3-10.12-.64-20.41-.64-30.62-.98-8.27-.28-16.5-.79-24.77-.98-20.03,5.15-41.67,9.95-59.02,14.15,30.03-1.5,60.11-2.81,90.24-3.94,10.63-.4,48.58-3.68,56.23-4.03Z" style="fill: #f82b4b;"/>
              <path d="M462.5,377c29.1,.06,57.94,1.99,86.48,4.39-8.45-2.14-17.1-4.34-25.65-6.54-38.03-.13-76.07-.25-114.1-.38,16.35,3.12,35.23,2.49,53.26,2.53Z" style="fill: #f82b4b;"/>
              <path d="M393.74,356.24c22.89,1.07,45.94,1.76,69.09,2.08-2.96-.91-5.68-1.78-8.11-2.6-20.32,.64-40.76-1-60.98,.51Z" style="fill: #f82b4b;"/>
            </g>
            <polygon points="337.11 347.16 305.04 352.11 368.37 354.12 445.29 352.24 441.61 347.87 436.4 347.16 337.11 347.16" style="fill: #e42a47;"/>
            <polygon points="340.07 342.92 341.4 347.16 395.65 347.97 436.4 347.16 433.95 343.2 416.18 342.29 340.07 342.92" style="fill: #e42a47;"/>
            <polygon points="433.95 343.2 416.18 342.29 340.07 342.92 340.27 343.57 434.18 343.57 433.95 343.2" style="fill: #ff4150;"/>
            <path d="M332.53,347.87c39.87,.54,77.53,.73,109.08,0l-5.21-.71h-99.29l-4.58,.71Z" style="fill: #ff4150;"/>
            <path d="M521.51,378.99c-9.59-1.95-18.82-4.14-27.69-6.6-9.04-2.51-17.69-5.25-26.15-8.07-4.24-1.42-8.44-2.85-12.61-4.3-2.09-.72-4.17-1.45-6.25-2.18-1.97-.69-4.02-1.36-5.78-2.13-.86-.38-1.65-.79-2.28-1.23-.53-.37-.95-.77-1.45-1.15-.47-.35-1-.71-1.76-.97-.34-.12-.76-.18-1.11-.29-.27-.08-.23-.13-.26-.29-.03-.17-.07-.33-.1-.5-.12-.6-.24-1.21-.36-1.81-.09-.46-.05-1-.84-1.37-1.19-.56-3.32-.4-4.91-.39-.79,0-1.57-.01-2.21-.21,.33-.19,.65-.37,.98-.56,.25-.14,.8-.35,.88-.52,.07-.15-.2-.41-.31-.55-.13-.16-.28-.32-.45-.47-.75-.66-1.88-1.24-3.26-1.69-2.59-.85-6.53-1.92-9.79-1.77-.02-1.64,.05-2.58-1.21-4.13h-1.95c1.4,1.63,1.42,2.68,1.39,4.42,0,.21,.69,.17,1.01,.14,3.05-.24,7.01,.94,9.3,1.76,1.16,.42,2.14,.93,2.78,1.5,.24,.22,.79,.64,.65,.88-.1,.17-.6,.36-.85,.5-.33,.19-.65,.37-.98,.56-.07,.04-.1,.11,0,.15,.86,.33,2.02,.4,3.15,.4,1.1,0,2.42-.12,3.47,.06,1.44,.25,1.3,1.07,1.41,1.6,.16,.83,.33,1.66,.49,2.5,.03,.04,.09,.06,.18,.08,1.76,.25,2.64,.95,3.42,1.59,.91,.75,1.92,1.43,3.32,2.05,1.52,.67,3.25,1.25,4.94,1.84,1.8,.63,3.59,1.26,5.4,1.88,7.17,2.49,14.39,4.97,21.8,7.35,7.39,2.37,14.96,4.65,22.82,6.75,7.76,2.07,15.82,3.92,24.11,5.6,6.61,1.35,13.36,2.71,19.19,4.58h2.51c-6.18-2.08-13.49-3.55-20.63-5.01Z" style="fill: #ffa144;"/>
            <polygon points="434.64 346.96 402 346.59 429.39 345.99 434.64 346.96" style="fill: #e42a47;"/>
            <polygon points="421.69 342.51 389.06 342.13 418.55 341.5 421.69 342.51" style="fill: #e42a47;"/>
            <polygon points="342.48 352.05 419.24 352.17 369.44 353.24 342.48 352.05" style="fill: #ff4150;"/>
            <polygon points="425.12 352.66 439.77 352.37 441.05 351.17 425.12 352.66" style="fill: #e42a47;"/>
            <path d="M355.73,339.26c-.35-.44-.74-1.23,.28-1.6h-1.7c-.61,.33-.8,.77-.71,1.17,.16,.67,1.13,1.26,1.35,1.93,.17,.5-.16,1-.8,1.42-1.45,.94-4.43,1.51-7.05,1.07-.36-.06-1.6-.02-1.59,.22,.02,1.14,.04,2.28,.06,3.41-2.78-.02-5.65,.89-5.72,2.05-4.88,.33-10.12,.98-15.21,2.07-5.3,1.13-9.84,2.65-14.02,4.39-3.83,1.59-7.66,3.26-12.32,4.85-4.03,1.38-8.3,2.64-12.7,3.81-8.31,2.21-17.59,4.23-27.74,6.33-9.07,1.87-18.59,3.77-28.12,6-8.75,2.05-17.64,4.43-25.66,7.4-.18,.07-.37,.14-.57,.21h3.62c6.66-2.43,14.03-4.52,21.69-6.39,9.02-2.2,18.43-4.11,27.81-6.04,9.31-1.91,18.39-3.96,27.27-6.19,8.87-2.23,16.81-4.83,24.12-7.87,4.28-1.78,8.36-3.64,13.44-5.04,4.72-1.3,9.99-2.25,15.52-2.79,1.39-.14,2.78-.24,4.19-.33,.36-.02,1.06-.11,1-.31-.25-.94,1.41-1.96,3.75-1.64,.34,.05,1.43-.04,1.43-.25-.02-1.12-.04-2.24-.06-3.36,4.18,.25,9.24-.94,9.48-2.76,.08-.63-.57-1.18-1.04-1.77Z" style="fill: #ffa144;"/>
            <polygon points="340.07 342.92 340.47 344.2 375.32 343.87 340.07 342.92" style="fill: #e42a47;"/>
            <polygon points="333.02 347.94 333.42 349.22 368.27 348.89 333.02 347.94" style="fill: #e42a47;"/>
          </g>
          <path d="M460.12,358.12c0-1.51-29.4-2.74-65.67-2.74s-65.67,1.23-65.67,2.74,29.4,2.74,65.67,2.74,65.67-1.23,65.67-2.74Z" style="fill: #b91615;"/>
          <g>
            <path d="M347.23,199.41l-21.52-24.45s-23.68,14.91-29.74,20.2c-8.06,7.03,10.71,18.3,24.46,18.25,0,0,12.14-4.35,26.8-13.99Z" style="fill: #ff8659;"/>
            <path d="M437.05,180.91l-19.86,26.57s14.91,20.53,21.74,23.8c7.27,3.48,19.45-2.85,23.4-8.85,0,0-17.23-26.85-25.28-41.51Z" style="fill: #ff8659;"/>
            <path d="M313.1,181.42s20.98,22.71,36.22,39.67l1.15-64.39c-11.5,3.45-37.37,24.72-37.37,24.72Z" style="fill: #dfd3b8;"/>
            <path d="M337.42,207.71l9.49,11.07c2.59-13.16,2.78-25.73,.32-37.63-.79,15.81-9.8,26.56-9.8,26.56Z" style="fill: #c0ae93;"/>
            <path d="M313.1,181.42s6.71,7.26,15.29,16.63c6.66-4.35,13.11-14.42,16.57-27.08,1.22-4.48,1.96-8.88,2.24-13-12.5,5.69-34.09,23.45-34.09,23.45Z" style="fill: #f3eadc;"/>
            <path d="M420.32,151.82l-4.6,73.01c16.67-10.64,28.26-32.14,28.26-32.14,0,0-6.13-23.34-23.66-40.88Z" style="fill: #dfd3b8;"/>
            <path d="M434.29,170.29c-2.47,4.8-4.06,12.18-4.06,20.47,0,6.9,1.1,13.17,2.89,17.85,6.79-8.37,10.86-15.92,10.86-15.92,0,0-2.72-10.33-9.69-22.41Z" style="fill: #f3eadc;"/>
            <path d="M418.6,306.18h-30.18l-34.21,25.87c46.28,13.8,73.88,9.49,73.88,9.49l-9.49-35.36Z" style="fill: #cdbb9b;"/>
            <path d="M359.44,294.17s3.93,46.04,1.85,59.68l5.08,4.35s4.47-56.49,4.3-61.25c-.17-4.76-11.23-2.79-11.23-2.79Z" style="fill: #ff8659;"/>
            <path d="M350.5,358.21h15.87s-1.31-5.69-4.19-6.32c-2.87-.63-11.68,6.32-11.68,6.32Z" style="fill: #ffa779;"/>
            <path d="M415.23,293.6s1.56,46.45,5.33,60.22l-4.64,4.39s-11.37-56.99-11.77-61.79c-.41-4.8,11.08-2.81,11.08-2.81Z" style="fill: #ff8659;"/>
            <path d="M432.05,358.21h-16.13s.64-5.74,3.49-6.38c2.85-.64,12.64,6.38,12.64,6.38Z" style="fill: #ffa779;"/>
            <path d="M346.73,158.43c1.96-1.09,31.04-14.95,34.21-14.95s35.07,8.05,38.52,10.06c3.45,2.01,.86,63.53,1.15,67.55,.29,4.02,0,18.97,1.44,20.98,1.44,2.01,5.1,62.71,6.32,64.68,4.31,6.9,1.15,35.07-.29,34.78-1.44-.29-12.65-15.23-15.52-15.52s-33.28,24.43-66.98,24.43c-4.02,0-3.45-31.04-2.01-33.06,1.44-2.01,1.15-57.49,1.44-60.65,.29-3.16-.86-96.87,1.72-98.31Z" style="fill: #ddd2bc;"/>
            <path d="M345.09,222.69v3.53c22.21-2.83,43.88-20.87,43.88-20.87,0,0-24.15,14.35-43.88,17.34Z" style="fill: #c0ae93;"/>
            <path d="M419.46,153.54c-3.45-2.01-35.36-10.06-38.52-10.06s-32.24,13.86-34.21,14.95c-1.33,.74-1.67,25.74-1.73,50.35,14.64,9.58,43.08-3.41,62.83-31.03,5.6-7.83,9.66-15.65,12.24-23-.18-.65-.39-1.07-.62-1.21Z" style="fill: #f3eadc;"/>
            <path d="M428.08,341.54c1.44,.29,4.6-27.88,.29-34.78-.88-1.41-3.01-33.08-4.68-51.58-3.11-1.56-6.39-2.39-9.82-2.39-20.84,0-59.63,48-70.5,92.8,.49,2.94,1.21,4.87,2.21,4.87,33.7,0,64.1-24.72,66.98-24.43s14.09,15.23,15.52,15.52Z" style="fill: #f3eadc;"/>
            <path d="M338.92,228.11s-13.46-25.69-19.27-32.92c-8.45-10.51-27.69-1.45-27.11,6.2,1.17,15.46,32.86,38.58,32.86,38.58l13.52-11.86Z" style="fill: #ffa779;"/>
            <path d="M467.49,175.25s-21.35,18.43-26.07,26.42c-9.07,15.39-5.38,32.53,11.68,28.02,14.99-3.96,25.67-41.74,25.67-41.74l-11.28-12.7Z" style="fill: #ffa779;"/>
            <path d="M381.23,141.97c-1.81,0-17.21,8.29-26.05,12.37,3.29,21.15,27.77,40.66,27.77,40.66,0,0,21.77-23.93,29.1-43.33-10.5-2.86-28.84-9.7-30.83-9.7Z" style="fill: #ffa779;"/>
            <path d="M381.23,141.97c-1.81,0-17.21,8.29-26.05,12.37,.24,1.57,.62,3.14,1.08,4.68,1.43,.72,2.68,.55,2.68,.55-1.51,9.45,9.27,9.27,9.27,9.27,4.63,8.42,15.04,3.2,15.04,3.2,0,0-.68,3.13,8.49,2.1,9.4-1.05,9.13-9.13,9.13-9.13,0,0,4.58-3.05,4.4-8.46,0,0,4.99-.74,6.63-4.94-10.53-2.89-28.69-9.66-30.67-9.66Z" style="fill: #ff8659;"/>
            <path d="M403.55,140.04s3.14-2.89,2.98-5.59c-.16-2.7-2.78-3.64-2.78-3.64,0,0,3.21-2.98,3.42-6.27,.93-1.56,2.09-4.07,1.96-6.67-.22-4.25-2.38-5.13-2.38-5.13,1.08-6.02-.87-15.86-7.37-22.72-6.5-6.86-15.39,.54-15.39,.54,0,0-1.95-2.25-7.37-3.33-5.42-1.08-6.5,5.22-6.5,5.22,0,0-4.55-2.64-9.1-.78-4.55,1.86-4.12,7.26-4.12,7.26,0,0-5.85-1.14-7.37,3.97-1.52,5.11,.87,9.68,.87,9.68,0,0-1.27,8.67,3.55,11.39-.69,1.22-1.23,2.83-1.19,4.85,.1,5.41,5.57,6.83,5.57,6.83,0,0-3.15,3.56-1.78,11.24,1.38,7.68,6.01,7.06,6.01,7.06-1.31,9.67,8.37,9.56,8.37,9.56,4.22,8.61,13.12,3.32,13.12,3.32,0,0-.51,3.15,7.21,2.12,7.72-1.03,7.23-8.92,7.23-8.92,0,0,3.58-2.88,3.25-8.07,0,0,4.19-.62,5.16-4.89,.97-4.27-3.37-7.02-3.37-7.02Z" style="fill: #ede6d9;"/>
            <path d="M407.17,124.54c.61-1.02,2.05-2.38,2.43-3.98,1.33-11.66-6.44-6.94-7.83-6.76,.19,1.46-2.15,5.77-2.85,7,2.8,2.05,.5,10.55-.78,11.02,.24,5.12-2.84,7.97-2.84,7.97,0,0,.43,7.89-6.31,8.92-6.74,1.03-6.3-2.12-6.3-2.12,0,0-7.78,5.3-11.46-3.32,0,0-8.45,.11-7.31-9.56,0,0-5.33-4.62-5.29-13.92-.27-8.13-6.2-8.61-8.35-5.94-.14,2.5-.02,8.05,3.66,10.13-.69,1.22-1.23,2.83-1.19,4.85,.1,5.41,5.57,6.83,5.57,6.83,0,0-3.15,3.56-1.78,11.24,1.38,7.68,6.01,7.06,6.01,7.06-1.31,9.67,8.37,9.56,8.37,9.56,4.22,8.61,13.12,3.32,13.12,3.32,0,0-.51,3.15,7.21,2.12,7.72-1.03,7.23-8.92,7.23-8.92,0,0,3.58-2.88,3.25-8.07,0,0,4.19-.62,5.16-4.89,.97-4.27-3.37-7.02-3.37-7.02,0,0,3.14-2.89,2.98-5.59-.16-2.7-2.78-3.64-2.78-3.64,0,0,3.21-2.98,3.42-6.27Z" style="fill: #dfd3be;"/>
            <path d="M359.88,129.25c-5.61,.86-12.07-7.98-9.27-11.21,2.8-3.23,6.04-2.59,7.33,.22,1.29,2.8,1.94,11,1.94,11Z" style="fill: #ffa779;"/>
            <path d="M399.37,129.47c4.56,.86,9.83-7.98,7.55-11.21-2.28-3.23-4.92-2.59-5.97,.22-1.05,2.8-1.58,11-1.58,11Z" style="fill: #ffa779;"/>
            <path d="M401.35,126.71c2.6,.49,5.59-4.54,4.29-6.38-1.3-1.84-2.8-1.47-3.39,.12-.6,1.59-.9,6.25-.9,6.25Z" style="fill: #e84e44;"/>
            <path d="M401,127.91c1.68,.32,3.63-2.94,2.79-4.14-.84-1.19-1.81-.95-2.2,.08-.39,1.03-.58,4.06-.58,4.06Z" style="fill: #ffa779;"/>
            <path d="M365.35,131c-1.57-3.58-1.48-20.21,.37-22.01,1.85-1.8,9.04-5.74,15.26-4.9,6.22,.84,12.29,2.55,13.89,6.37,1.6,3.82,1.4,19.14,.92,21.53-.25,1.22-7.36-.4-14.72-.48-7.03-.08-14.17,3.01-15.72-.51Z" style="fill: #ffa779;"/>
            <path d="M429.81,205.7l-4.52,3.71,4.07,5.46,4.85-4.93c-.91-.91-4.39-4.24-4.39-4.24Z" style="fill: #ff8659;"/>
            <path d="M432.97,228.85c.56-6.54-6.58-27.53-14.23-39.02l-7.11,9.49c6.23,15.29,10.39,46.83,12.84,64.92l5.7-11.88-1.51-11s4.03-9.28,4.31-12.5Z" style="fill: #0090aa;"/>
            <path d="M429.5,212.84c-2.7-7.94-6.66-16.84-10.76-23l-7.11,9.49c3.43,8.44,6.24,21.82,8.48,35.15,1.25-11.22,4.89-19.78,9.4-21.64Z" style="fill: #007383;"/>
            <path d="M417.87,222.28c3.61,6,8.33,15.34,11.97,27.69l-1.18-8.62s1.34-3.09,2.53-6.32c-5.11-7.62-10.47-13.26-14.14-16.71,.28,1.3,.56,2.62,.83,3.96Z" style="fill: #007383;"/>
            <path d="M417.35,152.67c-21.75,66.7-73.2,78.77-73.2,78.77-6.58,7.73-8.69,14.43-3.64,19.48,0,0-5.06,7.36-5.86,11.04-.8,3.68,1.04,31.39,2.88,34.22,1.84,2.83,4.93,3.96,7.48,4.53,2.55,.57,63.24-54.9,74.67-84.06,5.18-13.22,11.39-47.35,11.57-50.18,.18-2.83-1.15-9.49-4.6-12.65-2.83-2.59-9.3-1.16-9.3-1.16Z" style="fill: #00aaca;"/>
            <path d="M427.55,154.81c4.13,10.14,.52,35.22-10.6,56.46-13.24,25.3-58.17,62.3-66.64,57.87-5.24-2.74-13.04-25.14,23.81-53.21-16.26,12.29-29.97,15.51-29.97,15.51-6.58,7.73-8.69,14.43-3.64,19.48,0,0-5.06,7.36-5.86,11.05-.8,3.68,1.04,31.39,2.88,34.22,1.84,2.83,4.93,3.96,7.48,4.53,2.55,.57,63.24-54.9,74.67-84.06,5.18-13.22,11.39-47.35,11.57-50.18,.16-2.57-.92-8.26-3.69-11.66Z" style="fill: #0095af;"/>
            <path d="M340.51,250.92s-4.96,7.22-5.83,10.94c56.57-15.31,81.56-78.57,81.56-78.57,0,0-22.61,51.23-77.72,64.85,.46,.97,1.11,1.91,1.99,2.78Z" style="fill: #0095af;"/>
            <path d="M328.65,244.28l-2.48,4.32c-.22,2.54,6.44,7.38,8.45,7.62,2.02,.23,5.86-2.52,6.74-3.52,.67-.76-11.12-8.33-12.71-8.42Z" style="fill: #ff8659;"/>
            <path d="M336.59,224.02c8.28,6.8,12.69,11.69,14.01,14.63,1.32,2.95-7.37,14.5-11.45,15.49-5.96,1.44-16.82-17.97-16.82-17.97l14.26-12.15Z" style="fill: #ffa779;"/>
            <path d="M382.95,192.79s-22.93-18.27-27.39-38.63c-.13,.06-.26,.12-.38,.18,3.29,21.15,27.78,43.09,27.78,43.09,0,0,21.77-26.36,29.1-45.76-.26-.07-.53-.15-.8-.22-7.99,19.01-28.31,41.34-28.31,41.34Z" style="fill: #ff8659;"/>
            <path d="M362.88,192.54s.32,9.96,8.38,18.82l7.59-5.06c-9.33-4.27-15.97-13.76-15.97-13.76Z" style="fill: #ddd2bc;"/>
            <path d="M356.87,173.09s8.22,23.4,26.56,31.78l4.59-3.16c-16.44-5.06-31.15-28.62-31.15-28.62Z" style="fill: #ddd2bc;"/>
            <path d="M331.89,205.34c1.11-.95,5.38-4.9,5.38-4.9l-6.01-6.17-4.43,3.16,5.06,7.91Z" style="fill: #ff8659;"/>
            <path d="M439.88,191.9l-4.71,5.05,2.79,6.29,5.06-5.67c-1.12-.87-3.14-5.67-3.14-5.67Z" style="fill: #ff8659;"/>
            <path d="M319.67,190.95c1.22-.72,6.72-4.2,6.72-4.2l-5.98-5.15-4.87,3.36,4.13,5.99Z" style="fill: #ff8659;"/>
            <path d="M429.95,311.81c-.35-2.13-.86-3.9-1.58-5.06-.34-.54-.86-5.58-1.48-12.62-7.81-8.4-25.36-15.04-25.36-15.04,0,0,15.6,10.82,28.41,32.71Z" style="fill: #ddd2bc;"/>
            <path d="M384.94,282.19s-26.56,24.67-40.67,27.86c-.17,4.15-.4,6.92-.7,7.34-.3,.42-.56,2.1-.75,4.49,30.26-24.04,42.11-39.69,42.11-39.69Z" style="fill: #cdbb9b;"/>
            <path d="M345.58,350.45c2.78,0,5.54-.18,8.27-.49,28.83-15.4,58.12-42.63,58.12-42.63,0,0-23.75,18.49-68.08,40.64,.44,1.54,.99,2.48,1.69,2.48Z" style="fill: #ddd2bc;"/>
            <path d="M412.94,343.18c1.71,8.66,2.98,15.03,2.98,15.03l4.64-4.39c-.92-3.38-1.72-8.73-2.38-14.88-.52-.36-1.04-.53-1.57-.5-1.49,.1-2.75,1.86-3.66,4.73Z" style="fill: #ffa779;"/>
            <path d="M426.64,153.83c-1.34-1.22-3.48-1.55-5.37-1.55,2.02,19.25-2.42,31.48-2.42,31.48,0,0,7.29-10.84,11.66-22.77-.72-2.63-1.97-5.42-3.86-7.16Z" style="fill: #0095af;"/>
            <path d="M469.37,172.35l-7.31,8.02c6.29,1.99,10.69,7.86,12.77,18.5l4.08-8.21-9.53-18.3Z" style="fill: #ff8659;"/>
            <path d="M493.07,165.8c-3.1-2.59-11.72-.54-14.4-.42-2.68,.13-7.14,1.88-8.69,4.95-5.14,10.24,5.59,25.97,9.39,19.9,0,0,6.95-1.1,8.4-2.12,1.45-1.01,8.4-19.73,5.31-22.32Z" style="fill: #ff8659;"/>
            <path d="M467.54,169.83c2.72-2.57,6.22-4.35,7.76-5.16,.99-.52,4.56,3.73,4.02,5.01-.55,1.28-1.78,6.47-5.2,8.5-3.42,2.03-9.95,.92-9.96-.47-.02-1.4,2.41-6.95,3.39-7.88Z" style="fill: #ffa779;"/>
            <g>
              <polygon points="482.78 127.9 480.89 128.57 477.59 121.3 478.12 119.07 479.82 119.69 482.78 127.9" style="fill: #5a2731;"/>
              <path d="M499.83,153.86c-.07,.03-.14,.06-.22,.08-5.84,2.08-11.76,2.35-16.8,1.11l.08,3.81c5.34,1.67,11.83,1.56,18.23-.72,.39-.14,.78-.29,1.16-.44l-2.44-3.84Z" style="fill: #752e3c;"/>
              <path d="M481.85,136.62c.22,.61,29.86,42.69,29.86,42.69l3.63,.54-30.72-54.74-2.76,11.51Z" style="fill: #9b4051;"/>
              <polygon points="481.92 192.45 477.78 127.78 484.61 125.11 486.06 133.9 484.01 192.15 481.92 192.45" style="fill: #9b4051;"/>
              <polygon points="482.06 123.5 478.16 124.89 473.73 115.41 475.38 112.15 478.54 112.63 482.06 123.5" style="fill: #9b4051;"/>
              <path d="M480.73,133.06c.45,1.27,1.85,1.93,3.12,1.48,1.27-.45,1.93-1.85,1.48-3.12-.45-1.27-1.85-1.93-3.12-1.48-1.27,.45-1.93,1.85-1.48,3.12Z" style="fill: #5a2731;"/>
            </g>
            <path d="M485.31,172.31c-2.14-.07-1.98-6.44-1-6.69,.98-.24,7.37-1.75,9.04-.72,1.67,1.03,1.2,5.04,.47,6.15-.73,1.11-7.08,1.31-8.51,1.26Z" style="fill: #ffa779;"/>
            <path d="M472.03,169.9c-1.52-2.32,3.31-5.94,4.21-5.03,.9,.91,6.72,6.82,7.18,9.21,.46,2.39-2.85,4.26-4.2,4.14-1.36-.12-6.18-6.77-7.19-8.32Z" style="fill: #ffa779;"/>
            <path d="M483.13,179.93c-2.41-.37-1.63-6.69-.49-6.8,1.14-.11,8.52-.74,10.31,.51,1.79,1.26,.87,5.18-.06,6.19-.93,1-8.14,.34-9.75,.1Z" style="fill: #ffa779;"/>
            <path d="M481.8,188.85c-2.14-.07-1.98-6.44-1-6.69,.98-.24,7.37-1.75,9.04-.72,1.67,1.03,1.2,5.04,.47,6.15-.73,1.11-7.08,1.31-8.51,1.26Z" style="fill: #ffa779;"/>
            <path d="M378.41,122.57c-.69,1.26-2.73,8.18-1.9,9.13,.83,.95,2.85,2.49,4.86,2.13,2.02-.36,4.03-1.66,4.03-2.73s-2.25-8.78-3.08-9.25c-.83-.47-3.5-.04-3.91,.71Z" style="fill: #ff8659;"/>
            <path d="M357.91,126.61c-3.38,.52-7.29-4.82-5.6-6.77,1.69-1.95,3.64-1.56,4.43,.13,.78,1.69,1.17,6.64,1.17,6.64Z" style="fill: #e84e44;"/>
            <path d="M358.83,128.13c-2.39,.37-5.14-3.4-3.95-4.78s2.57-1.1,3.12,.09c.55,1.19,.83,4.68,.83,4.68Z" style="fill: #ffa779;"/>
            <path d="M391.02,125.46c0-1.51-.76-2.73-1.7-2.73s-1.7,1.22-1.7,2.73,.76,2.73,1.7,2.73,1.7-1.22,1.7-2.73Z" style="fill: #4c3934;"/>
            <path d="M373,125.53c0-1.51-.76-2.73-1.7-2.73s-1.7,1.22-1.7,2.73,.76,2.73,1.7,2.73,1.7-1.22,1.7-2.73Z" style="fill: #4c3934;"/>
            <path d="M367.15,120.36c1.9,.33,7.87-2.29,8.33-3.35,.46-1.07-.04-5.1-1.69-5.03-1.65,.08-7.65,3.05-8.04,3.96-.4,.91,.52,4.27,1.4,4.42Z" style="fill: #ede6d9;"/>
            <path d="M394.41,120.05c-1.87,.49-8.03-1.61-8.59-2.64s-.39-5.09,1.26-5.15c1.65-.06,7.88,2.39,8.35,3.27,.47,.88-.16,4.3-1.02,4.52Z" style="fill: #ede6d9;"/>
            <path d="M380.51,137.99c-1.09,0-2.26-.23-3.47-.83-.28-.14-.41-.52-.29-.86,.11-.34,.43-.49,.71-.36,4.24,2.13,8.25-1.13,8.29-1.17,.25-.2,.58-.13,.75,.17,.17,.3,.11,.71-.14,.91-.14,.11-2.61,2.13-5.85,2.13Z" style="fill: #ff8659;"/>
            <path d="M379.64,139.25c4.24,.87,7.27-1.5,7.27-1.5-1.31,2.79-3.61,3.55-7.27,1.5Z" style="fill: #dfd3be;"/>
            <path d="M406.74,112.74c.22-1.23,.31-2.63,.26-4.12-.94,1.08-2.11,1.81-3.45,2.01-3.17,.49-6.31-2.01-7.99-5.95,0,.03,0,.06,.01,.1,.92,5.95,4.66,10.32,8.36,9.75,1.13-.17,2.11-.79,2.92-1.73-.07-.04-.11-.06-.11-.06Z" style="fill: #dfd3be;"/>
            <path d="M371.06,101.58c-2.39,0-4.53-.6-6.03-1.55,.78,1.99,3.29,3.44,6.27,3.44,3.2,0,5.85-1.67,6.41-3.88-1.48,1.2-3.91,1.98-6.65,1.98Z" style="fill: #dfd3be;"/>
            <path d="M385.64,94.6c-.94-1.55-1.28-3.25-1.06-4.72-1.39,1.54-1.64,3.92-.47,5.86,1.26,2.07,3.74,2.92,5.85,2.14-1.61-.34-3.24-1.5-4.32-3.28Z" style="fill: #dfd3be;"/>
            <path d="M395.31,104.48c-1.77,.4-3.49,.18-4.81-.5,1.02,1.81,3.2,2.81,5.41,2.31,2.37-.54,3.96-2.62,3.89-4.86-.83,1.42-2.45,2.59-4.48,3.05Z" style="fill: #dfd3be;"/>
            <path d="M359.32,100.11c-1.08-1.42-1.57-3.06-1.49-4.53-1.23,1.66-1.26,4.04,.09,5.81,1.44,1.9,3.98,2.47,5.99,1.47-1.63-.16-3.35-1.13-4.58-2.76Z" style="fill: #dfd3be;"/>
            <path d="M388.97,103.89c0-1.67-2.23-3.02-4.98-3.02s-4.98,1.35-4.98,3.02,2.23,3.02,4.98,3.02,4.98-1.35,4.98-3.02Z" style="fill: #ede6d9;"/>
            <ellipse cx="376.16" cy="148.01" rx="6.39" ry="6.01" style="fill: #ede6d9;"/>
            <ellipse cx="368.1" cy="142.55" rx="6.39" ry="6.01" style="fill: #ede6d9;"/>
            <path d="M394.05,149.31c0-3.32-2.86-6.01-6.39-6.01s-6.39,2.69-6.39,6.01,2.86,6.01,6.39,6.01,6.39-2.69,6.39-6.01Z" style="fill: #ede6d9;"/>
            <path d="M398.28,138.54c-2.2-1.85-5.44-1.16-7.23,1.55-1.8,2.7-1.48,6.39,.72,8.24,2.2,1.85,5.43,1.16,7.23-1.55,1.8-2.7,1.48-6.39-.72-8.24Z" style="fill: #ede6d9;"/>
            <path d="M386.23,158.97c1.61-2.38,.59-5.53-2.29-7.04-2.87-1.51-6.51-.81-8.12,1.57-1.61,2.38-.59,5.53,2.29,7.04,2.87,1.51,6.51,.81,8.12-1.57Z" style="fill: #ede6d9;"/>
            <path d="M400.88,130.06c-1.77-.98-3.82,.35-4.56,2.97-.75,2.62,.09,5.54,1.86,6.52,1.77,.98,3.82-.35,4.56-2.97,.75-2.62-.08-5.54-1.86-6.52Z" style="fill: #ede6d9;"/>
          </g>
          <g>
            <path d="M219.8,60.61l.16,2.9c.05,.48,.17,.95,.24,1.43l.26,1.43c.1,.47,.28,.93,.41,1.39l.43,1.39c.15,.46,.39,.89,.57,1.34l.59,1.33c.21,.44,.49,.84,.73,1.26l.75,1.25c.27,.41,.59,.77,.88,1.16l.89,1.16c.66,.71,1.35,1.4,2.02,2.11l2.26,1.86,.78,.64-.16,.94h0s-.24,1.71-.24,1.71c-.1,.54-.07,1.25-.11,1.87l-.02,.48v.24s-.01,.12-.01,.12v.03s0,.01,0,.01c0,.08,0-.1,0-.07v.06s.07,.89,.07,.89c.05,.59,.06,1.19,.18,1.77,.15,1.18,.46,2.32,.79,3.45l.63,1.65c.23,.54,.52,1.06,.77,1.59,.56,1.03,1.17,2.05,1.91,2.97,.34,.48,.73,.93,1.14,1.35,.39,.44,.79,.87,1.25,1.25,.85,.81,1.81,1.51,2.78,2.16,.51,.3,1,.62,1.51,.91l1.59,.77c1.09,.43,2.2,.84,3.35,1.09,.57,.18,1.12,.22,1.68,.32l.83,.14,.96,.05,.96,.05h.24s.06,.02,.06,.02h.03s.01,0,.01,0c-.18,0-.04,0-.08,0h.11s.44-.04,.44-.04l1.76-.1c.59-.03,1.16-.2,1.74-.28,.58-.1,1.16-.19,1.72-.4l1.69-.53,1.61-.73c.55-.22,1.06-.52,1.56-.84,.49-.33,1.03-.58,1.5-.95,.94-.73,1.89-1.43,2.7-2.31,.9-.79,1.55-1.79,2.32-2.71l1.09-1.29,1.23,.98h0c.77,.55,1.47,1.21,2.3,1.68l1.2,.76c.41,.23,.84,.44,1.26,.66,.83,.47,1.73,.78,2.61,1.15,.89,.33,1.81,.59,2.72,.85,.93,.17,1.87,.47,2.78,.54l1.38,.18c.46,.06,1,.05,1.49,.08l.76,.03h.38s.19,.02,.19,.02c-.08,0,.08,0,.11,0l1.43-.05c.95-.08,1.9-.14,2.84-.33,.94-.14,1.86-.38,2.79-.6,.91-.28,1.82-.55,2.69-.92,.89-.33,1.74-.75,2.58-1.19,.84-.43,1.63-.94,2.42-1.46,.76-.55,1.52-1.11,2.22-1.74,.37-.29,.69-.64,1.02-.96,.34-.32,.66-.66,.96-1.02,.63-.69,1.19-1.44,1.71-2.21,.53-.77,.97-1.58,1.4-2.4h0s.71-1.25,.71-1.25l1.36,.29,.85,.18,.43,.1,.55,.04,.97,.08,.95-.03c.63-.06,1.26-.12,1.87-.29,.62-.12,1.22-.35,1.81-.58l.87-.4,.82-.48c.53-.35,1.06-.72,1.52-1.16,.25-.2,.48-.43,.69-.67,.22-.23,.45-.46,.63-.72,.41-.49,.75-1.04,1.09-1.59,.29-.57,.58-1.15,.79-1.76,.13-.3,.2-.61,.29-.92,.09-.31,.17-.62,.21-.91,.04-.32,.13-.55,.14-.94l.07-1.01c-.03-.65-.02-1.3-.15-1.93-.07-.65-.27-1.27-.44-1.89l-.34-.91c-.13-.3-.29-.58-.43-.88-.13-.3-.33-.56-.49-.84-.17-.28-.35-.55-.56-.8-.38-.53-.85-1-1.3-1.47h0s-.63-.57-.63-.57l.35-1.06c.26-.79,.64-1.53,.84-2.33,.21-.8,.45-1.59,.51-2.35l.17-1.16,.04-1.34,.02-.67v-.17s0-.02,0-.02c0,.21,0,.05,0,.1h0s0-.05,0-.05v-.08s-.03-.3-.03-.3l-.1-1.21c-.16-.79-.25-1.59-.5-2.36-.18-.78-.49-1.52-.78-2.27-.36-.71-.67-1.45-1.12-2.12-.39-.7-.9-1.32-1.38-1.96-.55-.58-1.05-1.21-1.66-1.72-.57-.57-1.23-1.01-1.87-1.5-.69-.41-1.34-.87-2.07-1.2-.7-.4-1.47-.62-2.21-.93-.77-.21-1.55-.48-2.29-.58-.69-.18-1.65-.21-2.53-.29l-2.36,.04-2.44,.37h0l-1.45,.4-.39-1.58-.53-2.15c-.18-.71-.45-1.4-.67-2.1-.2-.71-.56-1.36-.83-2.03-.27-.68-.63-1.32-.98-1.95l-.51-.96-.59-.92c-.39-.61-.78-1.23-1.25-1.78-.86-1.17-1.85-2.23-2.89-3.24-.54-.48-1.06-.99-1.62-1.43l-1.71-1.31-1.81-1.17c-.62-.36-1.27-.67-1.9-1.01-1.3-.6-2.62-1.18-3.99-1.57-.67-.25-1.37-.4-2.07-.55l-1.05-.24c-.34-.06-.68-.09-1.02-.14-.69-.08-1.3-.23-2.12-.23l-1.17-.05-.58-.03h-.15s-.07-.01-.07-.01h-.02c-.1,0,.12,0,.09,0h-.03s-.27,.01-.27,.01c-1.43,.03-2.86,.14-4.27,.39-.7,.12-1.41,.23-2.1,.43l-1.04,.26-1.02,.34c-1.36,.44-2.67,1.03-3.96,1.66-.65,.31-1.25,.7-1.88,1.05-.6,.4-1.21,.78-1.79,1.21-1.15,.87-2.27,1.79-3.27,2.83-.53,.5-1.02,1.02-1.49,1.58-.5,.53-.92,1.12-1.37,1.7-.87,1.17-1.63,2.41-2.35,3.69h0s-.53,1.04-.53,1.04l-1.12-.06-2.72-.14-2.45,.14-2.51,.4c-.81,.23-1.64,.4-2.45,.67-.79,.31-1.61,.54-2.37,.91-.75,.39-1.55,.68-2.26,1.15-.72,.45-1.47,.84-2.13,1.38-.68,.5-1.37,1-1.97,1.6l-.94,.85-.85,.94c-.6,.6-1.1,1.28-1.6,1.97-.54,.66-.94,1.4-1.39,2.12-.48,.7-.77,1.51-1.16,2.26-.38,.76-.6,1.58-.92,2.36-.27,.8-.44,1.63-.66,2.45-.16,.81-.25,1.61-.39,2.42l-.15,2.71v-.09Zm-3.47-.09l.14-2.72c.15-.98,.27-1.99,.46-2.95,.25-.93,.45-1.89,.76-2.8,.35-.9,.62-1.84,1.05-2.71,.44-.86,.78-1.78,1.32-2.58,.51-.82,.98-1.68,1.59-2.43,.57-.78,1.15-1.56,1.83-2.25l.98-1.07,1.07-.98c.69-.68,1.47-1.25,2.25-1.83,.75-.61,1.61-1.07,2.43-1.58,.81-.54,1.73-.88,2.59-1.32,.87-.42,1.81-.7,2.71-1.04,.92-.29,1.87-.5,2.81-.74,.95-.17,1.91-.3,2.87-.44l1.45-.07,.72-.03,.36-.02h.18s.09-.01,.09-.01h.18s2.72,.16,2.72,.16l-1.65,.99h0c.35-.75,.67-1.51,1.05-2.24,.42-.71,.78-1.46,1.26-2.14,.45-.69,.9-1.39,1.42-2.04,.49-.67,1.02-1.31,1.58-1.93,1.11-1.24,2.36-2.36,3.65-3.41,.66-.52,1.34-.99,2.02-1.48,.71-.43,1.41-.91,2.14-1.31,1.47-.81,2.99-1.53,4.58-2.06l1.19-.41,1.22-.33c.81-.24,1.63-.39,2.46-.55,1.65-.3,3.33-.43,5.01-.46h.31s.4,0,.4,0l.58,.03,1.17,.05c.74,0,1.66,.16,2.51,.28,.43,.07,.87,.12,1.29,.2l1.23,.29c.82,.19,1.64,.38,2.42,.68,1.6,.5,3.15,1.18,4.64,1.94,.73,.42,1.47,.81,2.18,1.25l2.07,1.42,1.93,1.59c.63,.55,1.19,1.17,1.79,1.75,1.13,1.22,2.2,2.5,3.12,3.88,.5,.67,.91,1.39,1.32,2.11l.62,1.08,.52,1.13c.34,.76,.69,1.5,.93,2.29,.25,.79,.58,1.54,.75,2.35,.18,.8,.42,1.59,.55,2.4l.34,2.43-1.84-1.18h0c.92-.27,1.86-.54,2.81-.76,1-.11,1.86-.25,2.99-.32,.91,.03,1.74,0,2.81,.16,1.05,.09,1.97,.35,2.94,.57,.93,.31,1.88,.6,2.76,1.05,.91,.39,1.75,.92,2.6,1.43,.79,.59,1.61,1.15,2.32,1.84,.76,.64,1.39,1.4,2.05,2.14,.59,.79,1.2,1.57,1.67,2.44,.54,.83,.91,1.75,1.32,2.65,.33,.93,.67,1.86,.87,2.82,.27,.95,.32,1.94,.45,2.91l.04,1.47v.37s0,.09,0,.09v.2s-.02,.17-.02,.17l-.06,.67-.12,1.34c-.08,.48-.19,.99-.3,1.48-.19,1.02-.55,1.91-.88,2.82-.32,.91-.85,1.74-1.27,2.59l-.28-1.62h0c.57,.56,1.16,1.12,1.64,1.76,.27,.3,.5,.63,.72,.97,.22,.34,.46,.66,.64,1.03,.19,.36,.39,.71,.56,1.07l.45,1.12c.25,.77,.51,1.54,.62,2.35,.17,.79,.2,1.61,.25,2.42l-.04,1.17c0,.33-.09,.82-.14,1.23-.05,.43-.13,.84-.24,1.23-.1,.39-.18,.8-.33,1.18-.24,.78-.59,1.52-.94,2.26-.4,.71-.82,1.41-1.32,2.06-.23,.34-.51,.64-.78,.94-.26,.31-.55,.61-.86,.88-.58,.58-1.24,1.07-1.91,1.54l-1.05,.65-1.11,.55c-.76,.32-1.52,.63-2.33,.82-.79,.24-1.61,.34-2.43,.44l-1.24,.08-1.21-.06-.55-.03-.64-.1-1.29-.23,2.07-.95h0c-.51,.97-1.05,1.93-1.68,2.82-.63,.89-1.29,1.76-2.03,2.56-.35,.41-.73,.8-1.13,1.17-.39,.38-.77,.76-1.19,1.1-.81,.72-1.69,1.35-2.57,1.98-.91,.58-1.82,1.15-2.78,1.64-.96,.49-1.93,.95-2.94,1.32-1,.4-2.03,.7-3.05,1.01-1.04,.24-2.08,.5-3.14,.64-1.05,.19-2.12,.26-3.18,.33l-1.6,.05h-.27s-.19,0-.19,0l-.38-.02-.76-.04c-.51-.04-.99-.02-1.53-.1l-1.63-.22c-1.11-.11-2.1-.43-3.16-.64-1.02-.3-2.05-.61-3.05-.99-.98-.42-1.99-.79-2.92-1.32-.47-.25-.95-.49-1.42-.76l-1.35-.87c-.92-.55-1.72-1.29-2.57-1.92h0s2.32-.32,2.32-.32c-.84,1.08-1.57,2.26-2.57,3.21-.9,1.04-1.98,1.9-3.05,2.77-.53,.44-1.14,.77-1.72,1.15-.58,.38-1.16,.74-1.8,1.01l-1.88,.88-1.97,.66c-.65,.25-1.33,.37-2.01,.5-.68,.12-1.35,.31-2.04,.36l-2.07,.14-.52,.03h-.13s-.21,0-.21,0h-.24s-.96-.06-.96-.06l-.96-.05-1.07-.15c-.71-.11-1.44-.19-2.09-.38-1.36-.3-2.66-.76-3.95-1.27l-1.88-.9c-.61-.33-1.19-.71-1.79-1.06-1.14-.78-2.26-1.61-3.25-2.57-.53-.45-.99-.96-1.45-1.48-.47-.51-.92-1.03-1.32-1.6-.85-1.09-1.56-2.29-2.21-3.51-.29-.63-.6-1.25-.86-1.89l-.69-1.95c-.36-1.33-.68-2.68-.83-4.05-.13-.68-.12-1.37-.14-2.06l-.03-1.03v-.06s0-.15,0-.15v-.12s.03-.24,.03-.24l.04-.48c.07-.66,.05-1.24,.19-1.96l.37-2.09h0s.62,1.57,.62,1.57l-2.61-2.02c-.78-.77-1.58-1.53-2.35-2.32l-1.03-1.29c-.34-.44-.7-.85-1.01-1.31l-.87-1.41c-.28-.47-.6-.93-.85-1.42l-.7-1.5c-.22-.51-.49-.99-.67-1.51l-.51-1.58c-.16-.53-.37-1.05-.48-1.59l-.32-1.63c-.1-.54-.23-1.08-.3-1.63l-.23-3.31v-.09Z"/>
            <path d="M310.78,105.78s.02-.24,.05-.68c.04-.44,.17-1.09,.46-1.87,.31-.76,.8-1.65,1.55-2.48,.74-.84,1.75-1.61,2.94-2.22,1.22-.61,2.55-1.04,4.16-1.21,1.43-.14,3.13,0,4.72,.5,1.59,.52,3.19,1.4,4.43,2.77,.61,.68,1.17,1.46,1.53,2.36,.37,.81,.6,2.06,.61,2.76,.04,2.12-.73,3.97-1.99,5.4-1.23,1.44-2.83,2.4-4.47,2.98-.84,.28-1.63,.46-2.53,.54-.47,.07-.76,.04-1.14,.07-.49,0-.83-.03-1.24-.05-1.57-.16-3.02-.64-4.24-1.29-1.22-.66-2.22-1.5-2.95-2.39-.74-.89-1.19-1.81-1.48-2.6-.25-.76-.37-1.57-.38-1.94-.01-.38-.02-.58-.02-.58v-.07Zm2.26-.07s.02,.2,.05,.58c.05,.38,.12,.67,.33,1.26,.42,1.06,1.49,2.52,3.41,3.41,.94,.45,2.06,.75,3.27,.84,.28,0,.65,.03,.87,.03,.33-.02,.77-.02,1.02-.07,.56-.05,1.23-.22,1.84-.41,1.23-.41,2.42-1.1,3.29-2.08,.89-.93,1.42-2.28,1.48-3.41-.01-.93-.1-1.29-.32-1.98-.21-.62-.58-1.19-1-1.71-.86-1.05-2.06-1.82-3.33-2.29-1.3-.45-2.59-.61-3.93-.52-1.18,.08-2.4,.43-3.35,.93-.98,.49-1.73,1.15-2.28,1.81-.54,.66-.86,1.33-1.06,1.89-.17,.57-.24,1.02-.26,1.33-.01,.31-.02,.48-.02,.48v-.07Z"/>
            <path d="M325.9,121.47s.02-.13,.05-.36c.04-.24,.08-.59,.27-.98,.15-.41,.46-.84,.84-1.26,.4-.41,.89-.8,1.5-1.11,.31-.14,.6-.31,1-.4,.19-.05,.38-.1,.58-.15,.18-.04,.32-.04,.49-.07,.76-.12,1.58-.03,2.41,.15,.82,.26,1.69,.6,2.39,1.34,.19,.15,.33,.38,.49,.58,.15,.2,.3,.42,.42,.73l.17,.44c.06,.16,.1,.3,.1,.37l.05,.28,.02,.14v.07s.02,.03,.02,.03v.02s0,0,0,0v.18c.03,1.14-.45,2.22-1.14,2.98-.69,.8-1.56,1.22-2.44,1.53-.46,.12-1.05,.25-1.32,.24l-.5,.02h-.18s-.08,0-.08,0l-.15-.02-.3-.04c-.8-.08-1.55-.35-2.17-.7-.63-.34-1.14-.79-1.52-1.25-.37-.48-.65-.91-.8-1.44-.19-.54-.15-.75-.17-.93-.01-.18-.02-.27-.02-.27v-.13Zm1.99-.13s.02,.09,.05,.26c.03,.17,.08,.49,.18,.54,.04,.1,.23,.34,.44,.55,.24,.2,.55,.4,.94,.54,.39,.12,.83,.25,1.31,.22h.18s.09,0,.09,0h.05c.1,0-.13,0-.11,0h0s.02,0,.02,0h.03s.5-.07,.5-.07c.41-.02,.47-.14,.7-.17,.42-.18,.92-.39,1.2-.72,.3-.32,.48-.66,.53-1.04,.02,.34,0,.09,0,.16h0s0-.03,0-.03v-.04s0-.07,0-.07v-.14s-.03-.28-.03-.28c0-.12-.02-.16-.04-.17-.02-.02-.03-.05-.03-.08,0-.05-.04-.14-.11-.24-.06-.09-.09-.21-.19-.29-.27-.41-.77-.68-1.25-.92-.51-.18-1.06-.31-1.58-.27-.15,0-.34,0-.46,.02l-.32,.07c-.21,.02-.43,.13-.64,.2-.85,.35-1.26,.99-1.36,1.4-.09,.2-.07,.38-.08,.49-.01,.11-.02,.17-.02,.17v-.13Z"/>
          </g>
          <g>
            <path d="M239.77,58.04c0-2.42,1.61-4.51,4.19-4.51s4.14,2,4.14,4.5c0,1.26-.42,2.5-1.33,3.38l1.08,1.33-.71,.58-1.09-1.35c-.68,.4-1.34,.58-2.13,.58-2.52,0-4.14-2.03-4.14-4.5Zm1.03-.01c0,1.83,1.12,3.59,3.13,3.59,.53,0,1.06-.13,1.51-.4l-1.58-1.94,.71-.58,1.57,1.94c.65-.73,.92-1.66,.92-2.62,0-1.85-1.1-3.57-3.13-3.57s-3.13,1.69-3.13,3.57Z"/>
            <path d="M249.51,56.1h.96v3.51c0,1.02,.48,1.98,1.63,1.98s1.63-.91,1.63-1.98v-3.51h.96v3.5c0,1.58-.9,2.87-2.61,2.87s-2.57-1.22-2.57-2.87v-3.5Z"/>
            <path d="M256.03,60.55c0-1.42,1.29-1.99,2.55-1.99,.53,0,1.2,.12,1.67,.35v-.46c0-.95-.55-1.68-1.56-1.68-.7,0-1.32,.35-1.59,1.01l-.84-.29c.35-1.03,1.42-1.56,2.45-1.56,1.51,0,2.47,1.01,2.47,2.54v3.81h-.84l-.06-.96c-.4,.77-1.19,1.14-2.03,1.14-1.14,0-2.22-.66-2.22-1.92Zm.97-.04c0,.79,.71,1.15,1.43,1.15,1.01,0,1.82-.74,1.82-1.79v-.23c-.5-.2-1.02-.33-1.56-.33-.76,0-1.69,.29-1.69,1.2Z"/>
            <path d="M262.81,56.1h.86l.05,.98c.4-.76,1.16-1.16,2-1.16,1.59,0,2.33,1.25,2.33,2.75v3.62h-.96v-3.56c0-1.02-.4-1.93-1.55-1.93-1.06,0-1.78,.76-1.78,1.82v3.67h-.96v-6.19Z"/>
            <path d="M269.04,56.1h1.14v-2.08h.96v2.08h1.94v.82h-1.94v3.53c0,.62,.25,1.16,.95,1.16,.32,0,.7-.11,.97-.29l.29,.74c-.41,.29-.85,.41-1.34,.41-1.2,0-1.82-.79-1.82-1.98v-3.57h-1.14v-.82Z"/>
            <path d="M274.17,60.98l.86-.31c.3,.59,.83,.96,1.5,.96,.61,0,1.33-.31,1.33-1.02,0-.52-.37-.85-1.13-1.01l-.47-.1c-.95-.19-1.92-.62-1.92-1.74,0-1.22,1.04-1.85,2.18-1.85,1.01,0,1.86,.49,2.22,1.48l-.86,.29c-.13-.3-.31-.53-.54-.7-.24-.16-.52-.24-.83-.24-.55,0-1.21,.28-1.21,.92s.71,.88,1.25,.97l.47,.1c.96,.19,1.82,.68,1.82,1.78,0,1.27-1.13,1.95-2.31,1.95-1.02,0-1.97-.5-2.36-1.49Z"/>
            <path d="M283.23,54.95c-.35,0-.66-.31-.66-.66s.3-.66,.66-.66,.66,.28,.66,.66c0,.36-.3,.66-.66,.66Zm.48,7.34h-.96v-6.19h.96v6.19Z"/>
            <path d="M284.99,60.98l.86-.31c.3,.59,.83,.96,1.5,.96,.61,0,1.33-.31,1.33-1.02,0-.52-.37-.85-1.13-1.01l-.47-.1c-.95-.19-1.92-.62-1.92-1.74,0-1.22,1.04-1.85,2.18-1.85,1.01,0,1.86,.49,2.22,1.48l-.86,.29c-.13-.3-.31-.53-.54-.7-.24-.16-.52-.24-.83-.24-.55,0-1.21,.28-1.21,.92s.71,.88,1.25,.97l.47,.1c.96,.19,1.82,.68,1.82,1.78,0,1.27-1.13,1.95-2.31,1.95-1.02,0-1.97-.5-2.36-1.49Z"/>
            <path d="M293.57,56.1h.86l.06,1.15c.31-.77,.91-1.24,1.75-1.24,.13,0,.26,.01,.37,.02,.11,.02,.19,.05,.28,.08l-.12,.91c-.18-.07-.37-.08-.56-.08-1.15,0-1.68,1-1.68,2.05v3.29h-.96v-6.19Z"/>
            <path d="M297.75,59.21c0-1.71,1.13-3.27,2.96-3.27,1.71,0,2.84,1.36,2.84,3.06v.4h-4.81c.1,1.2,.77,2.23,2.1,2.23,.76,0,1.37-.32,1.78-.97l.82,.37c-.5,.96-1.5,1.45-2.57,1.45-1.86,0-3.12-1.4-3.12-3.26Zm2.96-2.46c-1.08,0-1.75,.89-1.92,1.9h3.75c-.1-1.01-.73-1.9-1.83-1.9Z"/>
            <path d="M304.63,60.55c0-1.42,1.29-1.99,2.55-1.99,.53,0,1.2,.12,1.67,.35v-.46c0-.95-.55-1.68-1.56-1.68-.7,0-1.32,.35-1.59,1.01l-.84-.29c.35-1.03,1.42-1.56,2.45-1.56,1.51,0,2.47,1.01,2.47,2.54v3.81h-.84l-.06-.96c-.4,.77-1.19,1.14-2.03,1.14-1.14,0-2.22-.66-2.22-1.92Zm.97-.04c0,.79,.71,1.15,1.43,1.15,1.01,0,1.82-.74,1.82-1.79v-.23c-.5-.2-1.02-.33-1.56-.33-.76,0-1.69,.29-1.69,1.2Z"/>
            <path d="M311.41,62.29v-8.9h.96v8.9h-.96Z"/>
            <path d="M235.47,78.29v-8.9h.96v8.9h-.96Z"/>
            <path d="M238.59,70.95c-.35,0-.66-.31-.66-.66s.3-.66,.66-.66,.66,.28,.66,.66c0,.36-.3,.66-.66,.66Zm.48,7.34h-.96v-6.19h.96v6.19Z"/>
            <path d="M240.11,72.1h1.14v-.58c0-1.25,.68-2.25,2.04-2.25,.43,0,.82,.11,1.16,.31l-.28,.74c-.26-.13-.54-.22-.83-.22-.88,0-1.14,.67-1.14,1.44v.55h1.96v.82h-1.96v5.37h-.96v-5.37h-1.14v-.82Z"/>
            <path d="M244.98,75.21c0-1.71,1.13-3.27,2.96-3.27,1.71,0,2.84,1.36,2.84,3.06v.4h-4.81c.1,1.2,.77,2.23,2.1,2.23,.76,0,1.37-.32,1.78-.97l.82,.37c-.5,.96-1.5,1.45-2.57,1.45-1.86,0-3.12-1.4-3.12-3.26Zm2.96-2.46c-1.08,0-1.75,.89-1.92,1.9h3.75c-.1-1.01-.73-1.9-1.83-1.9Z"/>
            <path d="M254.78,72.1h.86l.05,.95c.38-.74,1.09-1.13,1.92-1.13,.94,0,1.64,.5,1.98,1.37,.35-.88,1.19-1.37,2.12-1.37,1.57,0,2.25,1.22,2.25,2.7v3.67h-.96v-3.61c0-.97-.32-1.88-1.45-1.88-1,0-1.7,.78-1.7,1.78v3.72h-.96v-3.61c0-.98-.36-1.88-1.47-1.88-1.01,0-1.68,.78-1.68,1.78v3.72h-.96v-6.19Z"/>
            <path d="M265.31,76.55c0-1.42,1.29-1.99,2.55-1.99,.53,0,1.2,.12,1.67,.35v-.46c0-.95-.55-1.68-1.56-1.68-.7,0-1.32,.35-1.59,1.01l-.84-.29c.35-1.03,1.42-1.56,2.45-1.56,1.51,0,2.47,1.01,2.47,2.54v3.81h-.84l-.06-.96c-.4,.77-1.19,1.14-2.03,1.14-1.14,0-2.22-.66-2.22-1.92Zm.97-.04c0,.79,.71,1.15,1.43,1.15,1.01,0,1.82-.74,1.82-1.79v-.23c-.5-.2-1.02-.33-1.56-.33-.76,0-1.69,.29-1.69,1.2Z"/>
            <path d="M271.44,72.1h1.14v-2.08h.96v2.08h1.94v.82h-1.94v3.53c0,.62,.25,1.16,.95,1.16,.32,0,.7-.11,.97-.29l.29,.74c-.41,.29-.85,.41-1.34,.41-1.2,0-1.82-.79-1.82-1.98v-3.57h-1.14v-.82Z"/>
            <path d="M276.98,78.29v-8.9h.96v3.61c.4-.72,1.15-1.08,1.96-1.08,1.59,0,2.33,1.25,2.33,2.75v3.62h-.96v-3.56c0-1.02-.4-1.93-1.55-1.93-1.06,0-1.78,.76-1.78,1.82v3.67h-.96Z"/>
            <path d="M283.45,76.98l.86-.31c.3,.59,.83,.96,1.5,.96,.61,0,1.33-.31,1.33-1.02,0-.52-.37-.85-1.13-1.01l-.47-.1c-.95-.19-1.92-.62-1.92-1.74,0-1.22,1.04-1.85,2.18-1.85,1.01,0,1.86,.49,2.22,1.48l-.86,.29c-.13-.3-.31-.53-.54-.7-.24-.16-.52-.24-.83-.24-.55,0-1.21,.28-1.21,.92s.71,.88,1.25,.97l.47,.1c.96,.19,1.82,.68,1.82,1.78,0,1.27-1.13,1.95-2.31,1.95-1.02,0-1.97-.5-2.36-1.49Z"/>
            <path d="M291.41,72.1h1.06l1.98,5.08,1.79-5.08h1.02l-2.76,7.16c-.34,.9-.9,1.59-1.93,1.59-.36,0-.6-.06-.91-.23l.28-.77c.18,.1,.38,.14,.59,.14,.61,0,.94-.44,1.14-.97l.32-.8-2.57-6.13Z"/>
            <path d="M298.01,76.55c0-1.42,1.29-1.99,2.55-1.99,.53,0,1.2,.12,1.67,.35v-.46c0-.95-.55-1.68-1.56-1.68-.7,0-1.32,.35-1.59,1.01l-.84-.29c.35-1.03,1.42-1.56,2.45-1.56,1.51,0,2.47,1.01,2.47,2.54v3.81h-.84l-.06-.96c-.4,.77-1.19,1.14-2.03,1.14-1.14,0-2.22-.66-2.22-1.92Zm.97-.04c0,.79,.71,1.15,1.43,1.15,1.01,0,1.82-.74,1.82-1.79v-.23c-.5-.2-1.02-.33-1.56-.33-.76,0-1.69,.29-1.69,1.2Z"/>
            <path d="M304.49,76.55c0-1.42,1.29-1.99,2.55-1.99,.53,0,1.2,.12,1.67,.35v-.46c0-.95-.55-1.68-1.56-1.68-.7,0-1.32,.35-1.59,1.01l-.84-.29c.35-1.03,1.42-1.56,2.45-1.56,1.51,0,2.47,1.01,2.47,2.54v3.81h-.84l-.06-.96c-.4,.77-1.19,1.14-2.03,1.14-1.14,0-2.22-.66-2.22-1.92Zm.97-.04c0,.79,.71,1.15,1.43,1.15,1.01,0,1.82-.74,1.82-1.79v-.23c-.5-.2-1.02-.33-1.56-.33-.76,0-1.69,.29-1.69,1.2Z"/>
            <path d="M311.27,72.1h.86l.06,1.15c.31-.77,.91-1.24,1.75-1.24,.13,0,.26,.01,.37,.02,.11,.02,.19,.05,.28,.08l-.12,.91c-.18-.07-.37-.08-.56-.08-1.15,0-1.68,1-1.68,2.05v3.29h-.96v-6.19Z"/>
            <path d="M315.61,77.61c0-.4,.3-.72,.71-.72,.26,0,.48,.13,.62,.35,.06,.11,.1,.24,.1,.37s-.04,.25-.1,.36c-.14,.23-.35,.36-.62,.36-.38,0-.71-.34-.71-.72Z"/>
          </g>
        </g>
      </g>
    </g>
  </g>
</svg>