<?xml version="1.0" encoding="UTF-8"?>
<svg id="Layer_2" data-name="Layer 2" xmlns="http://www.w3.org/2000/svg" viewBox="0 0 768 384">
  <g id="Layer_1-2" data-name="Layer 1">
    <g>
      <rect width="768" height="382.52" style="fill: #ffebdc;"/>
      <g>
        <g>
          <polygon points="625.05 243.78 646.82 305.24 633.82 305.24 615.31 271.19 625.05 243.78" style="fill: #8a1f52;"/>
          <path d="M633.15,196.78h4.26c2.48,0,4.23,2.42,3.46,4.78l-32.79,99.47c-.83,2.52-3.18,4.22-5.84,4.22h-160.88c-3.24,0-5.87-2.63-5.87-5.87h0l197.66-102.6Z" style="fill: #d74962;"/>
          <polygon points="633.15 196.78 599.68 299.38 435.49 299.38 480.02 195.58 633.15 196.78" style="fill: #8a1f52;"/>
        </g>
        <g>
          <g>
            <g>
              <g>
                <path d="M344.79,155.21c1.52,.66,2.91,1.44,3.93,2.08,5.64,3.53,7.83,8.14,11.21,13.58,3.91,6.3,7.82,12.59,11.73,18.89,2.19,3.52,4.38,7.06,5.86,10.93,1.19,3.12,1.58,6.38,1.09,9.69-.14,.92-.34,1.89-.05,2.77,.25,.77,.82,1.38,1.35,1.99,3.41,3.96,5.22,9.26,4.97,14.48-.05,1.07-.18,2.16,.09,3.19,.33,1.22,1.19,2.21,2.03,3.15,.8-.17,1.63-.29,2.37-.61,.77-.33,1.49-.76,2.29-1.03,5.97-1.96,12.02-3.71,18.03-5.54,12.03-3.64,24.09-7.17,36.23-10.44,.34-.09,.28,9.96,.5,11.09,.87,4.47,3.59,9.07,6.22,12.72-18.12,9.59-36.38,18.91-54.78,27.96-6.77,3.33-15.6,9.92-23.35,9.7-2.78-.08-5.22-.91-7.9-1.31-3.12-.47-5.83-.94-8.68-2.45-3.31-1.76-6.21-4.18-9.08-6.58-2.66-2.22-5.59-5.08-5.14-8.52,.26-2.02,1.7-4,1.02-5.92-.37-1.03-1.27-1.76-2.11-2.47-8.69-7.29-14.38-17.64-17.86-28.44-3.86-12.02-7.12-26.21-5.1-38.71,1.39-8.56,4.79-16.84,10.04-23.75,1.77-2.33,4.61-6.7,7.45-7.67,2.12-.72,5.06,.08,7.64,1.21Z" style="fill: #d74962;"/>
                <path d="M372.53,252.13c-.59,1.22-1.52,2.71-2.85,2.45-1.39-.27-1.64-2.19-1.23-3.55,.62-2.02,1.96-3.74,3.41-5.29,4.04-4.32,9.33-8.03,15.01-9.82-2.25,2.47-5.37,4.11-7.71,6.58-2.69,2.84-4.94,6.1-6.63,9.62Z" style="fill: #8a1f52;"/>
                <path d="M370.99,267.56c2.08,1.32,3.65,3.43,4.3,5.81-.35-1.26-2.85-2.68-3.91-3.25-1.55-.85-3.28-1.39-5.04-1.58-.63-.07-3.2,.35-3.23-.39-.03-.75,2-1.61,2.52-1.79,1.8-.61,3.82,.22,5.36,1.19Z" style="fill: #8a1f52;"/>
                <path d="M374.62,213.37c.66-.35,3.06-1.47,3.65-.6,.58,.85-1.12,2.21-1.63,2.64-1.78,1.46-3.44,3.06-4.97,4.78-1.43,1.61-2.54,3.42-3.86,5.08-.36,.45-.89,.95-1.42,.73-.32-.13-.5-.51-.49-.86,0-.35,.15-.68,.31-.99,1.07-2.1,2.7-3.84,4.32-5.55-1.33-.09-2.66,.22-3.96,.52-1.3,.29-2.64,.57-3.97,.42-1.33-.16-2.66-.82-3.29-2-.23-.44-.36-.96-.2-1.43,.23-.65,.96-1.01,1.65-1.03s1.35,.21,2.01,.41c2.83,.84,5.97,.97,8.65-.28,1.11-.52,2.11-1.26,3.2-1.84Z" style="fill: #8a1f52;"/>
                <path d="M343.68,252.15c-.35-.87,.05-2.11,.98-2.26,.73-.12,1.37,.44,1.94,.92,1.94,1.62,4.36,2.67,6.87,2.98,.6,.07,1.23,.11,1.75,.41,.53,.3,.91,.96,.66,1.52-.23,.54-.9,.72-1.49,.75-1.3,.08-2.58-.23-3.88-.3-1.3-.07-2.71,.16-3.61,1.1-.22,.23-.41,.51-.69,.68-.28,.17-.68,.19-.89-.07-.27-.35,.03-.83,.23-1.23,1.18-2.33-1.18-2.8-1.88-4.52Z" style="fill: #8a1f52;"/>
              </g>
              <path d="M416.03,223.47c-.09,2.39,.04,4.81,.75,7.09s2.06,4.42,4.05,5.75c1.97,1.32,4.4,1.75,6.77,1.97,4.74,.43,9.55,.11,14.19-.95-4.47,1.58-8.95,3.15-13.42,4.73-.77,.27-1.6,.58-2.06,1.26-.68,.99-.32,2.32,.07,3.46,.78,2.32,1.56,4.64,2.34,6.96,.26,.78,.58,1.64,1.31,2.04,.88,.49,1.98,.1,2.91-.29,3.31-1.39,6.63-2.78,9.94-4.16,3.4-1.42,6.96-2.97,9.2-5.89,2.65-3.45,2.93-8.1,3.05-12.45,.09-3.52,.12-7.16-1.21-10.42-1.53-3.75-5.85-7.41-10.1-6.8-5.9,.86-11.88,3.23-17.63,4.84-.95,.27-10.13,2.36-10.15,2.85Z" style="fill: #fff;"/>
              <path d="M456.75,242c3.47-2.73,6.7-5.76,9.63-9.05,1.64-1.83,2.75-4.29,3.72-6.56,1.12-2.62,1.85-5.4,2.13-8.23,.26-2.6,.13-5.36-1.18-7.63-1.63-2.83-4.93-4.45-8.2-4.52-3.26-.07-6.44,1.25-9.06,3.21-2.61,1.95-4.72,4.51-6.63,7.14-1.73,2.38-3.33,4.85-4.79,7.4-.64,1.11-1.19,2.04-1.98,3-.73,.9-.99,2.16-.83,3.3,.21,1.53,1.07,2.9,2.03,4.11s2.06,2.32,2.9,3.62c.96,1.49,1.53,3.2,2.03,4.9,.24,.84,.49,1.72,1.1,2.35,.8,.82,2.09,.99,3.2,.71,1.11-.28,2.08-.93,3.02-1.59,.98-.7,1.95-1.43,2.9-2.17Z" style="fill: #d79e89;"/>
              <path d="M342.37,148.68c16.05,9.15,28.86,23.85,35.74,41,1.11,2.78,2.09,5.82,1.34,8.72-.7,2.71-2.83,4.84-5.19,6.35-4.09,2.6-9,3.67-13.85,3.79-4.84,.11-9.66-.68-14.43-1.55-2.74-.5-5.64-1.12-7.6-3.1-1.71-1.73-2.38-4.21-2.88-6.6-2.63-12.48-2.39-25.55,.68-37.92,.76-3.05,1.8-6.24,4.21-8.26l1.96-2.41Z" style="fill: #8a1f52;"/>
            </g>
            <g>
              <path d="M610.58,202.13h6.22c3.25,0,5.54,3.21,4.46,6.28l-31.27,86.9-23.39-4.12,43.98-89.06Z" style="fill: #d79e89;"/>
              <g>
                <path d="M610.84,189.87c-.81,.75,.37,5.68,.59,6.6,.56,2.4,1.51,4.72,2.8,6.82,.78,1.28,1.71,2.54,1.93,4.02,.15,1.05-.07,2.11-.3,3.14-2.34,10.48-6.31,20.17-9.94,30.21-3.62,9.99-7.54,19.89-12.19,29.45-3.89,8-5.37,14.62-10.47,21.91-12.95-10.03-35.25-8.58-50.2-3.68-2.82,.92-5.6,2.04-8.52,2.59-3.48,.66-7.6,.69-9.91-2.34-1-1.32-1.44-2.87-1.61-4.5-.07-.66-.5-4,.01-4.43,.61-.52,1.21-1.03,1.82-1.55,0,0,95.97-88.22,95.99-88.24Z" style="fill: #cdcee9;"/>
                <path d="M559.92,186.54c1.94-.71,3.96-1.19,6.03-1.41,15.34-1.57,29.47,10.94,44.64,4.51-.86,.36-1.52,10.5-1.76,11.87-.76,4.35-1.64,8.69-2.64,12.99-2,8.61-4.47,17.11-7.41,25.45-2.71,7.7-5.49,15.5-8.75,22.99-.8,1.84-10.75,21.63-11.47,21.18-7.62-4.78-16.76-6.75-25.76-6.8-7.66-.04-15.27,1.26-22.7,3.05-3.03,.73-5.83,1.76-8.82,2.58-2.03,.56-5.22,1.25-6.64-.86-.57-.85-.52-1.96-.44-2.98,.68-9.05,1.12-17.64,3.5-26.46,4.18-15.57,10.94-30.39,19.39-44.1,3.37-5.47,7.06-10.83,11.8-15.16,3.21-2.93,6.96-5.38,11.02-6.86Z" style="fill: #fff;"/>
              </g>
              <g>
                <path d="M518.18,267.1c-1.06,4.81-3.08,9.46-3.04,14.45,.02,1.97,.36,3.95,.16,5.91-.3,2.89-2.77,2.68-5.27,2.56-2.71-.14-5.35-.9-7.9-1.8-3.98-1.4-7.93-3.13-12.14-3.36-5.74-.31-11.19,2.22-16.7,3.88-5.47,1.65-11.18,2.48-16.89,2.45-1.82-.01-3.71-.12-5.33-.95-2.16-1.1-3.4-3.23-4.4-5.34-.99-2.09-2.45-3.89-3.66-5.88,4.39-10.45,10.58-21.09,18.72-28.98,8.14-7.89,18.41-13.76,29.56-15.79,4.77-.87,9.84-1.01,14.3,.9,5.77,2.47,9.74,8.17,11.29,14.26,1.34,5.28,2.54,11.09,1.55,16.52-.07,.4-.15,.8-.24,1.19Z" style="fill: #cdcee9;"/>
                <path d="M513.54,282.58c1.79-.7,2.41-2.95,2.75-4.88,1.14-6.36,1.77-12.96,4.24-18.92,2.58-6.23,5.06-12.45,8.05-18.5,5.81-11.78,12.91-22.55,20.47-33.26,1.14-1.52,2.37-3.23,2.15-5.12-.14-1.24-.89-2.31-1.67-3.28-7.95-9.97-19.47-16.2-32.54-14.79-7.61,.82-14.72,4.09-22.14,6-7.42,1.9-15.91,2.24-22.11-2.26-14.82,28.53-25,59.46-30.01,91.21,9.03,2.83,18.78,3.33,28.05,1.45,6.41-1.3,12.63-3.72,19.16-4.08,6.43-.36,12.96,1.37,18.37,4.86,1.55,1,3.32,2.19,5.07,1.61,.05-.02,.1-.03,.15-.05Z" style="fill: #fff;"/>
              </g>
              <path d="M514.52,283.58c-1.59-15.85,1.85-31.91,7.9-46.64,3.09-7.53,6.86-14.76,11-21.77,3.76-6.36,7.62-13.25,12.3-18.94-3.92,10.47-9.7,20.46-14.07,30.78-4.97,11.73-9.43,23.7-12.77,36.01-.94,3.46-1.79,6.94-2.53,10.45-.63,2.96-2.15,7.09-1.84,10.11Z" style="fill: #cdcee9;"/>
              <g>
                <path d="M567.84,204.56c4.01,1.16,7.61,3.47,11.56,4.81,6.14,2.08,13.08,1.67,18.93-1.11-2.15,1.77-4.38,3.47-6.88,4.68-2.5,1.22-5.31,1.93-8.07,1.63-4.05-.44-7.51-2.95-11.18-4.71-8.71-4.18-19.35-4.08-27.98,.25,.7-.82,1.52-.99,2.44-1.4,.9-.39,1.68-1.02,2.53-1.51,1.89-1.09,3.92-1.94,6.02-2.53,4.1-1.15,8.51-1.29,12.62-.1Z" style="fill: #080a40;"/>
                <path d="M563.17,218.84c4.01,1.16,7.61,3.47,11.56,4.81,6.14,2.08,13.08,1.67,18.93-1.11-2.15,1.77-4.38,3.47-6.88,4.68-2.5,1.22-5.31,1.93-8.07,1.63-4.05-.44-7.51-2.95-11.18-4.71-8.71-4.18-19.35-4.08-27.98,.25,.7-.82,1.52-.99,2.44-1.4,.89-.39,1.68-1.02,2.53-1.51,1.89-1.09,3.92-1.94,6.02-2.53,4.1-1.15,8.51-1.29,12.62-.1Z" style="fill: #080a40;"/>
                <path d="M556.28,237.4c4.01,1.16,7.61,3.47,11.56,4.81,6.14,2.08,13.08,1.67,18.93-1.11-2.15,1.77-4.38,3.47-6.88,4.68-2.5,1.22-5.31,1.93-8.07,1.63-4.05-.44-7.51-2.95-11.18-4.71-8.71-4.18-19.35-4.08-27.98,.25,.7-.82,1.52-.99,2.44-1.4,.89-.39,1.68-1.02,2.53-1.51,1.89-1.09,3.92-1.94,6.02-2.53,4.1-1.15,8.51-1.29,12.62-.1Z" style="fill: #080a40;"/>
                <path d="M539.13,253.3c3.96,.36,7.59,2.22,11.23,3.83,3.89,1.72,7.93,3.19,12.14,3.73,4.21,.54,8.64,.1,12.42-1.84-3.29,4.27-8.97,6.55-14.29,5.74-8.02-1.22-14.22-8.65-22.31-9.19-1.93-.13-3.87,.17-5.68,.84-1.33,.49-2.59,1.66-3.88,2,1.28-3.86,6.84-5.43,10.38-5.11Z" style="fill: #080a40;"/>
              </g>
              <g>
                <path d="M512.38,200.61c-4.57-.43-9.12,.75-13.48,2.2-4.35,1.45-8.65,3.18-13.18,3.89s-9.44,.3-13.25-2.26c3.34,3.53,8.53,4.77,13.38,4.54,4.86-.23,9.54-1.74,14.26-2.92s9.67-2.06,14.41-1.01c2.86,.63,5.51,1.94,7.95,3.53,.56,.36,5.04,4.1,5.39,3.77,1.64-1.48-5.71-7.97-6.65-8.59-2.64-1.74-5.7-2.85-8.85-3.15Z" style="fill: #080a40;"/>
                <path d="M503.04,220.22c-4.57-.43-9.12,.75-13.48,2.2-4.35,1.45-8.65,3.18-13.18,3.89-4.53,.71-9.44,.3-13.25-2.26,3.34,3.53,8.53,4.77,13.38,4.54,4.86-.23,9.54-1.74,14.26-2.92,4.71-1.19,9.67-2.06,14.41-1.01,2.86,.63,5.51,1.94,7.95,3.53,.56,.36,5.04,4.1,5.39,3.77,1.64-1.48-5.71-7.97-6.65-8.59-2.64-1.74-5.7-2.85-8.85-3.15Z" style="fill: #080a40;"/>
                <path d="M497.2,240c-4.57-.43-9.12,.75-13.48,2.2-4.35,1.45-8.65,3.18-13.18,3.89-4.53,.71-9.44,.3-13.25-2.26,3.34,3.53,8.53,4.77,13.38,4.54,4.86-.23,9.54-1.74,14.26-2.92,4.71-1.19,9.67-2.06,14.41-1.01,2.86,.63,5.51,1.94,7.95,3.53,.56,.36,5.04,4.1,5.39,3.77,1.64-1.48-5.71-7.97-6.65-8.59-2.64-1.74-5.7-2.85-8.85-3.15Z" style="fill: #080a40;"/>
                <path d="M495.1,256.54c-3.48-.19-6.94,.59-10.36,1.37-4.23,.96-8.47,1.93-12.7,2.89-2.03,.46-4.08,.93-6.15,.82-2.07-.1-4.18-.83-5.66-2.46,1.86,3.27,5.34,5.03,8.78,5.37,3.44,.33,6.87-.58,10.18-1.68,3.31-1.1,6.59-2.39,10.02-2.84,6.64-.88,13.57,1.61,18.53,6.65-.8-.81-1.57-3.07-2.25-4.15-.55-.88-.96-1.78-1.68-2.52-2.27-2.34-5.72-3.28-8.71-3.45Z" style="fill: #080a40;"/>
              </g>
            </g>
            <path d="M456.99,227.54c-.88,1.17-1.88,2.28-3.05,3.3-2.47,2.14-5.55,3.82-8.82,3.76-3.27-.07-6.62-2.33-7.1-5.56-.26-1.71,.29-3.46,1.1-4.99,.81-1.53,1.88-2.91,2.79-4.38,1.7-2.77,2.82-5.85,4.28-8.75,1.45-2.9,3.34-5.73,6.11-7.43,1.48-.91,3.15-1.46,4.8-2,3.15-1.03,6.3-2.07,9.45-3.1,2.96-.97,6.08-1.73,8.83-3.19,.43-.23,.92-.47,1.39-.33,.49,.15,.78,.68,.79,1.18,.02,.51-.18,.99-.4,1.45-2.21,4.69-6.61,8.28-11.64,9.52-.94,.23-1.99,.45-2.54,1.24-.57,.84-.34,1.96-.18,2.97,.46,3.01-.08,6.16-1.46,8.87-1.35,2.65-2.64,5.18-4.35,7.46Z" style="fill: #f0c1a5;"/>
          </g>
          <path d="M339,152.11c-66.57,58.14-185.83-31.79-122.29-51.61-8.8-11.65,4.07-28.55,17.63-23.18,11.54-28.7,54.27-49.28,80.52-28.61,18.45,11.5,24.35,36.51,14.78,55.75,11.72,2.86,16.94,23.53,1.29,22.99,8.25,5.12,14.65,15.68,8.07,24.65Z" style="fill: #080a40;"/>
          <g>
            <path d="M203.6,152.42c-.21,.35-.41,.72-.6,1.08-3.83,7.31-3.45,16.12-1.79,24.2,1.74,8.49,4.6,16.34,4.54,25-.05,8.55,2.39,17.93,4.21,26.19,2.09,9.48,4.75,18.6,5.96,28.29,2.39,19.15,1.59,38.69-2.43,57.57,40.08,2.47,80.31,4.94,120.36,1.96,.04,0,.98-5.09,1.03-5.51,1.09-9.95,.26-20.01,.66-30.02,1.45-36.65,19.28-71.57,18.04-108.23-.22-6.55-.02-13.86-4.64-18.84-5.39-5.81-12.64-9.93-19.97-12.75-9.59-3.69-19.82-5.36-29.97-6.98-14.05-2.24-28.2-4.42-42.42-4.09-14.22,.32-28.66,3.28-40.81,10.68-4.81,2.92-9.31,6.63-12.16,11.45Z" style="fill: #8a1f52;"/>
            <path d="M354.15,170.68c1.03,6.59,.78,13.32,.12,19.95-.61,6.08-1.6,12.23-4.35,17.69,.78-1.55,.95-3.82,1.28-5.51,.37-1.89,.68-3.79,.92-5.7,.5-3.9,.73-7.83,.69-11.76-.07-7.78-1.19-15.55-3.32-23.04-.6-2.11-1.29-4.2-2.05-6.26-.56-1.51-1.7-3.28-1.88-4.85,2.06,1.27,3.76,5.06,4.79,7.13,1.92,3.88,3.14,8.08,3.81,12.34Z" style="fill: #d74962;"/>
            <g>
              <path d="M279.56,318.72c7.11-33.99,9.15-68.8,11.16-103.47,1.12-19.27,4.21-44.37-4.44-62.38-.03,5.1,1.22,10.37,1.76,15.46,1.06,9.91,.53,19.72,.09,29.66-1.12,25.59-2.91,51.14-4.93,76.67-1.16,14.69-2.41,29.38-3.65,44.06Z" style="fill: #d74962;"/>
              <path d="M263.82,156.33c4.25,4.64,8.51,9.27,12.76,13.91,1.73,1.89,3.51,3.85,4.34,6.28,.79,2.34,.63,4.88,.45,7.34-3.21,44.67-6.43,89.33-9.64,134-.15-7.02-.46-14.08,0-21.08,2.26-34.73,4.53-69.45,6.79-104.18,.35-5.39,.68-10.98-1.2-16.04-1.6-4.31-4.67-7.89-7.67-11.37-1.82-2.11-10.6-9.73-8.96-12.52,1.15,.86,2.11,2.54,3.15,3.67Z" style="fill: #d74962;"/>
              <path d="M286.45,318.55c13.7-40.46,14.94-84.06,13.02-126.74-.22-4.79-.45-9.71,1.02-14.27,2.65-8.23,10.44-14.08,12.82-22.39-1.11,1.51-3.19,3.25-3.98,4.96-2.37,5.14-8.04,8.14-10.43,13.27-1.76,3.77-1.49,8.13-1.24,12.29,2.63,43.97-1.28,88.33-11.56,131.17" style="fill: #d74962;"/>
            </g>
          </g>
          <g>
            <path d="M294.85,174.18c.68,2.03,1.68,4.29,3.69,4.9,1.15,.35,2.38,.05,3.52-.31,9.75-3.14,17.4-11.94,20-22.08,2.6-10.14,.33-21.34-5.42-30.01-2.27-3.42-5.28-6.63-9.19-7.67-4.13-1.1-8.66,.49-11.78,3.46-9.67,9.22-6.7,26.61-4.37,38.35,.9,4.53,2.09,9,3.56,13.37Z" style="fill: #fff;"/>
            <path d="M232.69,137.53c.15,.87,.37,1.74,.61,2.58,2.72,9.28,9.23,16.86,16.1,23.51,3.93,3.81,8.19,7.51,13.23,9.65,4.59,1.94,8.89,4.09,13.76,5.37,1.53,.4,3.13,.76,4.68,.48,2.59-.47,4.58-2.59,6.05-4.82,4.97-7.53,5.94-17.21,4.07-25.96-.93-4.34-1.47-7.94-3.74-11.88-2.23-3.87-5.09-7.33-8.26-10.42-5.13-5-11.06-9.05-16.95-13.08-1.95-1.33-4.02-2.71-6.36-2.86-2.5-.16-4.86,1.1-6.96,2.5-5.25,3.51-9.8,8.13-13.26,13.49-1.54,2.39-2.9,5.01-3.16,7.86-.11,1.19-.02,2.39,.18,3.57Z" style="fill: #fff;"/>
          </g>
          <g>
            <path d="M258.6,127.4c-3.04-5.19-5.38-10.8-6.89-16.63-5.25-20.22-.81-45.03,17.2-57.61,13.3-9.29,32.11-10.7,45.78-1.38,5.95,4.05,10.44,9.88,13.28,16.46,3.21,7.45,2.3,15.46,.65,23.16-1.38,6.42-4.23,12.53-4.39,19.14-.08,3.39,.09,6.84-.77,10.12-.82,3.15-2.54,5.97-4.24,8.74-3.51,5.72-7.01,11.45-10.52,17.17-2.49,4.06-4.78,5.75-9.42,6.48-4.96,.78-10.1,.03-14.77-1.75-5.74-2.19-10.81-5.9-15.21-10.2-4.16-4.07-7.76-8.7-10.71-13.72Z" style="fill: #f0c1a5;"/>
            <path d="M248.94,88.24c-.61-1.17-1.17-2.42-1.21-3.66-.28-7.32,2.39-15.54,6-21.85,3.55-6.21,8.96-11.49,15.62-14.1,5.31-2.08,11.12-2.41,16.82-2.7-6.37,1.17-11.67,5.48-16.31,10-3.04,2.96-5.97,6.15-7.74,10.01-.55,1.19-.98,2.46-.98,3.77,0,1.31,.5,2.67,1.54,3.47,.69,.54,1.56,.79,2.34,1.2,1.02,.54,1.8,1.41,1.42,2.59-.38,1.18-1.73,1.67-2.85,2.2-3.35,1.61-5.74,5.09-5.98,8.8-.14,2.26,.45,4.49,1.06,6.67,.61,2.18,1.24,4.4,1.15,6.66-.08,2.26-.99,4.62-2.88,5.87-1.89,1.25-4.81,.97-6.02-.94-.87-1.37-.7-3.14-.44-4.75,.34-2.09,.79-4.18,.77-6.29-.01-1.93-.51-3.55-1.4-5.24-.28-.54-.61-1.12-.92-1.71Z" style="fill: #080a40;"/>
            <g>
              <path d="M245.04,118.72c1.64,.2,3.36-.65,4.47-1.92,1.31-1.48,1.94-3.43,2.46-5.34,1.74-6.43,2.75-13.3,2.57-19.98-.08-2.96-.41-6.03-1.96-8.55-1.54-2.52-4.59-4.34-7.46-3.61-1.99,.51-3.53,2.11-4.65,3.84-2.05,3.17-3.03,7-2.77,10.77,.24,3.39,1.44,6.61,2.32,9.86,.43,1.59,.91,3.3,.94,4.95,.03,1.81-.27,3.59,.07,5.43,.34,1.84,1.4,3.71,3.16,4.35,.27,.1,.55,.16,.84,.2Z" style="fill: #f0c1a5;"/>
              <path d="M243.44,91.38c.03-1.15,.4-2.33,1.23-3.13s2.17-1.1,3.17-.53c.86,.5,1.29,1.5,1.51,2.46,.56,2.44,.15,5.09-1.12,7.24-.82,1.39-1.99,2.59-2.58,4.1-.99,2.54,.03,5.71,2.32,7.19-2.06-.39-3.74-2.27-3.89-4.36-.12-1.66,.63-3.27,1.54-4.67s2-2.69,2.7-4.21c.7-1.51,.96-3.36,.16-4.82-.43-.78-1.26-1.43-2.13-1.26-.82,.16-1.35,.96-1.66,1.74-.72,1.82-.76,3.89-.13,5.73-.83-1.37-1.14-3.94-1.1-5.49Z" style="fill: #d79e89;"/>
            </g>
            <g>
              <g>
                <path d="M282.33,124.91c2.11,2.4,4.26,4.82,6.95,6.54,3.07,1.96,6.78,2.9,10.41,2.64,1.39-.1,2.83-.4,3.89-1.3,1.06-.9,1.59-2.54,.86-3.73,.69-.12,1.2-.8,1.29-1.5,.1-.7-.14-1.4-.48-2.03-.84-1.55-2.31-2.75-4-3.24-1.93-.57-4.46-.2-6.32,.57-2.59,1.08-5.07,2.03-7.9,2.26-1.57,.13-3.16,.06-4.71-.22Z" style="fill: #d79e89;"/>
                <path d="M292.69,129.15c3.68,1.89,9.57,2.59,11.64-1.86-5.43,.8-12.5,.1-17.31-2.7,1.06,2.23,3.52,3.55,5.67,4.55Z" style="fill: #fff;"/>
              </g>
              <g>
                <g>
                  <path d="M298.86,124.34c-.76-1.5-1.61-3.67,.43-4.64,.59-.28,1.28-.31,1.93-.2,1.56,.27,2.78,1.37,4,2.31,1.37,1.05,2.66,2.2,4.01,3.27,1.78,1.4,3.7,2.68,5.88,3.32,2.17,.64,4.64,.56,6.57-.62-2.7,2.42-6.07,4.19-9.67,4.55-5.87,.58-10.58-2.93-13.15-7.99Z" style="fill: #080a40;"/>
                  <path d="M289.05,119.23c2.47-.91,7.22-2.04,8.97,.77,.72,1.16,.49,2.33-.26,3.4-.73,1.04-1.94,1.63-3.12,2.12-4.42,1.81-9.33,2.65-14.01,1.71-4.68-.95-9.07-3.85-11.2-8.12,3.02,3,7.68,4.09,11.83,3.13,2.71-.63,5.17-2.03,7.79-2.99Z" style="fill: #080a40;"/>
                </g>
                <g>
                  <path d="M307.95,114.38c.08,.39,.17,.78,.26,1.17,.14,.6,.28,1.25,.03,1.82-.41,.98-1.58,.61-2.4,.7-1.28,.14-2.43,.8-3.56,1.37-1.36,.68-2.92,1.28-4.36,.78-.9-.31-1.58-1.01-2.17-1.73-.52-.63-.96-1.46-1.66-1.9-1.18-.73-2.49-1.26-3.84-1.57-.82-.19-1.72-.33-2.29-.95-.48-.52-.61-1.29-.46-1.98,.14-.69,.53-1.3,.99-1.83,.64-.74,1.44-1.36,2.37-1.68s1.98-.32,2.86,.11c-1.98-.2-4.02,.98-4.85,2.8-.3,.67-.42,1.53,.06,2.08,.37,.43,.98,.54,1.55,.56,2.28,.06,4.46,.63,6.3,2.04,1.01,.77,2.4,1.86,3.75,1.81,.51-.02,.86-.28,1.34-.42,.83-.26,1.76-.33,2.62-.48,.62-.11,1.3-.27,1.65-.78,.38-.57,.21-1.33,.04-1.99-1.94-7.41-1.97-15.3-.1-22.73-.34,7.64,.3,15.32,1.89,22.8Z" style="fill: #d79e89;"/>
                  <path d="M297.15,88.22c.8,7.33,.6,14.77-.59,22.05,1.82-3.44,2.37-7.43,2.21-11.32-.16-3.89-1-7.71-1.83-11.51" style="fill: #d79e89;"/>
                </g>
              </g>
              <g>
                <path d="M295.33,76.52c-1.93-2.03-4.56-3.39-7.34-3.77-2.78-.38-5.68,.21-8.08,1.65-2.56,1.53-4.62,4.01-7.5,4.8,1.44,.72,3.2,.47,4.7-.11,1.51-.58,2.88-1.47,4.39-2.03,3.89-1.46,8.56-.53,11.6,2.3" style="fill: #080a40;"/>
                <path d="M289.19,94.35c-.3,.55-.7,1.05-1.23,1.38-.53,.32-1.21,.44-1.79,.21-.86-.35-1.27-1.34-1.37-2.25-.16-1.5,.32-3.06,1.29-4.21,.46-.55,1.06-1.02,1.77-1.12,2.85-.42,2.11,4.6,1.33,6.01Z" style="fill: #080a40;"/>
                <path d="M275.12,87.74c.26,.17,.53,.32,.71,.57,.33,.46,.2,1.13-.16,1.57-.36,.43-.9,.67-1.44,.86-.51,.17-1.03,.31-1.56,.4-.29,.05-.67,.05-.8-.22-.12-.25,.08-.53,.3-.7,.33-.26,.72-.42,1.06-.66,.34-.24,.64-.6,.65-1.01,0-.51-1.35-1.84-.8-2.24,.43-.32,1.71,1.23,2.06,1.45Z" style="fill: #d79e89;"/>
                <path d="M292.06,91.62c-.1,.27-.27,.6-.56,.57-.18-.02-.32-.2-.36-.38-.04-.18,0-.37,.02-.55,.19-1.4-.32-2.87-1.33-3.86-.17-.16-.37-.36-.32-.59,.04-.19,.23-.31,.41-.38,.78-.31,1.72-.18,2.38,.33,.6,.47,1.09,1.34,.82,2.1-.34,.92-.74,1.83-1.07,2.77Z" style="fill: #d79e89;"/>
              </g>
              <g>
                <path d="M307.07,89.77c2.13-4.16,7.11-6.64,11.71-5.83,1.45,.26,2.84,.8,4.3,1.06,1.45,.26,3.06,.2,4.26-.66-.89,1.8-2.95,2.68-4.84,2.94-2.57,.36-5.16,.17-7.72,.74-2.54,.56-5.06,1.87-6.36,4.12" style="fill: #080a40;"/>
                <path d="M317.96,100.57c-.3,.55-.7,1.05-1.23,1.38-.53,.32-1.21,.44-1.79,.21-.86-.35-1.27-1.34-1.37-2.25-.16-1.5,.32-3.06,1.29-4.21,.46-.55,1.06-1.02,1.77-1.12,2.85-.42,2.11,4.6,1.33,6.01Z" style="fill: #080a40;"/>
                <path d="M319.81,100.17c.12,.47,.57,.78,.99,1.03,.5,.29,1.01,.57,1.52,.84,.22,.11,.44,.22,.69,.24s.51-.09,.62-.3c.16-.33-.11-.73-.44-.89-.33-.17-.71-.2-1.04-.36-.33-.16-.62-.54-.48-.88,.14-.33,4.07-1.35,1.74-1.73-1.1-.18-4.02,.45-3.61,2.06Z" style="fill: #d79e89;"/>
                <path d="M311.17,92.28c-.43,.7-.57,1.54-.71,2.34-.05,.27-.14,.58-.4,.65-.28,.07-.52-.2-.63-.46-.44-1.02-.04-2.18,.36-3.22,.17-.43,.35-.89,.73-1.17,.45-.34,3.08-.48,3.07,.41,0,.33-.74,.3-.98,.36-.61,.16-1.11,.55-1.44,1.09Z" style="fill: #d79e89;"/>
              </g>
              <path d="M286.74,147.6c5.58,.24,7.19-4.76,8.05-9.12,4.96-2.07,2.55,5.41,3.53,7.81,4.23,7.17,17.69-11.73,19.92-15.7-1.89,7.28-22.64,38.29-30.68,29.05-11.12-12.23-28.41-21.24-31.95-38.64,7.23,11.71,16.56,24.31,31.14,26.6Z" style="fill: #080a40;"/>
            </g>
            <path d="M323,67.21c.03,12.13-13.89,1.14-11.26-6.04,2.91-7.69,10.93,1.13,11.26,6.04Z" style="fill: #f0d8c9;"/>
          </g>
          <g>
            <g>
              <path d="M295.15,224.48c4.61,2.54,10.26,3.13,15.3,1.61,1.03-.31,2.17-.7,3.13-.21,.85,.43,1.26,1.48,1.15,2.42s-.65,1.79-1.31,2.47c-1.49,1.56-3.56,2.45-5.65,3.01-4.19,1.12-8.68,1.08-12.85-.11" style="fill: #d79e89;"/>
              <g>
                <path d="M322.03,265.63c.2,.36,.55,.66,.96,.67,.6,.01,1.04-.57,1.23-1.14,.25-.76,.19-1.53-.05-2.28-.24-.75-.34-1.53-.59-2.28-.55-1.62-1.47-3.11-2.55-4.44-1.27-1.56-2.75-2.93-4.15-4.37-.73-.76-1.25-1.71-2.04-2.42-1.45-1.29-.63,1.01-.18,1.67,1.42,2.09,2.95,4.09,4.26,6.25,1.3,2.16,2.38,4.5,2.77,6.99,.07,.43,.12,.88,.31,1.27,.01,.02,.02,.05,.04,.07Z" style="fill: #080a40;"/>
                <path d="M294.98,196.97c-.46-.72-1-1.48-1.79-1.72-1.58-.5-2.97,1.31-3.3,3-.33,1.69-.17,3.56-1.06,5-.22-6.91-3.26-13.67-8.19-18.28-.97-.9-2.11-1.77-3.4-1.78-1.67-.02-3.08,1.43-3.64,3.08-.56,1.64-.46,3.45-.34,5.19-4.45-8.51-12.49-14.88-21.51-17.04-1.85-.44-3.81-.72-5.64-.2-1.83,.51-3.53,1.96-3.91,3.91-.41,2.12,.76,4.2,1.9,6.02,4.52,7.16,8.89,15.3,16.47,19.15-1.76-.33-3.59-.66-5.32-.19-6.12,1.68,.34,7.83,3.28,9.32,3.04,1.55,6.45,2.04,9.8,2.51-1.58,.58-3.32,.33-5,.42-1.68,.1-3.54,.73-4.22,2.34-.58,1.37-.06,3.05,.9,4.17,.97,1.12,2.3,1.79,3.61,2.41,10.25,4.81,21.35,7.77,32.34,10.3,.53,.12,1.06,.25,1.59,.37,1.36,.31,2.85,.61,4.09-.03,.84-.43,1.43-1.25,1.76-2.13s.43-1.84,.48-2.78c.35-5.95-.84-11.86-2.2-17.62-.63-2.69-1.34-5.1-2.49-7.64-1.15-2.54-2.46-5-3.95-7.36-.09-.14-.18-.28-.27-.42Z" style="fill: #cdcee9;"/>
                <path d="M316.17,251.82c1.86,2.01,3.81,3.95,5.9,5.77,0-.78-2.13-2.8-2.64-3.46-8.91-11.63-18.04-23.11-27.85-34-9.95-11.04-20.78-20.88-32.01-30.58-.43-.37-1.02-.77-1.53-.52-.42,.21-.54,.79-.38,1.24,.16,.45,.52,.78,.86,1.11,9.23,8.55,18.58,16.96,27.31,26.03,5.33,5.54,10.51,11.23,15.57,17.01,5,5.71,9.62,11.82,14.77,17.4Z" style="fill: #fff;"/>
              </g>
              <g>
                <path d="M278.3,225.57c1.45-.6,2.91-1.19,4.37-1.77,1.38-.54,2.62-1.25,4.11-1.35,1.49-.09,3.01,.01,4.48,.31,3.83,.77,7.05,3.11,10.15,5.36,1.59,1.15,3.17,2.31,4.87,3.29,1.56,.9,2.86,2.03,4.43,2.91,2.6,1.45,5.29,2.75,8.05,3.87,.72,.29,1.45,.58,2.1,.99,.65,.42,1.23,.99,1.52,1.71,.29,.72,.23,1.6-.25,2.2-.72,.89-2.19,.63-3.17,.43-1.01-.21-1.94-.55-2.95-.77-1.26-.28-2.5-.58-3.75-.91-2.45-.65-4.87-1.4-7.25-2.25,1.07,.54,2.14,1.12,2.96,1.99,.82,.87,1.35,2.1,1.09,3.27-.34,1.53-1.64,1.9-2.99,1.84-1.87-.08-4.37-.16-6.08-.96,1,.76,1.76,1.87,1.95,3.11,.19,1.24-.23,2.59-1.2,3.39-.97,.8-2.47,.93-3.49,.2,.59,.72,1.18,1.45,1.56,2.31,.38,.85,.52,1.85,.17,2.71-.5,1.25-1.91,1.93-3.26,1.98-1.34,.05-2.64-.42-3.91-.88-2.5-.91-5-1.83-7.5-2.74-2.25-.82-3.64-.72-5.91,.14-6.33,2.41-13.21,3.39-19.96,2.86-1.83-.14-1.58-1.18-1.99-2.61-.48-1.67-.95-3.33-1.38-5.01-.87-3.35-1.63-6.74-2.28-10.14-.17-.88-.32-1.83,.05-2.65,.4-.86,1.28-1.36,2.12-1.81,6-3.19,12.11-6.15,18.34-8.88,1.67-.73,3.35-1.45,5.04-2.15Z" style="fill: #f0c1a5;"/>
                <g>
                  <path d="M293.32,231.51c-.23-.15-.5-.31-.75-.22-.29,.1-.4,.47-.31,.77,.09,.29,.32,.51,.55,.72,2,1.79,4.32,3.19,6.72,4.39,1.97,.98,4.36,2.38,6.51,2.79-1.23-1.32-3.39-2.28-4.89-3.27-2.61-1.72-5.22-3.44-7.82-5.17Z" style="fill: #d79e89;"/>
                  <path d="M291.52,241.16c-.28-.12-.62-.23-.87-.05-.23,.17-.25,.52-.11,.77s.38,.42,.61,.57c1.6,1.05,3.3,1.94,5.07,2.66,1.16,.47,3.25,1.57,4.51,1.34-.37-.93-2.24-1.7-3.07-2.19-1.98-1.16-4.03-2.19-6.14-3.1Z" style="fill: #d79e89;"/>
                  <path d="M288.7,248.48c-.11-.03-.22-.06-.33-.02-.21,.08-.25,.39-.12,.58,.13,.19,.35,.28,.57,.36,3.09,1.29,6.29,2.4,9.44,3.55-1.51-.69-2.84-1.78-4.35-2.52-1.67-.82-3.41-1.47-5.21-1.95Z" style="fill: #d79e89;"/>
                </g>
              </g>
            </g>
            <g>
              <g>
                <path d="M129.35,232.68c-5.53,9.79-8.36,21.42-6.23,32.18,.61,3.09,1.59,6.2,3.63,8.6,4.22,4.96,8.73,2.73,13.78,.86,5.63-2.09,10.85-5.24,15.79-8.62,8.11-5.54,15.2-12.43,22.24-19.29,2.48-2.42,4.18-4.49,7.28-6.04,3.6-1.8,7.15-3.69,10.65-5.68,1.43-.81,2.88-1.67,3.85-3s1.33-3.23,.43-4.6c9.61-3.25,17.7-10.75,21.66-20.09,4.02-9.48,4.24-23.47-1.76-32.26-3.62-5.3-8.67-9.48-14.07-12.86-4.14-2.59-9.68-6.41-14.67-4.02-3.95,1.89-7.45,4.52-11.33,6.46-3.51,1.76-6.7,4.11-9.54,6.81-5.73,5.45-10.07,12.22-13.69,19.2-7.52,2.59-13.2,9.83-13.93,17.74-.2,2.15-.07,4.37-.73,6.43-.93,2.88-3.27,5.04-5.35,7.25-3.02,3.2-5.74,6.91-8.01,10.92Z" style="fill: #d74962;"/>
                <path d="M151.23,221.72c-1.46,.6-3.02,.96-4.53,1.4-3.91,1.14-7.63,2.86-11.14,4.91-.93,.54-1.86,1.13-2.58,1.94-.71,.81-1.18,1.9-1.02,2.97,1.82-.86,3.15-2.48,4.81-3.61,1.8-1.22,3.97-1.84,6.15-1.99s4.36,.15,6.48,.65c1.28,.3,2.79,.61,3.78-.25,.57-.5,.81-1.29,.88-2.05,.08-.76,.02-1.53,.15-2.28,.26-1.49,1.27-2.84,2.64-3.49,.63-.3,1.14-1.02,.33-1.52-.61-.38-1.62,.09-2.11,.5-.47,.4-.79,.95-1.26,1.35-.75,.64-1.66,1.11-2.57,1.48Z" style="fill: #8a1f52;"/>
                <path d="M192.56,224.01c-2.3-1.5-4.34-3.36-6.52-5.03-.31-.24-.64-.48-1.02-.56-.38-.09-.84,.03-1.03,.37-.27,.46,.05,1.03,.38,1.45,1.33,1.69,3.04,3.08,4.96,4.06,.48,.24,1.05,.57,1.07,1.1,.02,.54-.56,.92-1.09,.97-.54,.06-1.07-.09-1.61-.05-.54,.04-1.13,.38-1.16,.92-.02,.41,.31,.77,.69,.92,.38,.15,.81,.13,1.22,.12,2.5-.11,5-.22,7.49-.33,1.18-.05,2.35-.1,3.53-.16,.3-.01,.61-.03,.86-.2,1-.67-.43-.84-.86-.89-.84-.09-1.67-.26-2.48-.51-1.58-.5-3.06-1.27-4.44-2.17Z" style="fill: #8a1f52;"/>
                <path d="M161.44,191.72c.88,.83,1.53,1.86,2.24,2.84,4.23,5.89,10.7,10.15,17.78,11.7,.61,.13,1.23,.25,1.77,.57,.54,.32,.98,.88,.96,1.5-.03,.98-1.12,1.58-2.09,1.73-2.31,.34-4.57-.72-6.74-1.57-.7-.27-1.42-.52-2.17-.52-.75,0-1.54,.32-1.93,.96-.41,.67-.3,1.55,.05,2.25s.89,1.28,1.38,1.9c2.53,3.19,3.43,7.6,2.34,11.52-.24,.88-.59,1.75-1.18,2.45s-1.45,1.21-2.36,1.2c-1.56,0-2.74-1.4-3.4-2.81-2.02-4.34-1.15-9.39-1.23-14.18-.1-6.54-2.31-13.34-7.29-17.59-.73-.62-2.33-1.77-1.25-2.77,.98-.91,2.36,.1,3.11,.81Z" style="fill: #8a1f52;"/>
              </g>
              <g>
                <path d="M177.85,163.82c-2.37,1.99-4.77,4.18-5.78,7.1-1.32,3.8,0,8.03,2.01,11.51,4.54,7.81,12.48,13.23,21.01,16.2,8.53,2.97,17.67,3.71,26.7,3.86,1.89,.03,3.87,.02,5.51-.91,2.41-1.37,3.4-4.3,4.01-7,3.1-13.6,1.57-28.14-3.93-40.94-1.87-4.35-5.05-13.59-10.89-13.32-5.72,.27-12.92,5.78-17.67,8.61-7.37,4.39-14.4,9.38-20.97,14.9Z" style="fill: #8a1f52;"/>
                <path d="M216,142.65c10.86,12.21,15.69,29.54,12.71,45.61,2.24-8.12,2.16-16.82,.17-25.01-1.99-8.19-5.83-15.88-10.85-22.65" style="fill: #d74962;"/>
              </g>
            </g>
            <g>
              <path d="M126.42,272.38c.85,1.37,1.88,2.49,3.1,3.21,2.03,1.19,4.5,1.26,6.85,1.3,39.26,.62,79.46,1.09,116.56-11.77,2.25-.78,4.56-1.65,6.28-3.3,3.25-3.1,1.88-7.84,1.01-11.71-1.14-5.12-3.3-9.93-4.74-14.96-25.66,1.04-51.45,1.64-77.17,1.13-16.16-.32-38.14-1-50.39,11.75-2.93,3.05-4.69,6.91-4.8,11.16-.1,3.72,.92,9.38,3.31,13.19Z" style="fill: #d74962;"/>
              <path d="M176.01,241.72c-5.9,3.49-10.98,8.18-16.39,12.39-1.13-2.5,.61-5.33,2.49-7.32,4.01-4.25,9.14-7.4,14.68-9.22,2.8-.92,5.7-1.51,8.64-1.73,1.44-.11,7.46-.8,7.87,.93-2.69,.74-5.88,.34-8.73,1.16-3.01,.87-5.88,2.19-8.57,3.79Z" style="fill: #8a1f52;"/>
              <path d="M139.65,254.73c2.34,3.68,2.04,8.86-.72,12.24,.6-2.65,.9-5.41,.37-8.07-.28-1.42-.83-2.79-1.63-4-.76-1.13-1.9-1.77-2.73-2.75,1.65-.99,3.95,1.38,4.71,2.58Z" style="fill: #8a1f52;"/>
              <path d="M234.7,233.82c-1.33,6.77,.17,14.02,3.58,19.59,1.18,1.93,2.62,3.71,4.45,4.77,2.45,1.42,5.36,1.41,8.12,1,2.75-.41,5.49-1.2,8.26-1.25-2.57,1.3-5.28,2.2-8.04,2.67-2.03,.34-4.17,.49-5.93,1.74-2.57,1.82-3.66,5.53-3.88,8.98,3.04,.07,6.01-1.03,8.93-2.12,2.57-.96,5.14-1.92,7.71-2.89,.99-.37,2.02-.77,2.73-1.65,.92-1.12,1.12-2.76,1.25-4.28,.42-4.76,.63-9.59,0-14.29-.32-2.42-.88-4.79-1.72-7.02-.64-1.69-1.71-4.76-3.21-5.64-1.63-.95-4.56-.69-6.38-.8-2.46-.15-4.93-.15-7.39,.01-2.84,.19-5.68,.58-8.48,1.18Z" style="fill: #fff;"/>
            </g>
          </g>
        </g>
        <g>
          <path d="M578.2,284.07c-3.05-11.4-.5-24.16,6.7-33.51-1.78,5.6-3.56,11.25-4.1,17.11-.54,5.85,.27,12,3.38,16.99" style="fill: #8a1f52;"/>
          <polygon points="440.76 296.84 437.22 283.92 587.73 283.92 595.91 296.84 440.76 296.84" style="fill: #d74962;"/>
          <path d="M440.25,283.9c3.93-2.57,7.03-6.25,9.49-10.24,2.46-4,4.32-8.33,6.17-12.64,.82-1.92,1.65-3.84,2.47-5.76,.9,2.24,.37,4.77-.27,7.09-2.14,7.79-5.44,15.26-9.74,22.09" style="fill: #8a1f52;"/>
        </g>
        <g>
          <g>
            <path d="M386.87,306.35c.24-3.18,.32-6.42,.29-9.53,0,0,8.82-7.52,12.46-11.91,1.86-.39,3.9-.22,5.81-.4,1.54-.03,3.21-.21,4.72-.25,3.98,4.54,8.44,8.9,12.92,12.95,.05,2.66,.17,5.54,.22,8.21" style="fill: #8a1f52;"/>
            <path d="M388.29,298.33c4.53,.99,10.37,1.85,17.19,1.8,6.33-.04,11.78-.86,16.09-1.8h-33.28Z" style="fill: #d74962;"/>
            <path d="M409.75,286.46c.11,.87,.66,4.5,3.87,7.21,2.54,2.15,5.32,2.5,6.33,2.58-3.38-3.28-6.84-6.49-10.2-9.79Z" style="fill: #d74962;"/>
            <path d="M400.37,286.83c.13,2.85-1.05,5.72-3.13,7.67-2.09,1.94-5.04,2.91-7.87,2.58l11-10.24Z" style="fill: #d74962;"/>
            <rect x="396.16" y="280.75" width="17.86" height="4.75" style="fill: #8a1f52;"/>
          </g>
          <g>
            <g>
              <rect x="107.8" y="285.87" width="119.33" height="20.25" rx="3.25" ry="3.25" transform="translate(334.93 591.98) rotate(180)" style="fill: #d79e89;"/>
              <polygon points="265.93 287.72 227.13 289.88 227.13 302.1 265.93 305.57 265.93 287.72" style="fill: #fff;"/>
              <g>
                <path d="M230.8,299.98c5.42-.77,11.74-1.29,18.79-1.2,5.77,.07,11.01,.55,15.64,1.2h-34.44Z" style="fill: #cdcee9;"/>
                <path d="M230.8,296.6c5.42-.77,11.74-1.29,18.79-1.2,5.77,.07,11.01,.55,15.64,1.2h-34.44Z" style="fill: #cdcee9;"/>
                <path d="M230.8,293.21c5.42-.77,11.74-1.29,18.79-1.2,5.77,.07,11.01,.55,15.64,1.2h-34.44Z" style="fill: #cdcee9;"/>
              </g>
              <polygon points="223.4 302.1 273.21 304.11 273.21 306.12 223.4 306.12 223.4 302.1" style="fill: #d79e89;"/>
              <polygon points="223.4 285.87 273.21 285.87 273.21 287.87 223.4 289.88 223.4 285.87" style="fill: #d79e89;"/>
              <rect x="114.4" y="294.74" width="97.26" height="2.51" transform="translate(326.06 591.98) rotate(180)" style="fill: #f0c1a5;"/>
            </g>
            <g>
              <path d="M118.36,286.59h89.78c1.8,0,3.25-1.46,3.25-3.25v-13.75c0-1.8-1.46-3.25-3.25-3.25l-88.72,2.47c-2.4,.07-4.32,2.03-4.32,4.44v10.09c0,1.8,1.46,3.25,3.25,3.25Z" style="fill: #f0c1a5;"/>
              <g>
                <polygon points="250.2 270.35 211.4 270.35 211.4 282.57 250.2 284.9 250.2 270.35" style="fill: #fff;"/>
                <g>
                  <path d="M213.81,280.15c5.42-.77,11.74-1.29,18.79-1.2,5.77,.07,11.01,.55,15.64,1.2h-34.44Z" style="fill: #cdcee9;"/>
                  <path d="M213.81,276.76c5.42-.77,11.74-1.29,18.79-1.2,5.77,.07,11.01,.55,15.64,1.2h-34.44Z" style="fill: #cdcee9;"/>
                  <path d="M213.81,273.37c5.42-.77,11.74-1.29,18.79-1.2,5.77,.07,11.01,.55,15.64,1.2h-34.44Z" style="fill: #cdcee9;"/>
                </g>
              </g>
              <polygon points="207.67 282.57 257.47 284.58 257.47 286.59 207.67 286.59 207.67 282.57" style="fill: #f0c1a5;"/>
              <polygon points="207.67 266.34 257.47 267.88 257.47 270.35 207.67 270.35 207.67 266.34" style="fill: #f0c1a5;"/>
              <rect x="121.71" y="275.21" width="81.73" height="2.51" transform="translate(325.15 552.93) rotate(180)" style="fill: #d79e89;"/>
            </g>
          </g>
          <g>
            <rect x="96.77" y="305.24" width="574.46" height="18.87" style="fill: #080a40;"/>
            <g>
              <polyline points="132.98 384 132.98 320.56 637.87 320.56 637.87 384" style="fill: #0a0e5c;"/>
              <g>
                <rect x="165.68" y="345.18" width="111.14" height="38.82" style="fill: #080a40;"/>
                <rect x="324.14" y="345.18" width="113.88" height="37.34" style="fill: #080a40;"/>
                <rect x="482.61" y="345.18" width="113.88" height="37.34" style="fill: #080a40;"/>
              </g>
            </g>
          </g>
        </g>
      </g>
      <g>
        <path d="M468.53,51.2l-.15-2.71c-.14-.81-.24-1.61-.39-2.42-.23-.81-.39-1.65-.66-2.45-.31-.78-.54-1.61-.92-2.36-.39-.75-.68-1.55-1.16-2.26-.45-.72-.85-1.47-1.39-2.12-.5-.68-1.01-1.36-1.6-1.97l-.85-.94-.94-.85c-.61-.6-1.29-1.09-1.97-1.6-.66-.54-1.41-.93-2.13-1.38-.7-.48-1.51-.76-2.26-1.15-.76-.37-1.58-.6-2.37-.91-.8-.26-1.63-.44-2.45-.67l-2.51-.4-2.45-.14-2.72,.14-1.12,.06-.53-1.04h0c-.72-1.28-1.48-2.53-2.35-3.69-.44-.58-.87-1.17-1.37-1.7-.47-.56-.96-1.08-1.49-1.58-1-1.04-2.12-1.96-3.27-2.83-.58-.42-1.19-.81-1.79-1.21-.63-.35-1.24-.73-1.88-1.05-1.29-.63-2.6-1.22-3.96-1.66l-1.02-.34-1.04-.26c-.69-.2-1.4-.31-2.1-.43-1.41-.25-2.84-.36-4.27-.39h-.27s-.03-.01-.03-.01c-.03,0,.19,0,.09,0h-.02s-.07,0-.07,0h-.15s-.58,.03-.58,.03l-1.17,.05c-.82,0-1.43,.16-2.12,.23-.34,.05-.68,.08-1.02,.14l-1.05,.24c-.7,.15-1.4,.3-2.07,.55-1.38,.4-2.69,.97-3.99,1.57-.63,.34-1.28,.65-1.9,1.01l-1.81,1.17-1.71,1.31c-.57,.45-1.08,.96-1.62,1.43-1.03,1.01-2.03,2.07-2.89,3.24-.47,.56-.86,1.17-1.25,1.78l-.59,.92-.51,.96c-.35,.64-.72,1.27-.98,1.95-.27,.68-.63,1.33-.83,2.03-.22,.7-.49,1.39-.67,2.1l-.53,2.15-.39,1.58-1.45-.4h0l-2.44-.37-2.36-.04c-.88,.08-1.84,.11-2.53,.29-.74,.1-1.52,.37-2.29,.58-.74,.31-1.51,.54-2.21,.93-.73,.32-1.39,.79-2.07,1.2-.63,.49-1.3,.93-1.87,1.5-.61,.51-1.12,1.14-1.66,1.72-.48,.64-.99,1.26-1.38,1.96-.45,.66-.76,1.41-1.12,2.12-.29,.75-.6,1.49-.78,2.27-.25,.77-.34,1.57-.5,2.36l-.1,1.21-.03,.3v.08s-.01,.04-.01,.04h0s0,.12,0-.09v.02s0,.17,0,.17l.02,.67,.04,1.34,.17,1.16c.05,.76,.3,1.56,.51,2.35,.2,.8,.57,1.54,.84,2.33l.35,1.06-.63,.56h0c-.45,.48-.92,.94-1.3,1.47-.21,.25-.39,.52-.56,.8-.17,.28-.37,.54-.49,.84-.14,.29-.3,.58-.43,.88l-.34,.91c-.18,.62-.38,1.24-.44,1.89-.13,.64-.12,1.29-.15,1.93l.07,1.01c0,.4,.1,.62,.14,.94,.04,.29,.11,.6,.21,.91,.09,.31,.15,.63,.29,.92,.21,.61,.5,1.18,.79,1.76,.34,.55,.67,1.09,1.09,1.59,.18,.26,.42,.49,.63,.72,.21,.24,.44,.47,.69,.67,.46,.44,.99,.8,1.52,1.16l.82,.48,.87,.4c.59,.23,1.19,.46,1.81,.58,.61,.17,1.25,.23,1.87,.29l.95,.03,.97-.08,.55-.04,.43-.1,.85-.18,1.36-.29,.71,1.24h0c.43,.83,.87,1.64,1.4,2.41,.53,.76,1.08,1.52,1.71,2.21,.3,.36,.62,.7,.96,1.02,.33,.33,.66,.67,1.02,.96,.7,.63,1.46,1.19,2.22,1.74,.79,.52,1.58,1.02,2.42,1.46,.84,.44,1.69,.86,2.58,1.19,.87,.37,1.79,.63,2.69,.92,.92,.22,1.84,.46,2.79,.6,.93,.19,1.89,.24,2.84,.33l1.43,.05s.19,0,.11,0h.19s.38-.02,.38-.02l.76-.03c.49-.03,1.03-.02,1.49-.08l1.38-.18c.91-.07,1.86-.37,2.78-.54,.91-.26,1.83-.53,2.72-.85,.87-.37,1.78-.68,2.61-1.15,.42-.22,.85-.43,1.26-.66l1.2-.76c.83-.47,1.52-1.13,2.3-1.68h0s1.23-.98,1.23-.98l1.09,1.29c.77,.91,1.42,1.92,2.32,2.71,.8,.88,1.76,1.58,2.7,2.31,.47,.37,1.01,.62,1.5,.95,.5,.32,1,.62,1.56,.84l1.61,.73,1.69,.53c.55,.21,1.14,.3,1.72,.4,.58,.09,1.15,.25,1.74,.28l1.76,.1,.44,.03h.11s.1,0-.08,.01h.01s.03,0,.03,0h.06s.24-.02,.24-.02l.96-.05,.96-.05,.83-.14c.56-.1,1.11-.14,1.68-.32,1.15-.25,2.26-.66,3.35-1.09l1.59-.77c.51-.28,1-.61,1.51-.91,.98-.65,1.93-1.35,2.78-2.16,.45-.38,.85-.81,1.25-1.25,.41-.42,.8-.87,1.14-1.35,.74-.92,1.35-1.94,1.91-2.97,.25-.53,.54-1.05,.77-1.59l.63-1.65c.33-1.13,.64-2.27,.79-3.45,.12-.58,.14-1.18,.18-1.77l.07-.89v-.06s0,.16,0,.07h0s0-.05,0-.05v-.12s-.01-.24-.01-.24l-.02-.48c-.04-.62,0-1.33-.11-1.87l-.24-1.7h0s-.16-.94-.16-.94l.78-.64,2.26-1.86c.67-.71,1.36-1.4,2.02-2.11l.89-1.16c.29-.39,.61-.76,.88-1.16l.75-1.25c.24-.42,.52-.82,.73-1.26l.59-1.33c.19-.45,.42-.88,.57-1.34l.43-1.39c.13-.47,.31-.92,.41-1.39l.26-1.43c.08-.48,.19-.95,.24-1.43l.16-2.9v.09Zm3.48-.09l-.23,3.31c-.07,.55-.2,1.09-.3,1.63l-.32,1.63c-.12,.54-.32,1.06-.48,1.59l-.51,1.58c-.18,.52-.45,1.01-.67,1.51l-.7,1.5c-.25,.49-.57,.95-.85,1.42l-.87,1.41c-.31,.45-.68,.87-1.01,1.31l-1.03,1.29c-.77,.79-1.57,1.55-2.35,2.32l-2.61,2.02,.62-1.57h0s.37,2.09,.37,2.09c.14,.72,.12,1.3,.19,1.96l.04,.48,.02,.24v.12s.02,.15,.02,.15v.06s-.03,1.03-.03,1.03c-.03,.69-.02,1.38-.14,2.06-.14,1.37-.47,2.72-.83,4.05l-.69,1.95c-.26,.64-.57,1.26-.86,1.89-.64,1.22-1.35,2.42-2.21,3.51-.4,.57-.85,1.09-1.32,1.6-.46,.52-.92,1.03-1.45,1.48-1,.96-2.11,1.8-3.25,2.57-.59,.36-1.18,.73-1.79,1.06l-1.88,.9c-1.29,.51-2.6,.97-3.95,1.27-.65,.2-1.39,.27-2.09,.38l-1.07,.15-.96,.05-.96,.05h-.24s-.21,.02-.21,.02h-.13s-.52-.04-.52-.04l-2.07-.14c-.69-.06-1.36-.24-2.04-.36-.68-.13-1.36-.26-2.01-.5l-1.97-.66-1.88-.88c-.64-.27-1.22-.63-1.8-1.01-.57-.38-1.19-.71-1.72-1.15-1.07-.87-2.15-1.73-3.05-2.77-1-.95-1.74-2.12-2.57-3.21l2.32,.32h0c-.86,.64-1.65,1.38-2.57,1.93l-1.35,.87c-.46,.27-.94,.5-1.42,.76-.93,.53-1.94,.9-2.92,1.32-1,.38-2.02,.69-3.05,.99-1.05,.21-2.05,.53-3.16,.64l-1.63,.22c-.55,.07-1.02,.06-1.53,.1l-.76,.04-.38,.02h-.19s-.27,0-.27,0l-1.6-.05c-1.06-.08-2.13-.14-3.18-.33-1.06-.14-2.1-.4-3.14-.64-1.03-.31-2.06-.6-3.05-1.01-1.01-.37-1.98-.83-2.94-1.32-.96-.49-1.88-1.05-2.78-1.64-.88-.62-1.76-1.26-2.57-1.98-.42-.34-.8-.72-1.19-1.1-.4-.37-.77-.76-1.13-1.17-.74-.79-1.4-1.67-2.03-2.56-.62-.9-1.16-1.85-1.68-2.82h0s2.07,.95,2.07,.95l-1.29,.23-.64,.1-.55,.03-1.21,.06-1.24-.08c-.82-.1-1.64-.2-2.43-.44-.8-.19-1.57-.5-2.33-.82l-1.11-.55-1.05-.65c-.67-.47-1.33-.96-1.91-1.54-.31-.27-.59-.56-.86-.88-.27-.31-.55-.6-.78-.94-.51-.64-.92-1.35-1.32-2.06-.36-.73-.7-1.48-.94-2.26-.15-.38-.23-.78-.33-1.18-.1-.39-.19-.79-.24-1.23-.05-.4-.14-.89-.14-1.23l-.04-1.17c.05-.81,.08-1.62,.25-2.42,.11-.8,.37-1.58,.62-2.35l.45-1.12c.17-.37,.37-.72,.56-1.07,.18-.36,.42-.69,.64-1.03,.22-.34,.45-.67,.72-.97,.49-.64,1.07-1.2,1.64-1.76h0s-.28,1.62-.28,1.62c-.43-.85-.96-1.68-1.27-2.59-.33-.91-.7-1.8-.88-2.82-.11-.49-.23-1-.3-1.48l-.12-1.34-.06-.67-.02-.17v-.2s0-.09,0-.09v-.37s.04-1.47,.04-1.47c.13-.97,.18-1.96,.45-2.91,.2-.97,.54-1.89,.87-2.82,.4-.9,.78-1.82,1.32-2.65,.48-.87,1.09-1.65,1.67-2.44,.65-.74,1.29-1.5,2.05-2.14,.71-.69,1.53-1.25,2.32-1.84,.85-.51,1.68-1.04,2.6-1.43,.88-.45,1.83-.74,2.76-1.05,.97-.22,1.9-.48,2.94-.57,1.07-.17,1.9-.13,2.81-.16,1.13,.07,1.99,.21,2.99,.32,.95,.22,1.88,.49,2.81,.76h0l-1.84,1.18,.34-2.43c.13-.81,.37-1.6,.55-2.4,.17-.81,.5-1.57,.75-2.35,.24-.79,.59-1.54,.93-2.29l.52-1.13,.62-1.08c.41-.72,.82-1.44,1.32-2.11,.92-1.39,1.99-2.66,3.12-3.88,.59-.58,1.16-1.2,1.79-1.75l1.93-1.59,2.07-1.42c.71-.44,1.45-.83,2.18-1.25,1.49-.76,3.03-1.44,4.64-1.94,.79-.3,1.61-.49,2.42-.68l1.23-.29c.42-.08,.86-.13,1.29-.2,.85-.12,1.77-.28,2.51-.28l1.17-.05,.58-.03h.4s.31,0,.31,0c1.68,.04,3.36,.16,5.01,.46,.83,.16,1.65,.31,2.46,.55l1.22,.33,1.19,.41c1.59,.53,3.12,1.25,4.58,2.06,.74,.4,1.43,.87,2.14,1.31,.68,.49,1.37,.97,2.02,1.48,1.29,1.05,2.54,2.17,3.65,3.41,.56,.61,1.09,1.25,1.58,1.93,.52,.65,.97,1.35,1.42,2.04,.48,.68,.84,1.43,1.26,2.14,.38,.73,.7,1.5,1.05,2.24h0s-1.65-.98-1.65-.98l2.72-.16h.18s.09,0,.09,0h.18s.36,.02,.36,.02l.72,.03,1.45,.07c.96,.15,1.92,.27,2.87,.44,.94,.25,1.89,.45,2.81,.74,.9,.35,1.84,.62,2.71,1.04,.86,.44,1.78,.79,2.59,1.32,.82,.51,1.68,.97,2.43,1.58,.78,.57,1.56,1.15,2.25,1.83l1.07,.98,.98,1.07c.68,.7,1.26,1.47,1.83,2.25,.61,.75,1.08,1.61,1.59,2.43,.54,.81,.88,1.72,1.32,2.58,.43,.87,.7,1.81,1.05,2.71,.31,.92,.5,1.87,.76,2.8,.19,.97,.31,1.97,.46,2.95l.14,2.72v.09Z"/>
        <path d="M377.54,96.35s0,.2-.02,.58c-.01,.38-.13,1.19-.38,1.94-.28,.79-.74,1.71-1.48,2.6-.73,.89-1.73,1.73-2.95,2.39-1.22,.65-2.67,1.13-4.24,1.29-.41,.02-.75,.05-1.24,.05-.38-.02-.67,0-1.14-.07-.9-.09-1.69-.27-2.53-.54-1.63-.58-3.24-1.54-4.47-2.98-1.25-1.44-2.02-3.28-1.99-5.4,.01-.7,.24-1.94,.61-2.76,.36-.9,.92-1.67,1.53-2.36,1.24-1.37,2.84-2.25,4.43-2.77,1.59-.51,3.28-.64,4.72-.5,1.6,.17,2.94,.6,4.16,1.21,1.19,.62,2.2,1.38,2.94,2.22,.75,.83,1.24,1.71,1.55,2.48,.28,.78,.41,1.43,.46,1.87,.03,.45,.05,.68,.05,.68v.07Zm-2.27-.07s0-.17-.02-.48c-.01-.31-.08-.77-.26-1.33-.2-.56-.52-1.22-1.06-1.89-.55-.65-1.3-1.32-2.28-1.81-.95-.5-2.18-.84-3.35-.93-1.34-.09-2.63,.08-3.93,.52-1.27,.47-2.47,1.24-3.33,2.29-.42,.52-.79,1.09-1,1.71-.22,.69-.31,1.06-.32,1.98,.06,1.13,.59,2.47,1.48,3.41,.87,.98,2.07,1.67,3.29,2.08,.61,.19,1.28,.36,1.84,.41,.25,.06,.69,.05,1.02,.07,.22,0,.59-.02,.87-.03,1.21-.09,2.32-.39,3.27-.84,1.92-.89,2.98-2.35,3.41-3.41,.21-.59,.28-.88,.33-1.26,.03-.38,.05-.58,.05-.58v.07Z"/>
        <path d="M362.42,112.1s0,.09-.02,.27c-.02,.18,.02,.38-.17,.93-.15,.53-.42,.96-.8,1.44-.39,.46-.89,.91-1.52,1.25-.62,.35-1.37,.61-2.17,.7l-.3,.04-.15,.02h-.08s-.18,0-.18,0l-.5-.02c-.27,.01-.87-.12-1.32-.24-.88-.31-1.75-.73-2.44-1.53-.69-.76-1.17-1.85-1.16-2.98v-.18s.01,0,.01,0v-.02s0-.03,0-.03v-.07s.04-.14,.04-.14l.05-.28c0-.07,.05-.21,.1-.37l.17-.44c.12-.32,.27-.53,.42-.73,.16-.2,.3-.43,.49-.58,.7-.73,1.57-1.08,2.39-1.34,.84-.19,1.66-.27,2.41-.15,.17,.02,.3,.03,.49,.07,.2,.05,.39,.1,.58,.15,.39,.09,.69,.26,1,.4,.6,.31,1.1,.7,1.5,1.11,.38,.42,.69,.85,.84,1.26,.2,.39,.24,.74,.27,.98,.03,.24,.05,.36,.05,.36v.13Zm-2.01-.13s0-.06-.02-.17c0-.11,.01-.28-.08-.49-.1-.41-.51-1.06-1.36-1.4-.21-.07-.43-.18-.64-.2l-.32-.07c-.12-.02-.31-.01-.46-.02-.52-.05-1.07,.08-1.58,.27-.48,.23-.97,.51-1.25,.92-.1,.08-.13,.2-.19,.29-.07,.1-.11,.2-.11,.24,0,.03-.02,.05-.03,.08-.02,.01-.04,.05-.04,.17l-.02,.28v.14s-.01,.07-.01,.07v.04s0,.02,0,.02h0c0-.06-.01,.18,0-.15,.05,.38,.24,.71,.53,1.04,.28,.34,.78,.54,1.2,.72,.23,.03,.29,.15,.7,.17l.5,.06h.03s.02,0,.02,0h0s-.21,0-.11,0h.05s.09,0,.09,0h.18c.48,.02,.92-.1,1.31-.22,.39-.13,.7-.33,.94-.54,.21-.21,.4-.45,.44-.55,.1-.05,.15-.37,.18-.54,.03-.17,.05-.26,.05-.26v.13Z"/>
      </g>
      <g>
        <path d="M378.86,45.16h1.1l2.75,7.34,2.73-7.34h1.06l-3.29,8.52h-1.07l-3.29-8.52Z"/>
        <path d="M387.05,53.67l3.43-8.52h1.07l3.43,8.52h-1.08l-.95-2.42h-3.91l-.95,2.42h-1.04Zm3.95-7.4l-1.59,4.05h3.18l-1.58-4.05Z"/>
        <path d="M396.2,53.67v-8.52h2.31c1.6,0,3.17,.72,3.17,2.55,0,1.1-.63,1.94-1.65,2.34l2.06,3.62h-1.18l-1.85-3.36c-.24,.02-.48,.04-.72,.04-.37,0-.77-.04-1.14-.1v3.42h-1.01Zm1.01-7.62v3.3c.38,.07,.79,.1,1.17,.1,1.12,0,2.27-.38,2.27-1.69s-1.02-1.7-2.13-1.7h-1.31Z"/>
        <path d="M407.12,53.91c-2.46,0-4.04-2.03-4.04-4.43s1.51-4.57,4.03-4.57c1.45,0,2.83,.77,3.39,2.16l-.92,.35c-.49-1-1.33-1.58-2.46-1.58-1.93,0-3.01,1.86-3.01,3.63s1.06,3.51,3.03,3.51c1.15,0,1.99-.59,2.52-1.58l.92,.35c-.6,1.39-1.97,2.16-3.47,2.16Z"/>
        <path d="M414.59,47.48h.86l.05,.95c.38-.74,1.09-1.13,1.92-1.13,.94,0,1.64,.5,1.98,1.37,.35-.88,1.19-1.37,2.12-1.37,1.57,0,2.25,1.22,2.25,2.7v3.67h-.96v-3.61c0-.97-.32-1.88-1.45-1.88-1,0-1.7,.78-1.7,1.78v3.72h-.96v-3.61c0-.98-.36-1.88-1.47-1.88-1.01,0-1.68,.78-1.68,1.78v3.72h-.96v-6.19Z"/>
        <path d="M425.1,50.59c0-1.71,1.13-3.27,2.96-3.27,1.71,0,2.84,1.35,2.84,3.06v.4h-4.81c.1,1.2,.77,2.23,2.1,2.23,.76,0,1.37-.32,1.78-.97l.82,.37c-.5,.96-1.5,1.45-2.57,1.45-1.86,0-3.12-1.4-3.12-3.26Zm2.96-2.46c-1.08,0-1.75,.89-1.92,1.9h3.75c-.1-1.01-.73-1.9-1.83-1.9Z"/>
        <path d="M434.91,44.77h.96v5.3l2.93-2.59h1.24l-3.17,2.77,3.45,3.42h-1.32l-3.13-3.17v3.17h-.96v-8.9Z"/>
        <path d="M444,53.85c-1.82,0-3.06-1.48-3.06-3.27s1.22-3.27,3.08-3.27,3.06,1.45,3.06,3.27-1.21,3.27-3.08,3.27Zm-2.08-3.27c0,.61,.17,1.26,.6,1.71,.37,.44,.91,.68,1.49,.68,1.32,0,2.09-1.14,2.09-2.4,0-.64-.17-1.24-.59-1.73-.41-.43-.9-.67-1.5-.67-1.32,0-2.09,1.15-2.09,2.4Z"/>
        <path d="M448.46,47.48h.86l.05,.98c.4-.76,1.16-1.16,2-1.16,1.59,0,2.33,1.25,2.33,2.75v3.62h-.96v-3.56c0-1.02-.4-1.93-1.55-1.93-1.06,0-1.78,.76-1.78,1.82v3.67h-.96v-6.19Z"/>
        <path d="M381.95,63.48h1.14v-.58c0-1.25,.68-2.25,2.04-2.25,.43,0,.82,.11,1.16,.31l-.28,.74c-.26-.13-.54-.22-.83-.22-.88,0-1.14,.67-1.14,1.44v.55h1.96v.82h-1.96v5.37h-.96v-5.37h-1.14v-.82Z"/>
        <path d="M386.83,67.93c0-1.42,1.29-1.99,2.55-1.99,.53,0,1.2,.12,1.67,.35v-.46c0-.95-.55-1.68-1.56-1.68-.7,0-1.32,.35-1.59,1.01l-.84-.29c.35-1.03,1.42-1.56,2.45-1.56,1.51,0,2.47,1.01,2.47,2.54v3.81h-.84l-.06-.96c-.4,.77-1.19,1.14-2.03,1.14-1.14,0-2.22-.66-2.22-1.92Zm.97-.04c0,.79,.71,1.15,1.43,1.15,1.01,0,1.82-.74,1.82-1.79v-.23c-.5-.2-1.02-.34-1.56-.34-.76,0-1.69,.29-1.69,1.2Z"/>
        <path d="M393.2,68.37l.86-.31c.3,.59,.83,.96,1.5,.96,.61,0,1.33-.31,1.33-1.02,0-.52-.37-.85-1.13-1.01l-.47-.1c-.95-.19-1.92-.62-1.92-1.74,0-1.22,1.04-1.85,2.18-1.85,1.01,0,1.86,.49,2.22,1.48l-.86,.29c-.13-.3-.31-.53-.54-.7-.24-.16-.52-.24-.83-.24-.55,0-1.21,.28-1.21,.92s.71,.88,1.25,.97l.47,.1c.96,.19,1.82,.68,1.82,1.78,0,1.27-1.13,1.95-2.31,1.95-1.02,0-1.97-.5-2.36-1.49Z"/>
        <path d="M398.51,63.48h1.14v-2.08h.96v2.08h1.94v.82h-1.94v3.53c0,.62,.25,1.16,.95,1.16,.32,0,.7-.11,.97-.29l.29,.74c-.41,.29-.85,.41-1.34,.41-1.2,0-1.82-.79-1.82-1.98v-3.57h-1.14v-.82Z"/>
        <path d="M403.75,67.93c0-1.42,1.29-1.99,2.55-1.99,.53,0,1.2,.12,1.67,.35v-.46c0-.95-.55-1.68-1.56-1.68-.7,0-1.32,.35-1.59,1.01l-.84-.29c.35-1.03,1.42-1.56,2.45-1.56,1.51,0,2.47,1.01,2.47,2.54v3.81h-.84l-.06-.96c-.4,.77-1.19,1.14-2.03,1.14-1.14,0-2.22-.66-2.22-1.92Zm.97-.04c0,.79,.71,1.15,1.43,1.15,1.01,0,1.82-.74,1.82-1.79v-.23c-.5-.2-1.02-.34-1.56-.34-.76,0-1.69,.29-1.69,1.2Z"/>
        <path d="M413.16,69.67v-8.9h.96v3.61c.4-.72,1.15-1.08,1.96-1.08,1.59,0,2.33,1.25,2.33,2.75v3.62h-.96v-3.56c0-1.02-.4-1.93-1.55-1.93-1.06,0-1.78,.76-1.78,1.82v3.67h-.96Z"/>
        <path d="M422.66,60.77h.96v3.8c.48-.83,1.28-1.27,2.23-1.27,1.77,0,2.9,1.56,2.9,3.26s-1.13,3.29-2.95,3.29c-.95,0-1.76-.48-2.23-1.31l-.05,1.13h-.86v-8.9Zm3.02,3.41c-1.32,0-2.09,1.15-2.09,2.4,0,.61,.17,1.26,.6,1.71,.37,.44,.91,.68,1.49,.68,1.32,0,2.09-1.14,2.09-2.4,0-.64-.17-1.24-.59-1.73-.41-.43-.9-.67-1.5-.67Z"/>
        <path d="M430.12,69.67v-8.9h.96v3.61c.4-.72,1.15-1.08,1.96-1.08,1.59,0,2.33,1.25,2.33,2.75v3.62h-.96v-3.56c0-1.02-.4-1.93-1.55-1.93-1.06,0-1.78,.76-1.78,1.82v3.67h-.96Z"/>
        <path d="M436.7,67.93c0-1.42,1.29-1.99,2.55-1.99,.53,0,1.2,.12,1.67,.35v-.46c0-.95-.55-1.68-1.56-1.68-.7,0-1.32,.35-1.59,1.01l-.84-.29c.35-1.03,1.42-1.56,2.45-1.56,1.51,0,2.47,1.01,2.47,2.54v3.81h-.84l-.06-.96c-.4,.77-1.19,1.14-2.03,1.14-1.14,0-2.22-.66-2.22-1.92Zm.97-.04c0,.79,.71,1.15,1.43,1.15,1.01,0,1.82-.74,1.82-1.79v-.23c-.5-.2-1.02-.34-1.56-.34-.76,0-1.69,.29-1.69,1.2Z"/>
        <path d="M443.96,62.33c-.35,0-.66-.31-.66-.66s.3-.66,.66-.66,.66,.28,.66,.66c0,.36-.3,.66-.66,.66Zm.48,7.34h-.96v-6.19h.96v6.19Z"/>
        <path d="M445.52,62.98c.34-1.25,1.37-2,2.67-2,1.4,0,2.66,.92,2.66,2.43,0,1.37-1.02,2.31-2.28,2.7v1.3h-.94v-1.87c1.04-.25,2.18-.85,2.18-2.07,0-.3-.07-.58-.2-.83-.31-.52-.85-.77-1.44-.77-.89,0-1.51,.52-1.78,1.37l-.89-.25Zm2.59,6.73c-.37,0-.7-.32-.7-.7s.31-.7,.7-.7,.7,.31,.7,.7-.32,.7-.7,.7Z"/>
      </g>
    </g>
  </g>
</svg>