<?xml version="1.0" encoding="UTF-8"?>
<svg xmlns="http://www.w3.org/2000/svg" viewBox="0 0 768 384">
  <g style="isolation: isolate;">
    <g id="Layer_2" data-name="Layer 2">
      <g id="Layer_1-2" data-name="Layer 1">
        <g>
          <rect width="768" height="382.52" style="fill: #ffebdc;"/>
          <g>
            <rect x="641.05" y="35.52" width="9.36" height="11.41" transform="translate(1291.46 82.45) rotate(180)" style="fill: #ddb28a;"/>
            <ellipse cx="641.41" cy="36.67" rx="8.99" ry="10.25" style="fill: #ddb28a;"/>
            <rect x="569.67" y="35.52" width="9.36" height="11.41" style="fill: #ddb28a;"/>
            <ellipse cx="578.67" cy="36.67" rx="8.99" ry="10.25" style="fill: #ddb28a;"/>
            <rect x="587.69" y="37.09" width="44.6" height="311.98" style="fill: #eac8a8;"/>
            <rect x="589.57" y="64.84" width="40.2" height="253.77" style="fill: #faddbf;"/>
            <g>
              <rect x="620.92" y="66.94" width="4.2" height="253.07" style="fill: #edcbaa;"/>
              <rect x="612.02" y="66.94" width="4.2" height="253.07" style="fill: #edcbaa;"/>
              <rect x="603.12" y="66.94" width="4.2" height="253.07" style="fill: #edcbaa;"/>
              <rect x="594.22" y="66.94" width="4.2" height="253.07" style="fill: #edcbaa;"/>
            </g>
            <path d="M612.89,304.79c-12.71,0-23.02-47.84-23.02-106.85s10.3-106.85,23.02-106.85c8.15,0,15.31,19.69,19.4,49.36V37.09h-44.6V349.07h44.6v-93.64c-4.09,29.67-11.25,49.36-19.4,49.36Z" style="fill: #eac8a8; mix-blend-mode: multiply; opacity: .46;"/>
            <path d="M636.87,330.47v-7.46h-53.75v7.46c0,11.46,0,21.05-8.73,21.05v10.93h71.2v-10.93c-8.73,0-8.73-9.59-8.73-21.05Z" style="fill: #f5d9bd;"/>
            <path d="M659.44,37.09c0-.15,.04-.29,.04-.45,0-.64-.07-1.26-.17-1.87-1.63-15.37-15.54-14.86-15.54-14.86h-67.38s-13.91-.5-15.54,14.86c-.1,.61-.17,1.23-.17,1.87,0,.15,.03,.3,.04,.45,0,.25-.04,.47-.04,.73h.1c.52,5.14,4.3,9.14,8.94,9.14s8.42-4,8.94-9.14h.04c.37-.96-.35-3.92,.34-5.27,.44-.86,1.97-1.92,3.95-1.01,1.97,.91,1.91,27.18,1.91,27.18h50.35s-.07-26.27,1.91-27.18c1.97-.91,3.51,.15,3.94,1.01,.69,1.35-.03,4.31,.34,5.27h.04c.52,5.14,4.3,9.14,8.94,9.14s8.42-4,8.94-9.14h.1c0-.26-.03-.48-.04-.73Z" style="fill: #ecceac;"/>
            <g>
              <path d="M631.37,337.49c2.07,0,2.6-5.76,2.68-13.28h-5.36c.08,7.52,.61,13.28,2.68,13.28Z" style="fill: #eac8a8;"/>
              <path d="M622.88,337.49c2.07,0,2.6-5.76,2.68-13.28h-5.36c.08,7.52,.61,13.28,2.68,13.28Z" style="fill: #eac8a8;"/>
              <path d="M614.38,337.49c2.07,0,2.6-5.76,2.68-13.28h-5.36c.08,7.52,.61,13.28,2.68,13.28Z" style="fill: #eac8a8;"/>
              <path d="M605.88,337.49c2.07,0,2.6-5.76,2.68-13.28h-5.36c.08,7.52,.61,13.28,2.68,13.28Z" style="fill: #eac8a8;"/>
              <path d="M597.39,337.49c2.07,0,2.6-5.76,2.68-13.28h-5.36c.08,7.52,.61,13.28,2.68,13.28Z" style="fill: #eac8a8;"/>
              <path d="M588.89,337.49c2.07,0,2.6-5.76,2.68-13.28h-5.36c.08,7.52,.61,13.28,2.68,13.28Z" style="fill: #eac8a8;"/>
            </g>
            <path d="M643.1,36.64c0-4.63,3.29-8.38,7.34-8.38s7.34,3.75,7.34,8.38c0,4.63-3.29,8.38-7.34,8.38s-7.34-3.75-7.34-8.38Z" style="fill: #ddb28a;"/>
            <path d="M646.9,36.64c0-2.23,1.59-4.04,3.54-4.04,1.96,0,3.54,1.81,3.54,4.04s-1.59,4.04-3.54,4.04-3.54-1.81-3.54-4.04Z" style="fill: #ecceac;"/>
            <ellipse cx="570.04" cy="36.64" rx="7.34" ry="8.38" style="fill: #ddb28a;"/>
            <path d="M566.5,36.64c0-2.23,1.59-4.04,3.54-4.04,1.96,0,3.54,1.81,3.54,4.04s-1.59,4.04-3.54,4.04-3.54-1.81-3.54-4.04Z" style="fill: #ecceac;"/>
            <g>
              <path d="M592.28,45.76c-1.74,0-2.18,4.58-2.25,10.56h4.5c-.07-5.98-.51-10.56-2.25-10.56Z" style="fill: #ddb28a;"/>
              <path d="M599.42,45.76c-1.74,0-2.18,4.58-2.25,10.56h4.5c-.07-5.98-.51-10.56-2.25-10.56Z" style="fill: #ddb28a;"/>
              <path d="M606.56,45.76c-1.74,0-2.18,4.58-2.25,10.56h4.5c-.07-5.98-.51-10.56-2.25-10.56Z" style="fill: #ddb28a;"/>
              <path d="M613.7,45.76c-1.74,0-2.18,4.58-2.25,10.56h4.5c-.07-5.98-.51-10.56-2.25-10.56Z" style="fill: #ddb28a;"/>
              <path d="M620.84,45.76c-1.74,0-2.18,4.58-2.25,10.56h4.5c-.07-5.98-.51-10.56-2.25-10.56Z" style="fill: #ddb28a;"/>
              <path d="M627.98,45.76c-1.74,0-2.18,4.58-2.25,10.56h4.5c-.07-5.98-.51-10.56-2.25-10.56Z" style="fill: #ddb28a;"/>
            </g>
          </g>
          <g>
            <rect x="191.02" y="35.52" width="9.36" height="11.41" transform="translate(391.4 82.45) rotate(180)" style="fill: #ddb28a;"/>
            <ellipse cx="191.38" cy="36.67" rx="8.99" ry="10.25" style="fill: #ddb28a;"/>
            <rect x="119.64" y="35.52" width="9.36" height="11.41" style="fill: #ddb28a;"/>
            <ellipse cx="128.64" cy="36.67" rx="8.99" ry="10.25" style="fill: #ddb28a;"/>
            <rect x="137.66" y="37.09" width="44.6" height="311.98" style="fill: #eac8a8;"/>
            <rect x="139.54" y="64.84" width="40.2" height="253.77" style="fill: #faddbf;"/>
            <g>
              <rect x="170.89" y="66.94" width="4.2" height="253.07" style="fill: #edcbaa;"/>
              <rect x="161.99" y="66.94" width="4.2" height="253.07" style="fill: #edcbaa;"/>
              <rect x="153.09" y="66.94" width="4.2" height="253.07" style="fill: #edcbaa;"/>
              <rect x="144.19" y="66.94" width="4.2" height="253.07" style="fill: #edcbaa;"/>
            </g>
            <path d="M162.87,304.79c-12.71,0-23.02-47.84-23.02-106.85s10.3-106.85,23.02-106.85c8.15,0,15.31,19.69,19.4,49.36V37.09h-44.6V349.07h44.6v-93.64c-4.09,29.67-11.25,49.36-19.4,49.36Z" style="fill: #eac8a8; mix-blend-mode: multiply; opacity: .46;"/>
            <path d="M186.84,330.47v-7.46h-53.75v7.46c0,11.46,0,21.05-8.73,21.05v10.93h71.2v-10.93c-8.73,0-8.73-9.59-8.73-21.05Z" style="fill: #f5d9bd;"/>
            <path d="M209.42,37.09c0-.15,.04-.29,.04-.45,0-.64-.07-1.26-.17-1.87-1.63-15.37-15.54-14.86-15.54-14.86H126.38s-13.91-.5-15.54,14.86c-.1,.61-.17,1.23-.17,1.87,0,.15,.03,.3,.04,.45,0,.25-.04,.47-.04,.73h.1c.52,5.14,4.3,9.14,8.94,9.14s8.42-4,8.94-9.14h.04c.37-.96-.35-3.92,.34-5.27,.44-.86,1.97-1.92,3.95-1.01,1.97,.91,1.91,27.18,1.91,27.18h50.35s-.07-26.27,1.91-27.18c1.97-.91,3.51,.15,3.94,1.01,.69,1.35-.03,4.31,.34,5.27h.04c.52,5.14,4.3,9.14,8.94,9.14s8.42-4,8.94-9.14h.1c0-.26-.03-.48-.04-.73Z" style="fill: #ecceac;"/>
            <g>
              <path d="M181.35,337.49c2.07,0,2.6-5.76,2.68-13.28h-5.36c.08,7.52,.61,13.28,2.68,13.28Z" style="fill: #eac8a8;"/>
              <path d="M172.85,337.49c2.07,0,2.6-5.76,2.68-13.28h-5.36c.08,7.52,.61,13.28,2.68,13.28Z" style="fill: #eac8a8;"/>
              <path d="M164.35,337.49c2.07,0,2.6-5.76,2.68-13.28h-5.36c.08,7.52,.61,13.28,2.68,13.28Z" style="fill: #eac8a8;"/>
              <path d="M155.85,337.49c2.07,0,2.6-5.76,2.68-13.28h-5.36c.08,7.52,.61,13.28,2.68,13.28Z" style="fill: #eac8a8;"/>
              <path d="M147.36,337.49c2.07,0,2.6-5.76,2.68-13.28h-5.36c.08,7.52,.61,13.28,2.68,13.28Z" style="fill: #eac8a8;"/>
              <path d="M138.86,337.49c2.07,0,2.6-5.76,2.68-13.28h-5.36c.08,7.52,.61,13.28,2.68,13.28Z" style="fill: #eac8a8;"/>
            </g>
            <path d="M193.07,36.64c0-4.63,3.29-8.38,7.34-8.38s7.34,3.75,7.34,8.38c0,4.63-3.29,8.38-7.34,8.38s-7.34-3.75-7.34-8.38Z" style="fill: #ddb28a;"/>
            <path d="M196.87,36.64c0-2.23,1.59-4.04,3.54-4.04,1.96,0,3.54,1.81,3.54,4.04s-1.59,4.04-3.54,4.04-3.54-1.81-3.54-4.04Z" style="fill: #ecceac;"/>
            <ellipse cx="120.01" cy="36.64" rx="7.34" ry="8.38" style="fill: #ddb28a;"/>
            <path d="M116.47,36.64c0-2.23,1.59-4.04,3.54-4.04,1.96,0,3.54,1.81,3.54,4.04s-1.59,4.04-3.54,4.04-3.54-1.81-3.54-4.04Z" style="fill: #ecceac;"/>
            <g>
              <path d="M142.25,45.76c-1.74,0-2.18,4.58-2.25,10.56h4.5c-.07-5.98-.51-10.56-2.25-10.56Z" style="fill: #ddb28a;"/>
              <path d="M149.39,45.76c-1.74,0-2.18,4.58-2.25,10.56h4.5c-.07-5.98-.51-10.56-2.25-10.56Z" style="fill: #ddb28a;"/>
              <path d="M156.53,45.76c-1.74,0-2.18,4.58-2.25,10.56h4.5c-.07-5.98-.51-10.56-2.25-10.56Z" style="fill: #ddb28a;"/>
              <path d="M163.67,45.76c-1.74,0-2.18,4.58-2.25,10.56h4.5c-.07-5.98-.51-10.56-2.25-10.56Z" style="fill: #ddb28a;"/>
              <path d="M170.81,45.76c-1.74,0-2.18,4.58-2.25,10.56h4.5c-.07-5.98-.51-10.56-2.25-10.56Z" style="fill: #ddb28a;"/>
              <path d="M177.95,45.76c-1.74,0-2.18,4.58-2.25,10.56h4.5c-.07-5.98-.51-10.56-2.25-10.56Z" style="fill: #ddb28a;"/>
            </g>
          </g>
          <g>
            <rect x="620.16" y="299.52" width="2.47" height="66.92" style="fill: #735457;"/>
            <rect x="630.73" y="299.52" width="2.47" height="66.92" style="fill: #735457;"/>
            <rect x="652.55" y="299.52" width="2.47" height="66.92" style="fill: #735457;"/>
            <rect x="620.16" y="298.75" width="2.47" height="20.21" style="fill: #533339;"/>
            <rect x="630.73" y="298.75" width="2.47" height="20.21" style="fill: #533339;"/>
            <rect x="652.55" y="298.75" width="2.47" height="20.21" style="fill: #533339;"/>
            <rect x="619.54" y="298.39" width="35.76" height="4.55" style="fill: #533339;"/>
            <path d="M667.87,290.63h-61.24s5.31,8.94,20.16,8.94h20.92c13.5,0,20.16-8.94,20.16-8.94Z" style="fill: #735457;"/>
            <rect x="621.32" y="309.37" width="32.22" height="2.53" style="fill: #533339;"/>
            <path d="M608.59,292.97c7.19,1.06,17.33,1.73,28.58,1.73s21.23-.65,28.41-1.7c1.52-1.34,2.29-2.36,2.29-2.36h-61.24s.61,1.01,1.96,2.34Z" style="fill: #a6767d;"/>
          </g>
          <g>
            <path d="M337.77,207.34c3.72-2.87,6.21-8.29,6.08-14.16-.11-4.59-1.8-8.63-4.64-11.07-1.69-1.46-3.65-2.21-5.71-2.21-.36,0-.72,.02-1.08,.07-.79,.1-1.55,.3-2.29,.6-.55-.53-1.11-1.01-1.7-1.46,1.18-.6,2.43-1.01,3.74-1.17,3-.38,5.98,.55,8.38,2.63,3.28,2.82,5.22,7.41,5.35,12.58,.17,7.39-3.49,14.16-8.7,16.99,.23-.91,.42-1.84,.57-2.79Z" style="fill: #9b402d;"/>
            <path d="M344.79,193.73c-.12-5.17-2.07-9.76-5.35-12.58-2.4-2.07-5.38-3-8.38-2.63-.87,.11-1.72,.34-2.53,.65-.03-.02-.06-.05-.09-.07,1.18-.6,2.43-1.01,3.74-1.17,3-.38,5.98,.55,8.38,2.63,3.28,2.82,5.23,7.41,5.35,12.58,.17,7.39-3.49,14.16-8.7,16.99,0-.04,.02-.07,.02-.11,4.59-3.15,7.72-9.45,7.56-16.29Z" style="fill: #ae5137;"/>
            <path d="M315.05,207.34c-3.72-2.87-6.21-8.29-6.08-14.16,.11-4.59,1.8-8.63,4.64-11.07,1.69-1.46,3.65-2.21,5.71-2.21,.36,0,.72,.02,1.08,.07,.79,.1,1.55,.3,2.29,.6,.55-.53,1.11-1.01,1.7-1.46-1.18-.6-2.43-1.01-3.74-1.17-3-.38-5.98,.55-8.38,2.63-3.28,2.82-5.23,7.41-5.35,12.58-.17,7.39,3.49,14.16,8.7,16.99-.23-.91-.42-1.84-.57-2.79Z" style="fill: #9b402d;"/>
            <path d="M308.03,193.73c.12-5.17,2.07-9.76,5.35-12.58,2.4-2.07,5.38-3,8.38-2.63,.87,.11,1.72,.34,2.53,.65,.03-.02,.06-.05,.09-.07-1.18-.6-2.43-1.01-3.74-1.17-3-.38-5.98,.55-8.38,2.63-3.28,2.82-5.23,7.41-5.35,12.58-.17,7.39,3.49,14.16,8.7,16.99,0-.04-.02-.07-.02-.11-4.59-3.15-7.72-9.45-7.56-16.29Z" style="fill: #ae5137;"/>
            <path d="M340.17,204.53c-1.11-3.26-8.37-10.91-8.37-10.91h-.03l-1.41-7.72c-.61-3.31,.55-6.68,3.02-8.96,1.76-1.62,3.26-3.26,3.26-3.26h-19.77s1.49,1.5,3.24,3.06c2.53,2.25,3.69,5.67,3.08,9l-1.44,7.87h-.03s-7.27,7.66-8.37,10.91c-.31,.92-.3,2.97,0,3.9,.87,2.71,6.65,9.23,6.65,9.23,0,0,.85-.21,.99,0,.25,.36-.64,1.65-.64,1.65h12.81s-.89-1.28-.64-1.65c.14-.21,.99,0,.99,0,0,0,5.78-6.52,6.65-9.23,.3-.93,.31-2.98,0-3.9Z" style="fill: #d17051;"/>
            <path d="M330.64,190.56c-.7-.14-1.43-.22-2.16-.22-2.35,0-4.57,.76-6.52,2.1l-.21,1.17h-.03s-3.18,3.35-5.65,6.56c-1,2.5-1.56,5.34-1.56,8.35,0,.77,.04,1.53,.11,2.28,1.98,3.01,5.38,6.85,5.38,6.85,0,0,.85-.21,.99,0,.25,.36-.64,1.65-.64,1.65h12.81s-.89-1.28-.64-1.65c.05-.07,.18-.09,.33-.09-2.71-2.04-5.06-5.27-6.41-9.25-2.57-7.56-.68-15.14,4.2-17.75Z" style="fill: #ae5137;"/>
            <path d="M337.6,201.7c-1.93-2.71-4.73-4.02-6.26-2.93-1.53,1.09-1.21,4.17,.72,6.87s4.73,4.02,6.26,2.93c1.53-1.09,1.21-4.17-.72-6.87Z" style="fill: #f89078;"/>
            <path d="M330.33,197.8c.86-.12,1.3-.67,.98-1.22-.32-.55-1.27-.89-2.13-.77-.86,.12-1.3,.67-.98,1.22,.32,.55,1.27,.89,2.13,.77Z" style="fill: #f89078;"/>
            <path d="M329.37,219.3c-4.9-1.98-8.38-7-8.38-12.88,0-6.75,4.59-12.37,10.64-13.55l-1.28-6.97c-.61-3.31,.55-6.68,3.02-8.96,1.76-1.62,3.26-3.26,3.26-3.26h-19.77s1.49,1.5,3.24,3.06c2.53,2.25,3.69,5.67,3.08,9l-1.44,7.87h-.03s-7.27,7.66-8.37,10.91c-.31,.92-.3,2.97,0,3.9,.87,2.71,6.65,9.23,6.65,9.23,0,0,.85-.21,.99,0,.25,.36-.64,1.65-.64,1.65h9.01Z" style="fill: #c45f43;"/>
            <path d="M331.77,193.61l-1.41-7.72c-.61-3.31,.55-6.68,3.02-8.96,1.76-1.62,3.26-3.26,3.26-3.26h-.25c-2.24,1.63-5.71,2.68-9.61,2.68s-7.37-1.05-9.61-2.68h-.3s1.49,1.5,3.24,3.06c2.53,2.25,3.69,5.67,3.08,9l-1.44,7.87h-.03s-.42,.44-1.06,1.14c1.41-.42,2.88-.64,4.41-.64,4.57,0,8.71,1.99,11.72,5.21-2.34-2.92-4.98-5.71-4.98-5.71h-.03Z" style="fill: #c45f43;"/>
            <path d="M326.78,176.37c-3.9,0-7.37-1.05-9.61-2.68h-.3s1.49,1.5,3.24,3.06c1.38,1.22,2.34,2.8,2.84,4.51,1.13,.14,2.3,.22,3.52,.22,1.46,0,2.87-.11,4.2-.31,.52-1.59,1.44-3.05,2.7-4.22,1.76-1.62,3.26-3.26,3.26-3.26h-.25c-2.24,1.63-5.71,2.68-9.61,2.68Z" style="fill: #ae5137;"/>
            <path d="M329.52,176.19c-.88,.12-1.8,.18-2.74,.18-3.9,0-7.37-1.05-9.61-2.68h-.3s1.49,1.5,3.24,3.06c2.53,2.25,3.69,5.67,3.08,9l-1.44,7.87h-.03s-.42,.44-1.06,1.14c1.41-.42,2.88-.64,4.41-.64,.88,0,1.75,.08,2.59,.22-1.05-2.21-2.53-13.82,1.87-18.14Z" style="fill: #ae5137;"/>
            <g>
              <path d="M332.05,193.88v.02h.02s-.01-.01-.02-.02Z" style="fill: #d17051;"/>
              <path d="M317.16,173.97h19.22c.17-.18,.27-.29,.27-.29h-19.77s.1,.11,.29,.29Z" style="fill: #d17051;"/>
              <path d="M313.63,208.71c-.3-.93-.31-2.98,0-3.9,1.11-3.26,8.24-10.29,8.24-10.29l.16-.62,1.44-7.87c.59-3.2-.46-6.49-2.8-8.74,2.13,2.24,3.07,5.38,2.51,8.45l-1.44,7.87-.31,.17s-6.99,7.49-8.1,10.74c-.31,.92-.3,2.97,0,3.9,.87,2.71,6.65,9.23,6.65,9.23,0,0,.01,0,.03,0-1.13-1.3-5.63-6.57-6.4-8.94Z" style="fill: #d17051;"/>
              <path d="M321.28,217.94c-.04-.06-.13-.08-.25-.09-.02,.5-.68,1.45-.68,1.45h.47c.24-.4,.63-1.1,.45-1.36Z" style="fill: #d17051;"/>
            </g>
            <g>
              <path d="M340.4,206.46c0-.74-.07-1.47-.23-1.93-.29-.85-1.01-2.01-1.9-3.26h-23.03c-.9,1.24-1.61,2.4-1.9,3.26-.16,.46-.23,1.19-.23,1.93h27.29Z" style="fill: #ffc42e; mix-blend-mode: overlay;"/>
              <path d="M313.4,208.58c.18,.48,.48,1.06,.88,1.7h24.95c.4-.64,.7-1.22,.88-1.7h-26.71Z" style="fill: #ffc42e; mix-blend-mode: overlay;"/>
            </g>
            <path d="M327.61,179.45c-2.01,0-3.93-.18-5.68-.51,.93,1.54,1.43,3.32,1.41,5.14,1.01-.5,2.12-.77,3.27-.77,1.24,0,2.45,.31,3.58,.88,0-1.76,.47-3.47,1.36-4.98-1.26,.16-2.58,.24-3.95,.24Z" style="fill: #9b402d;"/>
            <path d="M333.52,217.66c-1.46-1.65-12.2-1.45-13.52,0,0,0,.85-.21,.99,0,.25,.36-.64,1.65-.64,1.65h12.81s-.89-1.28-.64-1.65c.14-.21,.99,0,.99,0Z" style="fill: #9b402d;"/>
            <path d="M326.47,217.92c-2.45,0-4.61,.43-5.93,1.09-.11,.17-.19,.29-.19,.29h12.57c-1.23-.82-3.65-1.38-6.45-1.38Z" style="fill: #ae5137;"/>
          </g>
          <g>
            <rect x="347.45" y="224.71" width="6.17" height="5.73" transform="translate(701.06 455.16) rotate(180)" style="fill: #ddb28a;"/>
            <path d="M353.61,225.29c0-2.85-2.65-5.16-5.93-5.16s-5.93,2.31-5.93,5.16,2.65,5.16,5.93,5.16,5.93-2.31,5.93-5.16Z" style="fill: #ddb28a;"/>
            <rect x="300.37" y="224.71" width="6.17" height="5.73" style="fill: #ddb28a;"/>
            <path d="M300.37,225.29c0-2.85,2.65-5.16,5.93-5.16s5.93,2.31,5.93,5.16-2.65,5.16-5.93,5.16-5.93-2.31-5.93-5.16Z" style="fill: #ddb28a;"/>
            <rect x="312.25" y="225.5" width="29.42" height="132.68" style="fill: #eac8a8;"/>
            <rect x="313.49" y="239.45" width="26.52" height="105.78" style="fill: #faddbf;"/>
            <g>
              <rect x="334.17" y="240.51" width="2.77" height="105.32" style="fill: #edcbaa;"/>
              <rect x="328.3" y="240.51" width="2.77" height="105.32" style="fill: #edcbaa;"/>
              <rect x="322.43" y="240.51" width="2.77" height="105.32" style="fill: #edcbaa;"/>
              <rect x="316.56" y="240.51" width="2.77" height="105.32" style="fill: #edcbaa;"/>
            </g>
            <path d="M328.88,339.35c-8.38,0-15.18-3.31-15.18-32.98s6.8-53.72,15.18-53.72c5.38,0,10.1,9.9,12.79,24.82v-51.97h-29.42v132.68h29.42v-39.83c-2.7,12.62-7.42,20.99-12.79,20.99Z" style="fill: #eac8a8; mix-blend-mode: multiply; opacity: .46;"/>
            <path d="M344.69,350.27v-3.17h-35.45v3.17c0,4.87,0,8.95-5.76,8.95v4.65h46.96v-4.65c-5.76,0-5.76-4.08-5.76-8.95Z" style="fill: #f5d9bd;"/>
            <path d="M359.58,225.5c0-.08,.03-.15,.03-.22,0-.32-.04-.63-.11-.94-1.08-7.73-10.25-7.47-10.25-7.47h-44.44s-9.17-.25-10.25,7.47c-.06,.31-.11,.62-.11,.94,0,.08,.02,.15,.03,.22,0,.13-.03,.24-.03,.37h.07c.34,2.58,2.83,4.59,5.9,4.59s5.55-2.01,5.9-4.59h.03c.24-.48-.23-1.97,.22-2.65,.29-.43,1.3-.96,2.6-.51,1.3,.46,1.26,13.66,1.26,13.66h33.21s-.04-13.21,1.26-13.66c1.3-.46,2.31,.07,2.6,.51,.45,.68-.02,2.17,.22,2.65h.03c.34,2.58,2.83,4.59,5.9,4.59s5.55-2.01,5.9-4.59h.07c0-.13-.02-.24-.03-.37Z" style="fill: #ecceac;"/>
            <g>
              <path d="M341.06,353.26c1.36,0,1.71-2.45,1.77-5.65h-3.54c.05,3.2,.4,5.65,1.77,5.65Z" style="fill: #eac8a8;"/>
              <path d="M335.46,353.26c1.36,0,1.71-2.45,1.77-5.65h-3.54c.05,3.2,.4,5.65,1.77,5.65Z" style="fill: #eac8a8;"/>
              <path d="M329.86,353.26c1.36,0,1.71-2.45,1.77-5.65h-3.54c.05,3.2,.4,5.65,1.77,5.65Z" style="fill: #eac8a8;"/>
              <path d="M324.25,353.26c1.36,0,1.71-2.45,1.77-5.65h-3.54c.05,3.2,.4,5.65,1.77,5.65Z" style="fill: #eac8a8;"/>
              <path d="M318.65,353.26c1.36,0,1.71-2.45,1.77-5.65h-3.54c.05,3.2,.4,5.65,1.77,5.65Z" style="fill: #eac8a8;"/>
              <path d="M313.04,353.26c1.36,0,1.71-2.45,1.77-5.65h-3.54c.05,3.2,.4,5.65,1.77,5.65Z" style="fill: #eac8a8;"/>
            </g>
            <ellipse cx="353.64" cy="225.27" rx="4.84" ry="4.21" style="fill: #ddb28a;"/>
            <path d="M351.3,225.27c0-1.12,1.05-2.03,2.34-2.03s2.34,.91,2.34,2.03-1.05,2.03-2.34,2.03-2.34-.91-2.34-2.03Z" style="fill: #ecceac;"/>
            <ellipse cx="300.61" cy="225.27" rx="4.84" ry="4.21" style="fill: #ddb28a;"/>
            <path d="M298.27,225.27c0-1.12,1.05-2.03,2.34-2.03s2.34,.91,2.34,2.03-1.05,2.03-2.34,2.03-2.34-.91-2.34-2.03Z" style="fill: #ecceac;"/>
            <g>
              <path d="M315.28,229.86c-1.15,0-1.44,2.3-1.49,5.31h2.97c-.05-3.01-.34-5.31-1.49-5.31Z" style="fill: #ddb28a;"/>
              <path d="M319.99,229.86c-1.15,0-1.44,2.3-1.49,5.31h2.97c-.05-3.01-.34-5.31-1.49-5.31Z" style="fill: #ddb28a;"/>
              <path d="M324.7,229.86c-1.15,0-1.44,2.3-1.49,5.31h2.97c-.05-3.01-.34-5.31-1.49-5.31Z" style="fill: #ddb28a;"/>
              <path d="M329.41,229.86c-1.15,0-1.44,2.3-1.49,5.31h2.97c-.05-3.01-.34-5.31-1.49-5.31Z" style="fill: #ddb28a;"/>
              <path d="M334.12,229.86c-1.15,0-1.44,2.3-1.49,5.31h2.97c-.05-3.01-.34-5.31-1.49-5.31Z" style="fill: #ddb28a;"/>
              <path d="M338.83,229.86c-1.15,0-1.44,2.3-1.49,5.31h2.97c-.05-3.01-.34-5.31-1.49-5.31Z" style="fill: #ddb28a;"/>
            </g>
          </g>
          <g>
            <path d="M398.54,204.85c-15.74-20.95-19.76-34.05-19.03-38.73,.73-4.68,13.91-21.14,13.91-21.14l12.81,17.4-3.48,8.23,5.49,23.57-9.7,10.66Z" style="fill: #ffa779;"/>
            <path d="M400.61,183.55c1.79,5.41,5.83,10.87,6.27,15.56l1.36-4.94-5.49-23.57,3.48-8.23-12.81-17.4s-5.68,7.09-9.78,13.29c5.89,2.64,12.74,12.48,16.98,25.29Z" style="fill: #ff8c60;"/>
            <path d="M472.23,357c-1.83-3.98-1.35-6.91,2.23-5.85,3.01,.89,7.08,4.35,7.87,7.23,.72,2.59-.33,4.52-2.52,4.53-2.51,.02-5.99-2.45-7.58-5.92Z" style="fill: #7c352b;"/>
            <path d="M468.36,356.47c1.15-4.04-.9-6.74-4.14-5.64-2.73,.93-4.93,4.19-5.26,7.11-.29,2.62,.99,4.57,3.07,4.57,2.39,0,5.33-2.53,6.33-6.04Z" style="fill: #7c352b;"/>
            <path d="M402.66,222.62c-1.1-1.96-7.96-8.84-7.96-11.79s3.98-11.65,3.98-11.65c0,0,8.37-7.16,8.78-7.16s6.73,5.47,6.73,5.47l.27,18.1-11.8,7.02Z" style="fill: #ffa779;"/>
            <path d="M414.19,197.5s-6.31-5.47-6.73-5.47c-.13,0-1.02,.69-2.19,1.63,.72,2.26,1.14,4.88,1.14,7.67,0,8.34,8.05,14.28,8.05,14.28l-.27-18.1Z" style="fill: #ff8c60;"/>
            <path d="M465.25,321.26l-26.49-9.26-37.24,20.75c17.43,8.28,40.82,4.67,47.82,7.05,7,2.39,41.89,5.74,41.8,4.05-.09-1.68-25.9-22.59-25.9-22.59Z" style="fill: #cf9573;"/>
            <path d="M447.13,301.57l20.68-2.25s1.32,42.76,4.61,49.63c1.07,2.23,3.35,5.75,5.91,6.78,3.2,1.29,3.78,5.33,1.65,5.33h-17.57c-1.85,0-2.24-2.84-1.65-4.58,.73-2.15,2.61-4.02,2.29-6.45-2.56-19.27-11.03-33.46-15.92-48.46Z" style="fill: #ffa779;"/>
            <path d="M478.34,355.73c-2.56-1.03-4.84-4.55-5.91-6.78-3.3-6.87-4.61-49.63-4.61-49.63l-20.68,2.25c4.89,15,13.36,29.19,15.92,48.46,.18,1.37-.33,2.55-.94,3.71,2.29-.7,5.34-.81,8.57-.13,5.57,1.17,9.74,4.25,10.05,7.21,1.15-.88,.34-3.99-2.4-5.09Z" style="fill: #ff8c60;"/>
            <path d="M438.64,306.27l-18.05-10.21s7.02,45.8,3.01,52.04c-4.01,6.24-16.21,8.89-20.03,8.69-3.82-.2-4.33,4.23-2.13,4.23h30.07c1.91,0,3.49-1.92,3.21-3.85-1.9-12.98,.78-33.59,3.92-50.88Z" style="fill: #ffa779;"/>
            <path d="M438.64,306.27l-18.05-10.21s7.02,45.8,3.01,52.04c-.38,.6-.84,1.16-1.36,1.69,2.4,.82,3.9,2.02,4.07,3.48,.35,2.93-4.72,6.03-12,7.74h17.2c1.91,0,3.49-1.92,3.21-3.85-1.9-12.98,.78-33.59,3.92-50.88Z" style="fill: #ff8c60;"/>
            <path d="M467.72,117.01c-.38-2.51-3.63-4.05-8.21-3.14-6.18,1.22-11.93,6.08-10.67,10.16,1.19,3.83,7.73,3.71,12.96,.87,3.98-2.16,6.28-5.46,5.92-7.88Z" style="fill: #00738e;"/>
            <path d="M487.85,295.02c0-4.49,2.75-21.52,2.01-29.19-.73-7.67-5.12-40.6-5.12-40.6l-12.08-11.04-53.07,33.86-18.12,32.37c-1.83,8.42-2.16,51.74-1.57,52.18,3.31,2.4,25.95,3.81,32.04,2.36l.92-3.18s.55,2.81,1.65,2.81,14.73-3.09,17.29-2.71c2.56,.37,37.7,12.35,39.35,11.97s-3.29-44.34-3.29-48.83Z" style="fill: #e5ccab;"/>
            <path d="M463.31,267.01c14.48-25.77,16.93-47.21,16.93-47.21l-9.59-4.7c3.64,8.59,3.19,23.04-7.34,51.91Z" style="fill: #d5b795;"/>
            <path d="M454.09,267.77c-7.6,6.11-41.05,29.37-54.43,49.77-.08,8.41,.01,14.9,.24,15.07,3.31,2.4,25.95,3.81,32.04,2.36l.92-3.18s.55,2.81,1.65,2.81,14.73-3.09,17.29-2.71c.09,.01,.23,.04,.41,.09,2.45-36.93,13.36-73.42,1.89-64.2Z" style="fill: #eedbc6;"/>
            <path d="M490.05,208.21c-.55-3.93-7.31-41.8-7.09-42.7,4.67-19.22,1.78-36.34,1.78-36.34,0,0-14.64,8.89-15.37,10.01-.73,1.12,.55,48.46,.73,49.02,.18,.56,6.13,43.55,6.13,43.55,10.57-7.72,12.14,31.72,13.69,34.81,.75,1.49,6.35-16.43,7.63-17.93,1.28-1.5,5.49-6.74,5.31-8.98-.18-2.25-12.26-27.5-12.81-31.43Z" style="fill: #007ea1;"/>
            <path d="M480.99,161.13c1.13,10.16,5.08,55.11,5.08,56.61s-12.04-21.25-13.35-26.33c-1.32-5.08-.38-30.09-.38-30.09l8.65-.19Z" style="fill: #00617c;"/>
            <path d="M483.92,203.25c15.37-9.92,39.44-24.79,40.9-27.97,1.46-3.18-.37-10.48-.92-12.72-.55-2.25-21.59-19.83-21.59-19.83l-19.76,14.59,8.24,11.97-12.41,20.9,5.55,13.06Z" style="fill: #ffa779;"/>
            <path d="M523.9,162.56c-.55-2.25-21.59-19.83-21.59-19.83l-19.76,14.59,8.24,11.97-3.18,5.36c2.17-1.24,4.42-2.43,6.73-3.53,15.32-7.31,26.81-7.71,27.77-2.18,.65,3.72-3.32,10.1-10.46,16.44,7.12-4.75,12.51-8.64,13.18-10.09,1.46-3.18-.37-10.48-.92-12.72Z" style="fill: #ff8c60;"/>
            <path d="M474.49,121.96l-9.52,37.79,15.24,11.37c11.11-9.34,20.51-18.18,27.04-26.15,0,0-18.12-16.28-32.76-23.01Z" style="fill: #eedbc6;"/>
            <path d="M487.87,154.35c-2.59-9.28-1.2-18.17,3.01-22.44-5.22-3.75-11.04-7.49-16.39-9.95l-9.52,37.79,15.24,11.37c3.77-3.17,7.34-6.29,10.68-9.33-1.23-2.23-2.26-4.73-3.02-7.44Z" style="fill: #e5ccab;"/>
            <path d="M388.3,149.84c9.88,18.71,20.68,27.32,20.68,27.32l12.26-31.24-.19-22.94s-6.04,.39-8.04,.49c-3.88,.18-17.02,12.91-24.71,26.38Z" style="fill: #e5ccab;"/>
            <path d="M414.36,140.41c3.5-6.06,5.47-12.25,5.85-17.38-1.73,.11-5.66,.36-7.21,.44-3.88,.18-17.02,12.91-24.71,26.38,1.38,2.62,2.78,5.03,4.17,7.26,6.22,1.27,15.5-5.62,21.89-16.7Z" style="fill: #eedbc6;"/>
            <path d="M414.6,134.89s-3.92,11.85-9.65,38.46c2.47,2.56,4.03,3.81,4.03,3.81l6.42-16.35-.8-25.91Z" style="fill: #d1b088;"/>
            <path d="M430.57,119.35c-1.27,.25-13.36,5.05-13.91,5.61-.55,.56-5.12,25.63-5.67,28.81-.55,3.18-.37,6.55-.37,6.55,0,0-5.49,25.26-5.49,27.32s2.38,5.43,4.58,7.3c2.2,1.87,3.29,2.81,3.29,2.81l-2.75,36.86,35.5-22.26,22.88-46.4,7.32-44.9s-19.22-6.92-45.39-1.68Z" style="fill: #eedbc6;"/>
            <path d="M430.57,119.35c-.85,.17-6.55,2.38-10.39,3.99,0-.1,.02-.21,.03-.31-.63,.04-1.57,.1-2.57,.16-.63,2.63-.56,5.19,.33,7.57,3.96,10.5,22.41,13.26,41.22,6.17,5.97-2.25,11.26-5.23,15.57-8.58l1.19-7.31s-19.22-6.92-45.39-1.68Z" style="fill: #e5ccab;"/>
            <path d="M458.18,117.7c1.64,6.41-1.31,13.42-3.72,21.42-5.98,19.84-21.9,35.31-32.64,32.07-5.85-1.76-9.66-8.12-10.95-16.75-.42,2.97-.26,5.88-.26,5.88,0,0-.86,3.95-1.9,8.86,6.33,6.76,27.88,9.06,27.88,9.06,0,0-16.4,15.46-30.45,12.38,.9,1.57,2.25,3.2,3.55,4.31,2.2,1.87,3.29,2.81,3.29,2.81l-.1,1.39c6.15-3.48,11.88-4.44,13.56-2,1.94,2.82-2.3,9.11-9.47,14.05-1.75,1.21-3.51,2.22-5.21,3.02l-1.52,20.39,35.5-22.26,22.88-46.4,7.32-44.9s-6.78-2.44-17.77-3.33Z" style="fill: #e5ccab;"/>
            <path d="M431.39,119.29c-.41,.08-1.95,.64-3.86,1.37v.17s1.5,16.07,11.8,15.19c13.02-1.11,21.48-17.1,21.48-17.1-.14-.35-.28-.7-.41-1.04-7.61-.79-17.63-.88-29,1.4Z" style="fill: #016376;"/>
            <path d="M411.19,196.13c-.46,1.31,.2,2.57,1.69,3.81,17.26,.04,40.7-9.38,40.7-9.38l.14-6.49s-21.93,12.2-42.53,12.06Z" style="fill: #7a5447;"/>
            <path d="M459.14,117.59c1.1,2.06,1.85,4.56,1.03,11.3-1.34,10.97-14.96,41.72-24.84,56.13-9.88,14.41-31.29,32.37-32.39,33.3-1.1,.94-3.11,2.25-2.38,4.86,.73,2.62,.73,11.79,.37,13.1-.37,1.31-2.38,1.5-2.75,2.62-.37,1.12-5.26,16.98-4.85,19.64,.27,1.78,3.48,8.61,3.16,11.09-.11,.83-2.27,4.81-3.07,6.5-1.01,2.15-5.31,27.88-4.58,29.93,.73,2.06,5.67,7.86,7.32,8.23,1.65,.37,78.33-75.96,80.89-83.07,2.56-7.11,4.94-27.13,2.01-33.3-2.93-6.17-.11-23.11,1.17-31.91,1.28-8.79,3.36-36.62,3.96-39.51,.37-1.78-4.76-7.53-6.04-7.9-1.28-.37-6.22-.56-6.22-.56,0,0,.39-2.19-.53-2.75-.92-.56-4.57-.43-4.57-.43,0,0-2.88-1.75-5.15-.98-1.23,.42-2.54,3.72-2.54,3.72Z" style="fill: #199ac0;"/>
            <path d="M478.15,118.6c-1.28-.37-6.22-.56-6.22-.56,0,0,.39-2.19-.53-2.75-.92-.56-4.57-.43-4.57-.43,0,0-2.88-1.75-5.15-.98-1.23,.42-2.54,3.72-2.54,3.72,1.1,2.06,1.85,4.56,1.03,11.3-.15,1.23-.46,2.71-.89,4.38,7.65-10.4,12.78-6.75,12.78-6.75,0,0,5.28-3.05,10.66-3.29-1.52-2.13-3.78-4.41-4.57-4.64Z" style="fill: #007ea1;"/>
            <path d="M484.19,126.5c.15-.71-.58-2.04-1.58-3.41-1.3,16.73-11.29,46.47-14.98,43.12-3.85-3.5,2.41-27.89,6.02-48.08-.98-.06-1.72-.08-1.72-.08,0,0,.39-2.19-.53-2.75-.92-.56-4.57-.43-4.57-.43,0,0-.57-.34-1.39-.66,1.7,14.68-.81,38.21-9.09,57.09-12.91,29.42-36.86,53.41-52.27,46.06-.61,.52-1.01,.86-1.14,.97-1.1,.94-3.11,2.25-2.38,4.86,.73,2.62,.73,11.79,.37,13.1-.11,.39-.36,.68-.67,.92,34.51-17.53,61.04-72.28,66.16-66.67,5.19,5.7-20.34,52.31-49.93,79.28-7.14,6.5-14.21,11.53-20.9,15.33,.59,1.79,1.03,3.49,.9,4.49-.03,.25-.26,.8-.57,1.48,2.07-1.25,4.29-2.38,6.65-3.34,23.51-9.59,43.82-34.23,50.41-50.03,6.58-15.8,16.74-22.01,17.3-9.78,1.41,30.59-61.82,97.94-81.5,97.46,0,.3,.03,.51,.08,.64,.73,2.06,5.67,7.86,7.32,8.23,1.65,.37,78.33-75.96,80.89-83.07,2.56-7.11,6.81-27.58,3.89-33.75-2.93-6.17-1.99-22.66-.71-31.46,1.28-8.79,3.36-36.62,3.96-39.51Z" style="fill: #007ea1;"/>
            <path d="M458.62,117.66c-5.22-13.05-5.31-18.66-5.31-18.66l-23.47,6.59-.69,13.75s1.34,14.23,10.45,13.45c11.53-.98,19.01-15.14,19.01-15.14Z" style="fill: #f87146;"/>
            <path d="M454.73,104c1.1,1.5,.92,2.71-.18,3.84-1.1,1.12-2.93-.09-2.93-.09,0,0,.27,2.99-1.56,3.55,0,0-.46,7.2-2.1,7.58s-1.37-.47-1.37-.47c0,0-2.2,7.3-4.12,7.95-1.92,.65-2.93-.28-2.93-.28,0,0-4.48,2.43-7.14,2.15-2.65-.28-4.3-1.59-4.3-1.59,0,0-4.03,1.03-5.12-.28s-.73-3.09-.73-3.09c0,0-3.48-.47-4.12-3.65-.64-3.18-.09-8.7,2.1-7.86,0,0-1.92-4.21-.37-5.14,0,0-.92-5.61,1.37-7.58,0,0-1.37-2.25,.27-2.43,0,0-1.65-1.5,.37-3.55,0,0-2.01-1.96-1.19-4.12,.82-2.15,2.1-2.43,2.1-2.43,0,0-1.92-2.25-.37-2.9,0,0-4.03-.65-2.38-3.84,1.65-3.18,6.04-4.12,6.04-4.12,0,0-.55-1.12,.73-2.06,1.28-.94,2.29-.19,2.29-.19,0,0,1.74-3.18,3.84-3.74,2.1-.56,5.49,.37,5.49,.37,0,0,2.75-1.68,4.39-1.22,1.65,.47,2.29,1.4,2.29,1.4,0,0,5.31,.37,6.95,3.18,0,0,3.84,.56,5.31,2.71,1.46,2.15,1.65,4.21,1.65,4.21,0,0,4.03,1.22,4.48,3.84,.46,2.62,0,6.74-2.1,7.02,0,0,2.2,4.68-.64,7.58-2.84,2.9-4.21,3.37-4.21,3.37-.94,1.06-.43,2.51-1.83,1.87Z" style="fill: #6c3427;"/>
            <path d="M463.51,84.17c-.46-2.62-4.48-3.84-4.48-3.84,0,0-.18-2.06-1.65-4.21-1.46-2.15-5.31-2.71-5.31-2.71-.57-.97-1.58-1.65-2.66-2.12,1.04,1.79,1.63,3.77,1.63,5.86,0,7.95-8.4,14.39-18.76,14.39-4.3,0-7.83,2.82-5.92,2.82,9.82,0,17.77,7.86,17.77,17.56,0,7.42-4.66,13.76-11.24,16.33,2.68-.02,6.66-2.17,6.66-2.17,0,0,1.01,.94,2.93,.28,1.92-.65,4.12-7.95,4.12-7.95,0,0-.27,.84,1.37,.47,1.65-.37,2.1-7.58,2.1-7.58,1.83-.56,1.56-3.55,1.56-3.55,0,0,1.83,1.22,2.93,.09,1.1-1.12,1.28-2.34,.18-3.84,1.4,.64,.89-.81,1.83-1.87,0,0,1.37-.47,4.21-3.37,2.84-2.9,.64-7.58,.64-7.58,2.1-.28,2.56-4.4,2.1-7.02Z" style="fill: #55231b;"/>
            <g>
              <path d="M472.72,350.47c-1.56-.38-4.32-.82-7.3-.14-1.8,.41-3.3,1.67-4.11,3.33l-.88,1.79c10.65-4.49,19.52,.75,19.52,.75l-5.06-4.56c-.62-.56-1.37-.97-2.18-1.17Z" style="fill: #7c352b;"/>
              <rect x="459.58" y="360.55" width="22.24" height="2.67" rx=".29" ry=".29" style="fill: #7c352b;"/>
              <polygon points="462.6 348.25 471.84 345.26 470.65 340.2 461.75 343.78 462.6 348.25" style="fill: #7c352b;"/>
            </g>
            <g>
              <polygon points="434.27 348.49 427.12 356.57 430.07 361.19 434.91 355.57 434.27 348.49" style="fill: #7c352b;"/>
              <polygon points="417.58 352.81 415.72 361.87 411.38 362.16 411.65 355.03 417.58 352.81" style="fill: #a54b3b;"/>
              <polygon points="404.91 356.37 402.74 360.9 408.42 360.9 407.58 356.18 404.91 356.37" style="fill: #a54b3b;"/>
              <polygon points="424.66 338.93 434.53 342.21 434.05 347.22 424.21 344.43 424.66 338.93" style="fill: #7c352b;"/>
              <path d="M434.65,360.47h-34.65c-.2,0-.38,.17-.4,.38l-.23,2c-.02,.21,.12,.38,.31,.38h34.65c.2,0,.38-.17,.4-.38l.23-2c.02-.21-.12-.38-.31-.38Z" style="fill: #7c352b;"/>
              <polygon points="419.46 352.02 427.77 362.06 432.74 361.87 423.8 346.45 419.46 352.02" style="fill: #a54b3b;"/>
              <path d="M423.8,346.45l-.9,1.16c1.15,1.16,1.91,3.12,1.91,5.34,0,1.62-.4,3.1-1.07,4.23l4.04,4.88,4.96-.19-8.94-15.42Z" style="fill: #7c352b;"/>
            </g>
            <path d="M406.23,201.85s9.75,13.19,9.47,14.17c-.27,.98-2.35,2.68-3.32,2.25-.96-.42-8.63-9.97-8.63-9.97l2.47-6.45Z" style="fill: #ffa779;"/>
            <path d="M403.1,206.49s6.6,10.03,6.33,11.02c-.27,.98-2.48,3.16-3.44,2.73-.96-.42-8.1-10.66-8.1-10.66l5.22-3.09Z" style="fill: #ffa779;"/>
            <path d="M423.24,102.98c-.79-4.86,1.32-9.17,1.32-9.17,0,0,.7-6.74,.18-8.04-.53-1.31-.7-5.61,2.46-7.48,3.16-1.87,3.24-4.68,7.1-3.93,3.86,.75,5.61-.37,7.28-.47s2.81-.37,5.26,2.25c2.46,2.62,2.23,4.12,2.23,4.12,0,0-.53,2.9,.18,4.68,.7,1.78-.7,2.25-.35,4.77,.35,2.53-.65,4.12-.91,7.2-.26,3.09-1.05,7.86-4.65,7.76-3.6-.09-2.89-4.02-5.26-4.4-2.37-.37-3.24-2.9-6.31-2.81s-4.03,.65-4.56,1.5c-.53,.84-2.46,.75-2.46,2.9l-1.49,1.12Z" style="fill: #ffa779;"/>
            <path d="M449.24,84.92c-.7-1.78-.18-4.68-.18-4.68,0,0,.08-.55-.4-1.57-.02,0-.03,.02-.05,.03-2.71,1.62-4.15,4.68-3.63,7.79,.27,1.59,.41,3.25,.41,4.97,0,4.96-1.18,9.5-3.14,13.02,.31,.1,.66,.17,1.07,.18,3.6,.09,4.38-4.68,4.65-7.76s1.26-4.68,.91-7.2c-.35-2.53,1.05-2.99,.35-4.77Z" style="fill: #ff8c60;"/>
            <path d="M426.95,110.78c6.56,3.11,10.82,.4,10.67-1.23-.13-1.44-2.67-7.19-6.01-7.6-3.34-.41-6.45,7.98-4.66,8.83Z" style="fill: #ffa779;"/>
            <path d="M451,94.96c-.6-6.1,4.64-6.1,5.75-3.18,1.12,2.92-3.61,8.93-5.41,8.67s-1.72-5.67-.34-5.49Z" style="fill: #ff8c60;"/>
            <path d="M471.91,263.91c-7.71,0-13.96,26.65-13.96,59.53,0,3.52,.07,6.97,.21,10.32,8.91,2.82,24.49,7.98,30.54,9.6,0-.06,0-.11,0-.17,0-32.88-9.07-79.28-16.79-79.28Z" style="fill: #eedbc6;"/>
            <path d="M485.43,202.13c-1.1,2.1-4.35,9.78-4.63,11.19s-7.4,1.02-8.09-.94c-.69-1.96,.36-7.3-.87-10.24-.76-1.82-2.75-6.88-1.1-8.28,1.65-1.4,10.34-6.21,10.34-6.21l4.34,14.49Z" style="fill: #ffa779;"/>
            <path d="M490.39,226.77s6.39,14.86,5.14,26.52c.89-2.36,1.64-4.22,2.02-4.66,.64-.75,2.02-2.44,3.21-4.22-5.28-9.37-10.37-17.64-10.37-17.64Z" style="fill: #007189;"/>
            <path d="M430.73,335.19c.45-.06,.87-.14,1.22-.22l.92-3.18s.55,2.81,1.65,2.81c.19,0,.73-.09,1.52-.23-.86-12.75,2.65-29.92,2.65-29.92,0,0-5.48,17.21-7.94,30.75Z" style="fill: #e5ccab;"/>
            <path d="M473.26,205.79s-.74,7.25-1.16,9.77c-.42,2.52-2.84,7.99-3.05,8.83-.21,.84,1.05,2.21,1.89,1.89,.84-.32,3.47-6.2,4.32-8.2,.84-2,3.37-9.04,3.47-10.09l-5.47-2.21Z" style="fill: #ffa779;"/>
            <path d="M478.34,203.26s-.74,7.25-1.16,9.77c-.42,2.52-2.84,7.99-3.05,8.83-.21,.84,1.05,2.21,1.89,1.89,.84-.32,3.47-6.2,4.32-8.2,.84-2,3.37-9.04,3.47-10.09l-5.47-2.21Z" style="fill: #ffa779;"/>
            <path d="M473.15,204.17c-1.66-2.17-3.31-4.33-5.07-4.71-1.76-.38-6.6-.24-7.69-1.49-1.09-1.25-1.23-3.54,.5-3.73,1.72-.19,6.49,.32,8.72-.19s5.21-3.6,6.83-1.91c1.61,1.69-3.29,12.04-3.29,12.04Z" style="fill: #ffa779;"/>
            <path d="M455.2,93.37c-.53-1.38-2.79-1.52-3.04,.77,.6,.15,1.04,.59,1.04,1.11,0,.65-.67,1.18-1.5,1.18-.03,0-.05,0-.08,0,.02,.72,.24,1.48,.72,1.55,.96,.14,3.46-3.05,2.87-4.59Z" style="fill: #de5635;"/>
            <path d="M429.41,104.18c2.19-.8,4-.24,4.23,.09,.24,.33-1.18,.71-2.35,.66-1.18-.05-2.4-.56-1.88-.75Z" style="fill: #f87146;"/>
            <path d="M436.13,98.82c-3.49,.87-6.97,1.24-7.52-.56-.38-1.22,.56-2.07,1.5-3.43,.59-.85,1.73-5.53,1.97-6.02,.33-.66,2.52-.46,2.49,.47-.05,1.41-.85,5.17-.33,5.88,2.07,.09,2.82,3.43,1.88,3.67Z" style="fill: #ff8c60;"/>
            <path d="M440.51,90.64c.1-1.03-.6-1.53-1.34-1.64s-1.25,.2-1.35,1.24c-.1,1.03,.42,1.96,1.17,2.08s1.43-.64,1.53-1.67Z" style="fill: #41201d;"/>
            <path d="M430.48,90.41c.08-1.03-.48-1.53-1.08-1.64-.6-.11-1.01,.2-1.09,1.24-.08,1.03,.34,1.96,.94,2.08,.6,.11,1.15-.64,1.23-1.67Z" style="fill: #41201d;"/>
            <path d="M443.56,89.81c-2.55,.33-8.32-.53-8.93-1.18-.61-.65-.24-3.27,.89-3.46,1.13-.19,7.43,.61,8.23,1.33,.8,.72,.71,3.2-.19,3.31Z" style="fill: #6c3427;"/>
            <path d="M425.48,88.72c2.07,.68,7.01,.63,7.63,.08,.62-.55,.74-3.2-.17-3.54-.91-.34-6.28-.43-7.06,.17-.78,.6-1.11,3.05-.39,3.29Z" style="fill: #6c3427;"/>
            <path d="M429.45,83.12c3.86,.05,9.03-.38,11.85,.09,2.82,.47-4.61,.52-6.96,.66-2.35,.14-4.89-.75-4.89-.75Z" style="fill: #ff8c60;"/>
            <path d="M438.37,81.23c-2.54,.04-5.96-.31-7.82,.08-1.86,.39,3.04,.43,4.59,.55,1.55,.12,3.23-.63,3.23-.63Z" style="fill: #ff8c60;"/>
          </g>
          <g>
            <rect x="122.92" y="361.79" width="522.17" height="7.36" style="fill: #e1bc87;"/>
            <rect x="92.23" y="366.58" width="583.53" height="17.42" style="fill: #ccb299;"/>
            <rect x="572.66" y="366.58" width="31.96" height="17.42" style="fill: #d8bca4;"/>
            <rect x="182.59" y="366.58" width="31.96" height="17.42" style="fill: #d8bca4;"/>
            <rect x="92.23" y="364.86" width="583.53" height="4.95" style="fill: #edd7b6;"/>
            <polygon points="589.23 364.86 324.56 364.86 197.98 384 462.64 384 589.23 364.86" style="fill: #dec4b1; mix-blend-mode: overlay; opacity: .53;"/>
            <g>
              <rect x="596.33" y="378.69" width="5.16" height="2.47" style="fill: #eac8a8; mix-blend-mode: multiply; opacity: .46;"/>
              <rect x="649.97" y="373.05" width="5.16" height="2.47" style="fill: #eac8a8; mix-blend-mode: multiply; opacity: .46;"/>
              <rect x="477.46" y="378.46" width="5.16" height="2.47" style="fill: #eac8a8; mix-blend-mode: multiply; opacity: .46;"/>
              <rect x="435.11" y="371.53" width="5.16" height="2.47" style="fill: #eac8a8; mix-blend-mode: multiply; opacity: .46;"/>
              <rect x="538.03" y="374.11" width="5.16" height="2.47" style="fill: #eac8a8; mix-blend-mode: multiply; opacity: .46;"/>
              <rect x="561" y="372.52" width="4.48" height="2.47" style="fill: #eac8a8; mix-blend-mode: multiply; opacity: .46;"/>
              <rect x="498.66" y="370.41" width="4.48" height="2.47" style="fill: #eac8a8; mix-blend-mode: multiply; opacity: .46;"/>
              <rect x="619.71" y="372.7" width="8.02" height="2.47" style="fill: #eac8a8; mix-blend-mode: multiply; opacity: .46;"/>
              <rect x="515.7" y="378.28" width="8.02" height="2.47" style="fill: #eac8a8; mix-blend-mode: multiply; opacity: .46;"/>
              <rect x="449.01" y="378.28" width="8.02" height="2.47" style="fill: #eac8a8; mix-blend-mode: multiply; opacity: .46;"/>
              <rect x="417.39" y="378.69" width="5.16" height="2.47" style="fill: #eac8a8; mix-blend-mode: multiply; opacity: .46;"/>
              <rect x="298.52" y="378.46" width="5.16" height="2.47" style="fill: #eac8a8; mix-blend-mode: multiply; opacity: .46;"/>
              <rect x="382.06" y="372.52" width="4.48" height="2.47" style="fill: #eac8a8; mix-blend-mode: multiply; opacity: .46;"/>
              <rect x="277.78" y="378.69" width="5.16" height="2.47" style="fill: #eac8a8; mix-blend-mode: multiply; opacity: .46;"/>
              <rect x="158.91" y="378.46" width="5.16" height="2.47" style="fill: #eac8a8; mix-blend-mode: multiply; opacity: .46;"/>
              <rect x="116.55" y="371.53" width="5.16" height="2.47" style="fill: #eac8a8; mix-blend-mode: multiply; opacity: .46;"/>
              <rect x="219.47" y="374.11" width="5.16" height="2.47" style="fill: #eac8a8; mix-blend-mode: multiply; opacity: .46;"/>
              <rect x="242.44" y="372.52" width="4.48" height="2.47" style="fill: #eac8a8; mix-blend-mode: multiply; opacity: .46;"/>
              <rect x="180.11" y="370.41" width="4.48" height="2.47" style="fill: #eac8a8; mix-blend-mode: multiply; opacity: .46;"/>
              <rect x="197.14" y="378.28" width="8.02" height="2.47" style="fill: #eac8a8; mix-blend-mode: multiply; opacity: .46;"/>
              <rect x="130.46" y="378.28" width="8.02" height="2.47" style="fill: #eac8a8; mix-blend-mode: multiply; opacity: .46;"/>
              <rect x="358.5" y="373.58" width="5.16" height="2.47" style="fill: #eac8a8; mix-blend-mode: multiply; opacity: .46;"/>
              <rect x="397.03" y="377.64" width="4.48" height="2.47" style="fill: #eac8a8; mix-blend-mode: multiply; opacity: .46;"/>
              <rect x="319.72" y="370.41" width="4.48" height="2.47" style="fill: #eac8a8; mix-blend-mode: multiply; opacity: .46;"/>
              <rect x="336.76" y="378.28" width="8.02" height="2.47" style="fill: #eac8a8; mix-blend-mode: multiply; opacity: .46;"/>
              <rect x="655.11" y="379.05" width="8.02" height="2.47" style="fill: #eac8a8; mix-blend-mode: multiply; opacity: .46;"/>
            </g>
          </g>
          <g>
            <path d="M290.54,50.36l.16,2.9c.05,.48,.17,.95,.24,1.43l.26,1.43c.1,.47,.28,.93,.41,1.39l.43,1.39c.15,.46,.39,.89,.57,1.34l.59,1.33c.21,.44,.49,.84,.73,1.26l.75,1.25c.27,.41,.59,.77,.88,1.16l.89,1.16c.66,.71,1.35,1.4,2.02,2.11l2.26,1.86,.78,.64-.16,.94h0s-.24,1.71-.24,1.71c-.1,.54-.07,1.25-.11,1.87l-.02,.48v.24s-.01,.12-.01,.12v.03s0,.01,0,.01c0,.08,0-.1,0-.07v.06s.07,.89,.07,.89c.05,.59,.06,1.19,.18,1.77,.15,1.18,.46,2.32,.79,3.45l.63,1.65c.23,.54,.52,1.06,.77,1.59,.56,1.03,1.17,2.05,1.91,2.97,.34,.48,.73,.93,1.14,1.35,.39,.44,.79,.87,1.25,1.25,.85,.81,1.81,1.51,2.78,2.16,.51,.3,1,.62,1.51,.91l1.59,.77c1.09,.43,2.2,.84,3.35,1.09,.57,.18,1.12,.22,1.68,.32l.83,.14,.96,.05,.96,.05h.24s.06,.02,.06,.02h.03s.01,0,.01,0c-.18,0-.04,0-.08,0h.11s.44-.04,.44-.04l1.76-.1c.59-.03,1.16-.2,1.74-.28,.58-.1,1.16-.19,1.72-.4l1.69-.53,1.61-.73c.55-.22,1.06-.52,1.56-.84,.49-.33,1.03-.58,1.5-.95,.94-.73,1.89-1.43,2.7-2.31,.9-.79,1.55-1.79,2.32-2.71l1.09-1.29,1.23,.98h0c.77,.55,1.47,1.21,2.3,1.68l1.2,.76c.41,.23,.84,.44,1.26,.66,.83,.47,1.73,.78,2.61,1.15,.89,.33,1.81,.59,2.72,.85,.93,.17,1.87,.47,2.78,.54l1.38,.18c.46,.06,1,.05,1.49,.08l.76,.03h.38s.19,.02,.19,.02c-.08,0,.08,0,.11,0l1.43-.05c.95-.08,1.9-.14,2.84-.33,.94-.14,1.86-.38,2.79-.6,.91-.28,1.82-.55,2.69-.92,.89-.33,1.74-.75,2.58-1.19,.84-.43,1.63-.94,2.42-1.46,.76-.55,1.52-1.11,2.22-1.74,.37-.29,.69-.64,1.02-.96,.34-.32,.66-.66,.96-1.02,.63-.69,1.19-1.44,1.71-2.21,.53-.77,.97-1.58,1.4-2.4h0s.71-1.25,.71-1.25l1.36,.29,.85,.18,.43,.1,.55,.04,.97,.08,.95-.03c.63-.06,1.26-.12,1.87-.29,.62-.12,1.22-.35,1.81-.58l.87-.4,.82-.48c.53-.35,1.06-.72,1.52-1.16,.25-.2,.48-.43,.69-.67,.22-.23,.45-.46,.63-.72,.41-.49,.75-1.04,1.09-1.59,.29-.57,.58-1.15,.79-1.76,.13-.3,.2-.61,.29-.92,.09-.31,.17-.62,.21-.91,.04-.32,.13-.55,.14-.94l.07-1.01c-.03-.65-.02-1.3-.15-1.93-.07-.65-.27-1.27-.44-1.89l-.34-.91c-.13-.3-.29-.58-.43-.88-.13-.3-.33-.56-.49-.84-.17-.28-.35-.55-.56-.8-.38-.53-.85-1-1.3-1.47h0s-.63-.57-.63-.57l.35-1.06c.26-.79,.64-1.53,.84-2.33,.21-.8,.45-1.59,.51-2.35l.17-1.16,.04-1.34,.02-.67v-.17s0-.02,0-.02c0,.21,0,.05,0,.1h0s0-.05,0-.05v-.08s-.03-.3-.03-.3l-.1-1.21c-.16-.79-.25-1.59-.5-2.36-.18-.78-.49-1.52-.78-2.27-.36-.71-.67-1.45-1.12-2.12-.39-.7-.9-1.32-1.38-1.96-.55-.58-1.05-1.21-1.66-1.72-.57-.57-1.23-1.01-1.87-1.5-.69-.41-1.34-.87-2.07-1.2-.7-.4-1.47-.62-2.21-.93-.77-.21-1.55-.48-2.29-.58-.69-.18-1.65-.21-2.53-.29l-2.36,.04-2.44,.37h0l-1.45,.4-.39-1.58-.53-2.15c-.18-.71-.45-1.4-.67-2.1-.2-.71-.56-1.36-.83-2.03-.27-.68-.63-1.32-.98-1.95l-.51-.96-.59-.92c-.39-.61-.78-1.23-1.25-1.78-.86-1.17-1.85-2.23-2.89-3.24-.54-.48-1.06-.99-1.62-1.43l-1.71-1.31-1.81-1.17c-.62-.36-1.27-.67-1.9-1.01-1.3-.6-2.62-1.18-3.99-1.57-.67-.25-1.37-.4-2.07-.55l-1.05-.24c-.34-.06-.68-.09-1.02-.14-.69-.08-1.3-.23-2.12-.23l-1.17-.05-.58-.03h-.15s-.07-.01-.07-.01h-.02c-.1,0,.12,0,.09,0h-.03s-.27,.01-.27,.01c-1.43,.03-2.86,.14-4.27,.39-.7,.12-1.41,.23-2.1,.43l-1.04,.26-1.02,.34c-1.36,.44-2.67,1.03-3.96,1.66-.65,.31-1.25,.7-1.88,1.05-.6,.4-1.21,.78-1.79,1.21-1.15,.87-2.27,1.79-3.27,2.83-.53,.5-1.02,1.02-1.49,1.58-.5,.53-.92,1.12-1.37,1.7-.87,1.17-1.63,2.41-2.35,3.69h0s-.53,1.04-.53,1.04l-1.12-.06-2.72-.14-2.45,.14-2.51,.4c-.81,.23-1.64,.4-2.45,.67-.79,.31-1.61,.54-2.37,.91-.75,.39-1.55,.68-2.26,1.15-.72,.45-1.47,.84-2.13,1.38-.68,.5-1.37,1-1.97,1.6l-.94,.85-.85,.94c-.6,.6-1.1,1.28-1.6,1.97-.54,.66-.94,1.4-1.39,2.12-.48,.7-.77,1.51-1.16,2.26-.38,.76-.6,1.58-.92,2.36-.27,.8-.44,1.63-.66,2.45-.16,.81-.25,1.61-.39,2.42l-.15,2.71v-.09Zm-3.47-.09l.14-2.72c.15-.98,.27-1.99,.46-2.95,.25-.93,.45-1.89,.76-2.8,.35-.9,.62-1.84,1.05-2.71,.44-.86,.78-1.78,1.32-2.58,.51-.82,.98-1.68,1.59-2.43,.57-.78,1.15-1.56,1.83-2.25l.98-1.07,1.07-.98c.69-.68,1.47-1.25,2.25-1.83,.75-.61,1.61-1.07,2.43-1.58,.81-.54,1.73-.88,2.59-1.32,.87-.42,1.81-.7,2.71-1.04,.92-.29,1.87-.5,2.81-.74,.95-.17,1.91-.3,2.87-.44l1.45-.07,.72-.03,.36-.02h.18s.09-.01,.09-.01h.18s2.72,.16,2.72,.16l-1.65,.99h0c.35-.75,.67-1.51,1.05-2.24,.42-.71,.78-1.46,1.26-2.14,.45-.69,.9-1.39,1.42-2.04,.49-.67,1.02-1.31,1.58-1.93,1.11-1.24,2.36-2.36,3.65-3.41,.66-.52,1.34-.99,2.02-1.48,.71-.43,1.41-.91,2.14-1.31,1.47-.81,2.99-1.53,4.58-2.06l1.19-.41,1.22-.33c.81-.24,1.63-.39,2.46-.55,1.65-.3,3.33-.43,5.01-.46h.31s.4,0,.4,0l.58,.03,1.17,.05c.74,0,1.66,.16,2.51,.28,.43,.07,.87,.12,1.29,.2l1.23,.29c.82,.19,1.64,.38,2.42,.68,1.6,.5,3.15,1.18,4.64,1.94,.73,.42,1.47,.81,2.18,1.25l2.07,1.42,1.93,1.59c.63,.55,1.19,1.17,1.79,1.75,1.13,1.22,2.2,2.5,3.12,3.88,.5,.67,.91,1.39,1.32,2.11l.62,1.08,.52,1.13c.34,.76,.69,1.5,.93,2.29,.25,.79,.58,1.54,.75,2.35,.18,.8,.42,1.59,.55,2.4l.34,2.43-1.84-1.18h0c.92-.27,1.86-.54,2.81-.76,1-.11,1.86-.25,2.99-.32,.91,.03,1.74,0,2.81,.16,1.05,.09,1.97,.35,2.94,.57,.93,.31,1.88,.6,2.76,1.05,.91,.39,1.75,.92,2.6,1.43,.79,.59,1.61,1.15,2.32,1.84,.76,.64,1.39,1.4,2.05,2.14,.59,.79,1.2,1.57,1.67,2.44,.54,.83,.91,1.75,1.32,2.65,.33,.93,.67,1.86,.87,2.82,.27,.95,.32,1.94,.45,2.91l.04,1.47v.37s0,.09,0,.09v.2s-.02,.17-.02,.17l-.06,.67-.12,1.34c-.08,.48-.19,.99-.3,1.48-.19,1.02-.55,1.91-.88,2.82-.32,.91-.85,1.74-1.27,2.59l-.28-1.62h0c.57,.56,1.16,1.12,1.64,1.76,.27,.3,.5,.63,.72,.97,.22,.34,.46,.66,.64,1.03,.19,.36,.39,.71,.56,1.07l.45,1.12c.25,.77,.51,1.54,.62,2.35,.17,.79,.2,1.61,.25,2.42l-.04,1.17c0,.33-.09,.82-.14,1.23-.05,.43-.13,.84-.24,1.23-.1,.39-.18,.8-.33,1.18-.24,.78-.59,1.52-.94,2.26-.4,.71-.82,1.41-1.32,2.06-.23,.34-.51,.64-.78,.94-.26,.31-.55,.61-.86,.88-.58,.58-1.24,1.07-1.91,1.54l-1.05,.65-1.11,.55c-.76,.32-1.52,.63-2.33,.82-.79,.24-1.61,.34-2.43,.44l-1.24,.08-1.21-.06-.55-.03-.64-.1-1.29-.23,2.07-.95h0c-.51,.97-1.05,1.93-1.68,2.82-.63,.89-1.29,1.76-2.03,2.56-.35,.41-.73,.8-1.13,1.17-.39,.38-.77,.76-1.19,1.1-.81,.72-1.69,1.35-2.57,1.98-.91,.58-1.82,1.15-2.78,1.64-.96,.49-1.93,.95-2.94,1.32-1,.4-2.03,.7-3.05,1.01-1.04,.24-2.08,.5-3.14,.64-1.05,.19-2.12,.26-3.18,.33l-1.6,.05h-.27s-.19,0-.19,0l-.38-.02-.76-.04c-.51-.04-.99-.02-1.53-.1l-1.63-.22c-1.11-.11-2.1-.43-3.16-.64-1.02-.3-2.05-.61-3.05-.99-.98-.42-1.99-.79-2.92-1.32-.47-.25-.95-.49-1.42-.76l-1.35-.87c-.92-.55-1.72-1.29-2.57-1.92h0s2.32-.32,2.32-.32c-.84,1.08-1.57,2.26-2.57,3.21-.9,1.04-1.98,1.9-3.05,2.77-.53,.44-1.14,.77-1.72,1.15-.58,.38-1.16,.74-1.8,1.01l-1.88,.88-1.97,.66c-.65,.25-1.33,.37-2.01,.5-.68,.12-1.35,.31-2.04,.36l-2.07,.14-.52,.03h-.13s-.21,0-.21,0h-.24s-.96-.06-.96-.06l-.96-.05-1.07-.15c-.71-.11-1.44-.19-2.09-.38-1.36-.3-2.66-.76-3.95-1.27l-1.88-.9c-.61-.33-1.19-.71-1.79-1.06-1.14-.78-2.26-1.61-3.25-2.57-.53-.45-.99-.96-1.45-1.48-.47-.51-.92-1.03-1.32-1.6-.85-1.09-1.56-2.29-2.21-3.51-.29-.63-.6-1.25-.86-1.89l-.69-1.95c-.36-1.33-.68-2.68-.83-4.05-.13-.68-.12-1.37-.14-2.06l-.03-1.03v-.06s0-.15,0-.15v-.12s.03-.24,.03-.24l.04-.48c.07-.66,.05-1.24,.19-1.96l.37-2.09h0s.62,1.57,.62,1.57l-2.61-2.02c-.78-.77-1.58-1.53-2.35-2.32l-1.03-1.29c-.34-.44-.7-.85-1.01-1.31l-.87-1.41c-.28-.47-.6-.93-.85-1.42l-.7-1.5c-.22-.51-.49-.99-.67-1.51l-.51-1.58c-.16-.53-.37-1.05-.48-1.59l-.32-1.63c-.1-.54-.23-1.08-.3-1.63l-.23-3.31v-.09Z"/>
            <path d="M381.53,95.54s.02-.24,.05-.68c.04-.44,.17-1.09,.46-1.87,.31-.76,.8-1.65,1.55-2.48,.74-.84,1.75-1.61,2.94-2.22,1.22-.61,2.55-1.04,4.16-1.21,1.43-.14,3.13,0,4.72,.5,1.59,.52,3.19,1.4,4.43,2.77,.61,.68,1.17,1.46,1.53,2.36,.37,.81,.6,2.06,.61,2.76,.04,2.12-.73,3.97-1.99,5.4-1.23,1.44-2.83,2.4-4.47,2.98-.84,.28-1.63,.46-2.53,.54-.47,.07-.76,.04-1.14,.07-.49,0-.83-.03-1.24-.05-1.57-.16-3.02-.64-4.24-1.29-1.22-.66-2.22-1.5-2.95-2.39-.74-.89-1.19-1.81-1.48-2.6-.25-.76-.37-1.57-.38-1.94-.01-.38-.02-.58-.02-.58v-.07Zm2.26-.07s.02,.2,.05,.58c.05,.38,.12,.67,.33,1.26,.42,1.06,1.49,2.52,3.41,3.41,.94,.45,2.06,.75,3.27,.84,.28,0,.65,.03,.87,.03,.33-.02,.77-.02,1.02-.07,.56-.05,1.23-.22,1.84-.41,1.23-.41,2.42-1.1,3.29-2.08,.89-.93,1.42-2.28,1.48-3.41-.01-.93-.1-1.29-.32-1.98-.21-.62-.58-1.19-1-1.71-.86-1.05-2.06-1.82-3.33-2.29-1.3-.45-2.59-.61-3.93-.52-1.18,.08-2.4,.43-3.35,.93-.98,.49-1.73,1.15-2.28,1.81-.54,.66-.86,1.33-1.06,1.89-.17,.57-.24,1.02-.26,1.33-.01,.31-.02,.48-.02,.48v-.07Z"/>
            <path d="M396.64,111.22s.02-.13,.05-.36c.04-.24,.08-.59,.27-.98,.15-.41,.46-.84,.84-1.26,.4-.41,.89-.8,1.5-1.11,.31-.14,.6-.31,1-.4,.19-.05,.38-.1,.58-.15,.18-.04,.32-.04,.49-.07,.76-.12,1.58-.03,2.41,.15,.82,.26,1.69,.6,2.39,1.34,.19,.15,.33,.38,.49,.58,.15,.2,.3,.42,.42,.73l.17,.44c.06,.16,.1,.3,.1,.37l.05,.28,.02,.14v.07s.02,.03,.02,.03v.02s0,0,0,0v.18c.03,1.14-.45,2.22-1.14,2.98-.69,.8-1.56,1.22-2.44,1.53-.46,.12-1.05,.25-1.32,.24l-.5,.02h-.18s-.08,0-.08,0l-.15-.02-.3-.04c-.8-.08-1.55-.35-2.17-.7-.63-.34-1.14-.79-1.52-1.25-.37-.48-.65-.91-.8-1.44-.19-.54-.15-.75-.17-.93-.01-.18-.02-.27-.02-.27v-.13Zm1.99-.13s.02,.09,.05,.26c.03,.17,.08,.49,.18,.54,.04,.1,.23,.34,.44,.55,.24,.2,.55,.4,.94,.54,.39,.12,.83,.25,1.31,.22h.18s.09,0,.09,0h.05c.1,0-.13,0-.11,0h0s.02,0,.02,0h.03s.5-.07,.5-.07c.41-.02,.47-.14,.7-.17,.42-.18,.92-.39,1.2-.72,.3-.32,.48-.66,.53-1.04,.02,.34,0,.09,0,.16h0s0-.03,0-.03v-.04s0-.07,0-.07v-.14s-.03-.28-.03-.28c0-.12-.02-.16-.04-.17-.02-.02-.03-.05-.03-.08,0-.05-.04-.14-.11-.24-.06-.09-.09-.21-.19-.29-.27-.41-.77-.68-1.25-.92-.51-.18-1.06-.31-1.58-.27-.15,0-.34,0-.46,.02l-.32,.07c-.21,.02-.43,.13-.64,.2-.85,.35-1.26,.99-1.36,1.4-.09,.2-.07,.38-.08,.49-.01,.11-.02,.17-.02,.17v-.13Z"/>
          </g>
          <g>
            <path d="M322.13,52.04v-8.51h1.01v7.59h3.79v.92h-4.8Z"/>
            <path d="M328.43,52.04v-8.51h2.31c1.6,0,3.17,.72,3.17,2.55,0,1.1-.63,1.94-1.65,2.34l2.06,3.62h-1.18l-1.85-3.36c-.24,.02-.48,.04-.72,.04-.37,0-.77-.04-1.14-.1v3.42h-1.01Zm1.01-7.62v3.3c.38,.07,.79,.1,1.17,.1,1.12,0,2.27-.38,2.27-1.69s-1.02-1.7-2.13-1.7h-1.31Z"/>
            <path d="M335.63,43.53h2.82c2.55,0,4.51,1.49,4.51,4.23s-1.83,4.28-4.5,4.28h-2.83v-8.51Zm1.01,7.59h1.79c2.02,0,3.5-1.19,3.5-3.33s-1.39-3.33-3.5-3.33h-1.79v6.67Z"/>
            <path d="M344.52,52.04v-8.51h1.01v8.51h-1.01Z"/>
            <path d="M350.41,44.7c-.35,0-.66-.31-.66-.66s.3-.66,.66-.66,.66,.28,.66,.66c0,.36-.3,.66-.66,.66Zm.48,7.34h-.96v-6.19h.96v6.19Z"/>
            <path d="M352.16,50.74l.86-.31c.3,.59,.83,.96,1.5,.96,.61,0,1.33-.31,1.33-1.02,0-.52-.37-.85-1.13-1.01l-.47-.1c-.95-.19-1.92-.62-1.92-1.74,0-1.22,1.04-1.85,2.18-1.85,1.01,0,1.86,.49,2.22,1.48l-.86,.29c-.13-.3-.31-.53-.54-.7-.24-.16-.52-.24-.83-.24-.55,0-1.21,.28-1.21,.92s.71,.88,1.25,.97l.47,.1c.96,.19,1.82,.68,1.82,1.78,0,1.27-1.13,1.95-2.31,1.95-1.02,0-1.97-.5-2.36-1.49Z"/>
            <path d="M360.33,50.74l.86-.31c.3,.59,.83,.96,1.5,.96,.61,0,1.33-.31,1.33-1.02,0-.52-.37-.85-1.13-1.01l-.47-.1c-.95-.19-1.92-.62-1.92-1.74,0-1.22,1.04-1.85,2.18-1.85,1.01,0,1.86,.49,2.22,1.48l-.86,.29c-.13-.3-.31-.53-.54-.7-.24-.16-.52-.24-.83-.24-.55,0-1.21,.28-1.21,.92s.71,.88,1.25,.97l.47,.1c.96,.19,1.82,.68,1.82,1.78,0,1.27-1.13,1.95-2.31,1.95-1.02,0-1.97-.5-2.36-1.49Z"/>
            <path d="M369.03,52.22c-1.82,0-3.06-1.47-3.06-3.27s1.22-3.27,3.08-3.27,3.06,1.45,3.06,3.27-1.21,3.27-3.08,3.27Zm-2.08-3.27c0,.61,.17,1.26,.6,1.71,.37,.44,.91,.68,1.49,.68,1.32,0,2.09-1.14,2.09-2.4,0-.64-.17-1.24-.59-1.73-.41-.43-.9-.67-1.5-.67-1.32,0-2.09,1.15-2.09,2.4Z"/>
            <path d="M309.56,61.85h.86l.05,.95c.38-.74,1.09-1.13,1.92-1.13,.94,0,1.64,.5,1.98,1.37,.35-.88,1.19-1.37,2.12-1.37,1.57,0,2.25,1.22,2.25,2.7v3.67h-.96v-3.61c0-.97-.32-1.88-1.45-1.88-1,0-1.7,.78-1.7,1.78v3.72h-.96v-3.61c0-.98-.36-1.88-1.47-1.88-1.01,0-1.68,.78-1.68,1.78v3.72h-.96v-6.19Z"/>
            <path d="M320.33,61.85h.96v3.51c0,1.02,.48,1.98,1.63,1.98s1.63-.91,1.63-1.98v-3.51h.96v3.5c0,1.58-.9,2.87-2.61,2.87s-2.57-1.22-2.57-2.87v-3.5Z"/>
            <path d="M329.81,68.22c-1.79,0-2.97-1.47-2.97-3.23s1.18-3.32,3.02-3.32c1.12,0,2.04,.61,2.47,1.66l-.88,.3c-.34-.64-.89-1.08-1.63-1.08-1.29,0-2,1.25-2,2.44,0,.84,.37,1.83,1.2,2.18,.24,.12,.5,.18,.79,.18,.73,0,1.4-.4,1.71-1.07l.88,.3c-.42,1.06-1.48,1.64-2.59,1.64Z"/>
            <path d="M333.7,68.04v-8.9h.96v3.61c.4-.72,1.15-1.08,1.96-1.08,1.59,0,2.33,1.25,2.33,2.75v3.62h-.96v-3.56c0-1.02-.4-1.93-1.55-1.93-1.06,0-1.78,.76-1.78,1.82v3.67h-.96Z"/>
            <path d="M342.56,61.85h1.14v-.58c0-1.25,.68-2.25,2.04-2.25,.43,0,.82,.11,1.16,.31l-.28,.74c-.26-.13-.54-.22-.83-.22-.88,0-1.14,.67-1.14,1.44v.55h1.96v.82h-1.96v5.37h-.96v-5.37h-1.14v-.82Z"/>
            <path d="M347.69,61.85h.96v3.51c0,1.02,.48,1.98,1.63,1.98s1.63-.91,1.63-1.98v-3.51h.96v3.5c0,1.58-.9,2.87-2.61,2.87s-2.57-1.22-2.57-2.87v-3.5Z"/>
            <path d="M354.51,61.85h.86l.05,.98c.4-.76,1.16-1.16,2-1.16,1.59,0,2.33,1.25,2.33,2.75v3.62h-.96v-3.56c0-1.02-.4-1.93-1.55-1.93-1.06,0-1.78,.76-1.78,1.82v3.67h-.96v-6.19Z"/>
            <path d="M364.01,59.14h.96v3.8c.48-.83,1.28-1.27,2.23-1.27,1.78,0,2.9,1.56,2.9,3.26s-1.13,3.29-2.95,3.29c-.95,0-1.76-.48-2.23-1.31l-.05,1.13h-.86v-8.9Zm3.02,3.41c-1.32,0-2.09,1.15-2.09,2.4,0,.61,.17,1.26,.6,1.71,.37,.44,.91,.68,1.49,.68,1.32,0,2.09-1.14,2.09-2.4,0-.64-.17-1.24-.59-1.73-.41-.43-.9-.67-1.5-.67Z"/>
            <path d="M371.48,61.85h.86l.06,1.15c.31-.77,.91-1.24,1.75-1.24,.13,0,.26,.01,.37,.02,.11,.02,.19,.05,.28,.08l-.12,.91c-.18-.07-.37-.08-.56-.08-1.15,0-1.68,1-1.68,2.05v3.29h-.96v-6.19Z"/>
            <path d="M378.72,68.22c-1.82,0-3.06-1.47-3.06-3.27s1.22-3.27,3.08-3.27,3.06,1.45,3.06,3.27-1.21,3.27-3.08,3.27Zm-2.08-3.27c0,.61,.17,1.26,.6,1.71,.37,.44,.91,.68,1.49,.68,1.32,0,2.09-1.14,2.09-2.4,0-.64-.17-1.24-.59-1.73-.41-.43-.9-.67-1.5-.67-1.32,0-2.09,1.15-2.09,2.4Z"/>
            <path d="M383.03,67.38c0-.37,.31-.7,.7-.7s.7,.31,.7,.7-.32,.7-.7,.7-.7-.32-.7-.7Zm.18-7.86h1.03l-.05,6.25h-.94l-.05-6.25Z"/>
          </g>
        </g>
      </g>
    </g>
  </g>
</svg>