<?xml version="1.0" encoding="UTF-8"?>
<svg id="Layer_2" data-name="Layer 2" xmlns="http://www.w3.org/2000/svg" viewBox="0 0 69.69 68.27">
  <g id="Layer_1-2" data-name="Layer 1">
    <g>
      <path d="M34.85,33.15c-4.93,0-8.92,2.98-8.92,8.6s3.99,11.75,8.92,11.75,8.92-6.13,8.92-11.75c0-5.62-3.99-8.6-8.92-8.6Z" style="fill: #34d399;"/>
      <path d="M68.44,60.54l-22.69-31.5V14.18h.74c3.91,0,7.09-3.18,7.09-7.09s-3.18-7.09-7.09-7.09H23.2c-3.91,0-7.09,3.18-7.09,7.09s3.18,7.09,7.09,7.09h.74v14.86L1.26,60.53c-1.31,1.83-1.61,3.75-.82,5.31s2.53,2.43,4.78,2.43h59.26c2.25,0,3.99-.88,4.78-2.43,.79-1.55,.5-3.48-.82-5.3Zm-3.96,3.62h-12.37v-1.36c0-2.4-2.06-5.34-4.58-6.54l-5.79-2.75-3.82,7.94-1.89-5.14c-.39,.08-.78,.18-1.19,.18s-.8-.1-1.19-.18l-1.99,5.4-3.89-8.11-5.61,2.66c-2.52,1.19-4.58,4.15-4.58,6.54v1.36H5.22c-.69,0-1.03-.15-1.09-.15h0c-.01-.09,.05-.46,.48-1.06L28.06,30.36V10.06h-4.87c-1.64,0-2.97-1.33-2.97-2.97s1.33-2.97,2.97-2.97h23.3c1.64,0,2.97,1.33,2.97,2.97s-1.33,2.97-2.97,2.97h-4.87V30.37l23.47,32.58c.43,.59,.49,.97,.52,.97-.06,.06-.4,.24-1.14,.24Z" style="fill: #34d399;"/>
    </g>
  </g>
</svg>